<svg xmlns="http://www.w3.org/2000/svg" viewBox="0 0 48 48" stroke="#818a97">
  <g id="user-search" stroke-width="2" fill="none" fill-rule="evenodd">
    <path d="M25 29v-5.667m-10 .083V29L4.98 32.578A6 6 0 0 0 1 38.228v4.77h24"></path>
    <path d="M29.977 13c0 6.627-4.477 12-10 12-5.522 0-10-5.373-10-12 0-6.628 4.478-12 10-12 5.523 0 10 5.372 10 12z"></path>
    <path d="M29.938 11.926c-.336.04-.62.008-.96.073-3.408.653-5.596-.58-7.47-3.86-1.125 2.153-4.64 3.86-7.53 3.86a8.13 8.13 0 0 1-3.894-.95M43 36a7 7 0 1 1-14 0 7 7 0 0 1 14 0z"></path>
    <path d="M47 47l-6-6" stroke-linecap="round"></path>
  </g>
</svg>