<svg version="1.1" xmlns="http://www.w3.org/2000/svg" xmlns:xlink="http://www.w3.org/1999/xlink" x="0" y="0" viewBox="0 0 59.5299988 48.1899986" xml:space="preserve" class="svg__targeted-chat">

  <g class="svg__targeted-chat-dart">
    <polygon fill="none" stroke="#248FED" stroke-width="1.5" stroke-linecap="round" stroke-linejoin="round" points="
      33.4055824,15.35151 34.279274,15.3796539 35.1586227,15.4857054 36.0385742,15.5756407 36.9221916,15.7012377
      37.7953682,15.8899164 38.6860199,16.0625896 39.4309692,16.5821362 40.2217369,17.0024357 40.9486351,17.5265446
      41.6491852,18.0676422 42.2516174,18.7276955 42.9250374,19.3012085 43.5872879,19.8941936 44.1800804,20.5553589
      44.8018074,21.2106991 45.0397339,22.0995998 45.4255142,22.8999386 45.8357048,23.6819916 46.0999374,24.5252857
      46.5271988,25.3201141 46.80299,26.1699581 46.8893547,27.0604553 46.9130135,27.9577579 47.1794548,28.8407459
      47.1219902,29.7288799 46.9278641,30.5970592 46.7574768,31.4560585 46.6261253,32.3275604 46.3403168,33.1593781
      46.0680008,34.0038452 45.5093842,34.7012596 45.2698326,35.5591698 44.6567459,36.2835617 45.2587166,37.0292473
      45.6846733,37.8252411 46.1817322,38.57687 46.6077423,39.3687363 47.1413231,40.1044693 47.5240479,40.9240074
      47.9600525,41.7147636 48.2412071,42.5860062 48.7381592,43.3472061 49.2686577,44.0566902 49.5203362,44.933651
      50.1268616,45.7020378 49.2804756,45.2717361 48.4619827,44.9826431 47.6669312,44.6355362 46.9307556,44.1394539
      46.1394348,43.7449646 45.3910027,43.2744408 44.5638733,42.9546471 43.8881149,42.3368988 43.0345993,42.0626411
      42.2360497,41.7079468 41.4576912,41.3050385 40.6969299,40.7476044 39.9242516,41.1949158 39.1783562,41.5778313
      38.429287,41.9473877 37.583107,42.0109177 36.7596092,42.3003044 35.90065,42.3109169 35.0513077,42.4443436
      34.1948662,42.4985046 33.3344002,42.3866997 32.4696198,42.2098236 31.5740833,42.185112 30.6666603,42.2030029
      29.8047733,41.9572563 28.9360218,41.7531242 28.0649738,41.520813 27.3191662,40.9908333 26.4909554,40.6381721
      25.6198807,40.3273048 25.0024433,39.6541214 24.4441185,38.9460907 23.7846775,38.3385887 23.215641,37.6453705
      22.5550423,37.0393982 22.0207157,36.3411102 21.5348778,35.6072083 21.2561378,34.7483521 20.7982864,33.9747467
      20.5969353,33.1095314 20.3834114,32.2435989 20.0206184,31.4247303 19.8594303,30.5472641 19.808651,29.6505241
      19.7451096,28.7683239 19.8360901,27.8899097 19.8397408,26.987421 19.7819786,26.0617371 20.1886406,25.2441483
      20.482214,24.3989582 20.915514,23.6110382 21.3621559,22.8519287 21.7073498,22.0311756 22.1676998,21.2779388
      22.6798363,20.5600071 23.2976971,19.9168034 23.8278236,19.2135639 24.5144463,18.6659966 25.2067871,18.1092587
      25.8473682,17.48419 26.6325283,17.0628471 27.4415531,16.6817093 28.1555576,16.1228085 29.0273991,15.9234056
      29.8950958,15.7266321 30.7519627,15.4536963 31.6493244,15.4697142 32.5194855,15.2457743   "></polygon>

    <polygon fill="none" stroke="#248FED" stroke-width="1.5" stroke-linecap="round" stroke-linejoin="round" points="
      42.0902939,25.9970093 42.0865974,26.9810772 42.1938782,27.936121 42.498848,28.8812771 42.0744171,29.781683
      42.0852547,30.762722 41.7625389,31.6670551 41.3147659,32.4969482 41.0016823,33.4064293 40.4841423,34.2158127
      39.7615891,34.85149 39.0069962,35.4464874 38.4670525,36.2705956 37.5161362,36.4947205 36.6844482,36.9706268
      35.8230896,37.3970757 34.8538513,37.3460999 33.9248657,37.5316925 33.0014534,37.7353935 32.0561447,37.666008
      31.1131306,37.5509834 30.2293968,37.1774178 29.397604,36.7466965 28.4487743,36.5086174 27.6374054,35.991951
      27.056879,35.214325 26.2290993,34.6841698 25.7190018,33.8699112 25.1723232,33.0887756 24.8211365,32.2009392
      24.5267239,31.2873192 24.5154305,30.3317795 24.3011761,29.407732 24.1087818,28.4795742 24.2027321,27.5356636
      24.4931011,26.6282482 24.6668053,25.6993103 25.0081711,24.8147717 25.5517292,24.0308399 26.0067158,23.2089748
      26.5798721,22.4487267 27.3783588,21.8913288 27.8722439,21.0071697 28.7737846,20.6214371 29.70051,20.3427296
      30.5786228,19.9933395 31.5084991,19.9411945 32.4530144,19.8526745 33.3919373,19.8168468 34.3366928,19.8706398
      35.3085442,19.7333164 36.2704811,19.8640175 37.0436363,20.4886742 37.9573631,20.8349743 38.766201,21.3460999
      39.4653206,21.991888 40.0299988,22.7699471 40.5566559,23.5677834 41.1294632,24.3289986 41.6070023,25.1516628  "></polygon>

    <polygon fill="none" stroke="#248FED" stroke-width="1.5" stroke-linecap="round" stroke-linejoin="round" points="
      37.921917,27.4424114 37.7950058,28.2913208 37.9083443,29.0961723 37.8412819,29.8867798 37.6626472,30.6865692
      37.1245461,31.3371334 36.7969322,32.0721054 36.0717583,32.4053116 35.3603592,32.8070068 34.6912766,33.3056488
      33.8876915,33.2483025 33.0915718,33.3498459 32.3221588,33.1733818 31.6341896,32.848774 30.8771381,32.5868225
      30.1447716,32.2314224 29.8175602,31.4432545 29.1900806,30.9006901 28.6980724,30.2268448 28.6943359,29.3812294
      28.8438168,28.5546227 28.7994556,27.7554302 29.1357498,27.0330143 29.4761181,26.284544 29.7953949,25.4801846
      30.5554752,25.1167622 31.3236618,24.8515015 32.006485,24.3708649 32.8232803,24.5319004 33.6047783,24.3734035
      34.3962555,24.3539295 35.1163597,24.6835918 35.789135,25.0955772 36.411377,25.5648327 36.9921112,26.1093235
      37.3432884,26.8342381   "></polygon>

    <polyline fill="none" stroke="#2E3192" stroke-width="1.5" stroke-linecap="round" stroke-linejoin="round" points="
      33.3875008,29.1035881 34.0248146,28.4409809 34.7755623,27.8875217 35.4604454,27.2672272 35.942791,26.4548187
      36.599041,25.8066368 37.2332001,25.1347637 37.9769325,24.5809784 38.554657,23.8542061 39.3424683,23.3420086
      39.9433403,22.6422024 40.5750847,21.9705849 41.2015686,21.2952595 41.7585678,20.5506859 42.5755615,20.0658474
      43.0588112,19.2348232 43.9125214,18.8066444 44.4957695,18.0639153 45.2128258,17.4850941 45.9075699,16.8739166
      46.4513512,16.1205502 47.0330009,15.3945637 47.7660255,14.8224907 48.5532417,14.3135309 49.1141891,13.5581083
      49.7783546,12.9121904 50.2699814,12.1133537 51.0227051,11.5336866   "></polyline>

    <polyline fill="none" stroke="#2E3192" stroke-width="1.5" stroke-linecap="round" stroke-linejoin="round" points="
      44.3713722,17.9841709 44.1270981,17.1076565 44.1010056,16.2188606 43.9960785,15.3321457 44.0621452,14.4463644
      44.0024834,13.5624638 44.1774368,12.7211847 44.686409,12.0509501 45.3998337,11.5254002 46.0044975,10.8829536
      46.6671219,10.2959213 47.1764221,9.5525684 47.8423004,8.9646578 48.6016426,8.4781456 49.1189079,7.7344995
      49.8350906,7.1982422 50.3175774,6.4514008 50.9346771,5.8315434 51.6102638,5.2790112 51.4170876,6.0331244 51.3553276,6.8146834
      51.373909,7.6088352 51.2208252,8.3805971 51.0344658,9.1574411 51.0367737,9.9511299 50.9608574,10.7406645
      50.9319954,11.5340405   "></polyline>

    <polyline fill="none" stroke="#2E3192" stroke-width="1.5" stroke-linecap="round" stroke-linejoin="round" points="
      51.5184441,11.3066244 52.3456535,11.2039719 53.1763725,11.2389698 54.0121422,11.4414167 54.8414612,11.4129515
      55.6746025,11.2753134 56.5026779,11.4251184 57.3415451,11.3067284 58.2415771,11.3892822 57.4239616,11.9138489
      56.8279915,12.6166658 56.0236588,13.0605631 55.2639389,13.5451784 54.5652962,14.1177835 53.8706245,14.6985102
      53.2619629,15.3769054 52.6178741,16.0156212 51.8781967,16.5465584 51.1210251,17.0571136 50.4220734,17.6478939
      49.6712837,18.2210999 48.6875496,18.1234512 47.7301178,18.0414925 46.7722664,17.9619293 45.823513,18.0619278
      44.8741226,17.9226284 43.924427,17.8254795  "></polyline>
  </g>

  <g class="svg__targeted-chat-bubble">
    <path fill="#FFFFFF" d="M1.9858398,30.9882812c-0.1982422,0-0.394043-0.078125-0.5390625-0.2285156
      c-0.2333984-0.2402344-0.2783203-0.6074219-0.1103516-0.8974609l0.3647461-0.6308594l0.2368164-0.6855469l0.2910156-0.7617188
      l0.2729492-0.7763672c0.0131836-0.0371094,0.0292969-0.0742188,0.0483398-0.109375l0.3999023-0.7363281l0.3544922-0.7207031
      c0.0166016-0.0341797,0.0361328-0.0673828,0.0581055-0.0986328l0.3911133-0.5595703l0.1225586-0.6870117
      c0.0131836-0.0742188,0.0371094-0.1455078,0.0717773-0.2124023l0.3803711-0.7373047l0.3754883-0.6342773l0.09375-0.6894531
      c0.0131836-0.097168,0.0454102-0.1904297,0.0942383-0.2749023l0.2167969-0.3745117l-0.1933594-0.3041992l-0.878418-1.2539062
      c-0.09375-0.1342773-0.1411133-0.2958984-0.1342773-0.4594727l0.0273438-0.6621094l-0.2480469-0.5810547
      c-0.043457-0.1025391-0.0639648-0.2133789-0.0595703-0.324707l0.0268555-0.652832l-0.2280273-0.6025391
      c-0.0185547-0.0493164-0.0317383-0.1005859-0.0400391-0.1523438l-0.1176758-0.7744141l-0.0766602-0.8237305
      c-0.0029297-0.0336914-0.0039062-0.0673828-0.0024414-0.1015625L3.2250977,13.5625
      c0.0019531-0.0341797,0.0053711-0.0683594,0.0117188-0.1020508l0.1660156-0.9067383l0.0463867-0.8212891
      c0.003418-0.0581055,0.0141602-0.1152344,0.0307617-0.1704102l0.265625-0.8769531l0.5883789-1.7700195
      c0.0195312-0.0581055,0.0458984-0.1137695,0.0791016-0.1655273l0.4960938-0.777832
      c0.034668-0.0546875,0.0766602-0.1044922,0.1240234-0.1484375l0.6030273-0.5556641l0.4101562-0.6953125
      c0.0385742-0.065918,0.0874023-0.1254883,0.1445312-0.1767578l0.6235352-0.5610352l0.4926758-0.6767578
      c0.03125-0.0429688,0.0668945-0.0820312,0.1064453-0.1176758l0.6738281-0.6030273l0.597168-0.6328125
      C8.7299805,3.7563477,8.78125,3.7143555,8.8378906,3.6801758l0.7841797-0.4785156l0.7280273-0.5053711
      c0.0859375-0.0595703,0.1835938-0.1005859,0.2866211-0.1201172l0.8193359-0.1557617l0.7226562-0.3828125
      c0.0834961-0.0439453,0.1748047-0.0717773,0.2685547-0.0825195l0.921875-0.1020508l0.8583984-0.1381836
      c0.0395508-0.0063477,0.0791016-0.0092773,0.1186523-0.0092773c0.0014648,0,0.8256836,0.0053711,0.8256836,0.0053711
      l0.8066406-0.2182617c0.0644531-0.0170898,0.1298828-0.0258789,0.1958008-0.0258789
      c0.074707,0,0.1494141,0.0112305,0.2216797,0.0336914l0.796875,0.246582l0.8222656,0.0307617
      c0,0,0.8945312-0.0029297,0.8950195-0.0029297c0.0942383,0,0.1879883,0.0175781,0.2753906,0.0522461l0.8554688,0.3378906
      l0.8022461,0.2026367c0.0825195,0.0214844,0.1606445,0.0566406,0.230957,0.1044922l0.6713867,0.4526367L22.53125,3.1572266
      c0.1049805,0.03125,0.2021484,0.0849609,0.2841797,0.1577148l0.6923828,0.612793l0.6743164,0.4985352
      c0.0288086,0.0209961,0.0556641,0.0444336,0.0810547,0.0698242l0.6376953,0.6337891l0.6259766,0.7685547l0.5688477,0.6723633
      l0.5722656,0.7290039l0.5922852,0.5883789c0.0703125,0.0703125,0.1259766,0.1547852,0.1630859,0.2470703l0.34375,0.8476562
      l0.3574219,0.8046875l0.362793,0.8427734c0.0297852,0.0693359,0.0488281,0.1425781,0.0566406,0.2172852l0.0966797,0.9130859
      l0.1240234,0.7749023l0.3037109,0.800293c0.0239258,0.0629883,0.0395508,0.1293945,0.0454102,0.1962891l0.0849609,0.9111328
      c0.0073242,0.0766602,0.0024414,0.1538086-0.0136719,0.2285156l-0.1943359,0.8969727l-0.0810547,0.8271484l-0.1479492,0.9394531
      l-0.1748047,0.9238281c-0.0068359,0.0361328-0.0161133,0.0712891-0.0283203,0.105957l-0.5922852,1.7246094
      c-0.0131836,0.0390625-0.0297852,0.0771484-0.0498047,0.1132812l-0.4389648,0.8154297
      c-0.0175781,0.0332031-0.0375977,0.0649414-0.0605469,0.0947266l-0.5229492,0.6967773l-0.4204102,0.7583008
      c-0.0463867,0.0834961-0.1079102,0.1572266-0.1821289,0.2177734l-0.7128906,0.5805664l-0.5795898,0.5991211l-0.7714844,0.6362305
      l-0.8217773,0.5454102l-0.7915039,0.484375l-0.7832031,0.4677734c-0.0629883,0.0380859-0.1318359,0.0664062-0.203125,0.0839844
      l-0.8310547,0.2080078l-0.7539062,0.3662109l-0.784668,0.4121094c-0.0649414,0.0341797-0.1347656,0.0585938-0.2070312,0.0722656
      l-1.8085938,0.3505859c-0.0351562,0.0068359-0.0703125,0.0107422-0.1054688,0.0126953c0,0-0.9526367,0.0478516-0.965332,0.0478516
      c-0.03125,0-0.0629883-0.0019531-0.0942383-0.0058594l-0.7719727-0.0976562
      c-0.09375-0.0117188-0.1845703-0.0410156-0.2670898-0.0869141l-0.5336914-0.2939453l-0.5859375,0.0039062l-0.8476562-0.078125
      c-0.0708008-0.0058594-0.1401367-0.0234375-0.2060547-0.0498047l-0.9262695-0.3691406l-0.9072266-0.3232422l-0.5981445-0.1367188
      l-0.46875,0.2177734l-0.6240234,0.3828125L8.5117188,27.1875l-0.7763672,0.2685547l-0.6430664,0.3808594l-0.7226562,0.4140625
      l-0.5932617,0.4433594L5.0678711,29.171875c-0.03125,0.0214844-0.0639648,0.0400391-0.0976562,0.0556641L4.293457,29.5478516
      l-0.5649414,0.4248047l-0.5839844,0.4785156c-0.0371094,0.0302734-0.0771484,0.0566406-0.1191406,0.0791016l-0.6845703,0.3681641
      C2.2285156,30.9589844,2.1064453,30.9882812,1.9858398,30.9882812z"></path>
    <path fill="#248FED" d="M16.1742058,2.2170019l0.8918915,0.2756798l0.9205399,0.0347202l0.9233284-0.00229l0.8557816,0.33761
      l0.8889084,0.2312598l0.7673111,0.5174801l0.8964901,0.26507l0.6921501,0.6124899l0.723629,0.5387301l0.63764,0.6337399
      L24.943346,6.369792l0.5796509,0.6852198l0.5545502,0.70754l0.6512089,0.6543698l0.3435612,0.8479605l0.3664188,0.8266802
      l0.3593712,0.8354292l0.0968094,0.9126902l0.1410599,0.8902702l0.3309898,0.8722095l0.0853996,0.9111805l-0.1945095,0.8969402
      l-0.0944805,0.9084797l-0.1424789,0.8991604l-0.1707497,0.90172l-0.2980518,0.8599205l-0.29599,0.8678799l-0.4388885,0.8158398
      l-0.5540409,0.7383194l-0.4453602,0.8031693l-0.7129097,0.5801811L24.462986,23.441391l-0.7100887,0.5800114l-0.7590504,0.4989185
      l-0.7705898,0.4716206l-0.7768402,0.4645596l-0.9071903,0.2262802l-0.8237209,0.4004803l-0.8056984,0.4228897l-0.9031105,0.1740112
      l-0.9074001,0.1763592l-0.9273605,0.0468006l-0.7721195-0.0972996l-0.7046099-0.3881607l-0.7811108,0.0054607l-0.7708292-0.0744705
      l-0.9265404-0.3697109L11.283556,25.646841l-0.9328499-0.2194996l-0.7017002,0.3264599l-0.6962795,0.4206409l-0.7428503,0.3267288
      l-0.7913299,0.2704411L6.7099161,27.191021l-0.7135196,0.4094105l-0.6646304,0.4906406l-0.6821899,0.4586506l-0.7457998,0.3522091
      l-0.6257901,0.4715996l-0.6078501,0.4969902l-0.6848099,0.3681011l0.40137-0.6934814l0.2604201-0.7541485l0.2827499-0.7393818
      l0.27982-0.7943497l0.39956-0.7363987l0.36848-0.7487411l0.4856799-0.6947289l0.1511803-0.8497009l0.3804698-0.7376804
      l0.43189-0.7262802l0.1140699-0.8399086l0.4454603-0.7685299l-0.4382701-0.6885509l-0.4442401-0.6322803l-0.4517398-0.64814
      l0.0343699-0.8311787l-0.3146501-0.7369099l0.0328999-0.8053017l-0.28195-0.7457886l-0.1173501-0.7743006l-0.0716898-0.7794104
      l0.0406401-0.91786l0.1663599-0.9070892l0.0567899-0.9091301l0.2655201-0.8772106l0.2894301-0.8734293l0.2927999-0.8758507
      l0.4961901-0.7779894l0.6845798-0.6308303l0.4662399-0.7911l0.6822801-0.6138l0.5390902-0.7402401l0.6733999-0.6027398
      L9.228466,4.3203816l0.7843399-0.4783599l0.7640305-0.5292199l0.9304295-0.17645l0.8223209-0.4354899l0.9222393-0.1022201
      l0.8944502-0.14292l0.9226103,0.0056L16.1742058,2.2170019 M16.174202,0.7170038
      c-0.131361,0-0.2627468,0.0172445-0.3908253,0.0518081l-0.7088747,0.213429L14.3553762,1c-0.0030394,0-0.0060797,0-0.0091181,0
      c-0.0792532,0-0.1583834-0.0158606-0.2366619-0.0033503l-0.8588438,0.1261617L12.364336,1.2155263
      c-0.1877298,0.02081-0.3698397,0.0741227-0.5367594,0.1625127l-0.6222582,0.328156l-0.707962,0.1335686
      c-0.2062798,0.03912-0.4020405,0.1207541-0.5746403,0.2403042L9.1944828,2.5843196L8.4474363,3.0398483
      C8.3346062,3.1086583,8.2313662,3.192035,8.1404066,3.287895L7.5412564,3.9192469L6.9133763,4.4812326
      C6.8345962,4.5517526,6.7634864,4.6303968,6.7012463,4.715867L6.2546768,5.329062L5.6891861,5.8377934
      c-0.1138296,0.1024098-0.2113099,0.2216392-0.2890496,0.353539L5.0465322,6.7913156L4.5251164,7.2717919
      c-0.09518,0.0877099-0.1786103,0.1873598-0.24821,0.2964897L3.7807164,8.3462715
      c-0.0659802,0.1034603-0.11902,0.2146301-0.1579301,0.3310099L3.3299863,9.5531321l-0.2906799,0.8771801l-0.2773302,0.9144793
      c-0.0335798,0.1109304-0.0541899,0.2253704-0.06141,0.3410406l-0.0512195,0.819952l-0.1502404,0.8191977
      c-0.0123801,0.0674706-0.0201101,0.1357098-0.0231402,0.2042398l-0.0406399,0.91786
      c-0.00301,0.0679407-0.00139,0.1360102,0.0048399,0.2037401l0.0716901,0.7794104
      c0.0026801,0.0292196,0.0062301,0.0583601,0.0106299,0.0873795l0.1173501,0.7743006
      c0.01582,0.1044197,0.04263,0.2068806,0.0799799,0.3056698l0.1737955,0.4597092l-0.0204153,0.4997101
      c-0.00911,0.2229214,0.03163,0.4450703,0.11924,0.6502609l0.1814227,0.4248924l-0.0203528,0.492197
      c-0.01355,0.3276196,0.0806301,0.6506596,0.2681301,0.9196701l0.45174,0.64814l0.3551383,0.5054779
      c-0.0898681,0.1624222-0.1488509,0.3402081-0.1738482,0.524313l-0.0729904,0.5374336l-0.2758899,0.4639454
      c-0.0154099,0.0259209-0.03004,0.0522995-0.04386,0.0790997l-0.38047,0.7376804
      c-0.0689099,0.1336098-0.1173398,0.2768211-0.1436799,0.4248199L3.044528,24.4890289l-0.2961717,0.4236526
      c-0.0437901,0.0626297-0.0827301,0.1285305-0.1164801,0.1970997l-0.3553319,0.7220249l-0.385288,0.7100964
      c-0.0378,0.0696697-0.07002,0.1422195-0.09636,0.21698l-0.2798201,0.7943497l-0.2690099,0.7019787l-0.2296615,0.6630306
      l-0.3293185,0.5689907c-0.33599,0.5805187-0.24574,1.313549,0.22103,1.7952404
      c0.2898794,0.2991447,0.6812232,0.456192,1.077708,0.456192c0.2419434,0,0.4857943-0.0584736,0.709692-0.1788235
      l0.6848099-0.3680992c0.0847001-0.0455208,0.16483-0.0990906,0.23928-0.1599598l0.5850575-0.4783554l0.4788966-0.360899
      l0.606566-0.2864552c0.0681601-0.0321903,0.13381-0.0694714,0.1963701-0.1115303l0.6821899-0.4586506
      c0.01826-0.0122795,0.0362501-0.0249596,0.0539498-0.0380306l0.5951548-0.439352l0.6386452-0.3664474l0.5931406-0.3509293
      l0.64538-0.2205601c0.0402498-0.0137596,0.0798998-0.0292206,0.1188393-0.0463409l0.7428503-0.3267288
      c0.0590897-0.026001,0.1164503-0.0557804,0.17171-0.0891609l0.6268578-0.3787003l0.1574163-0.0732365l0.3462257,0.0814667
      l0.8282042,0.2949219l0.9002962,0.3592377c0.1318102,0.0526009,0.2704096,0.0862198,0.4116697,0.0998707l0.7708302,0.1128101
      C13.8177958,27.9593468,13.8659306,28,13.9140902,28c0.0034971,0,0.0069895,0,0.0104866,0l0.3896999-0.0410843l0.3617697,0.1801147
      c0.16611,0.0915108,0.3480701,0.1411018,0.5362301,0.1648121l0.7721195,0.0925045
      c0.0622063,0.007843,0.1248264,0.0093727,0.1874771,0.0093727c0.0252247,0,0.0504513-0.0018349,0.0756626-0.0031109
      l0.9273605-0.0473976c0.0707092-0.003561,0.1410809-0.0124397,0.2105808-0.0259399l0.9074001-0.1765079l0.9007282-0.1736279
      c0.1441116-0.0277691,0.283371-0.0765762,0.4133205-0.1447754l0.8057003-0.4229088l0.6409893-0.3110065l0.7558212-0.18853
      c0.1431389-0.0356998,0.2802296-0.0923309,0.4068394-0.1680412l0.7768402-0.4645596l0.7837601-0.4795914l0.7999191-0.5248508
      c0.0432205-0.02841,0.0849514-0.0590305,0.125-0.0917492l0.7100906-0.5800114
      c0.0432606-0.0353394,0.0845108-0.0730591,0.1235504-0.1129894l0.5823326-0.5955048l0.6468563-0.5264244
      c0.1483612-0.1207409,0.2722511-0.2687302,0.3650112-0.4360104l0.3952732-0.7128448l0.4920769-0.6557465
      c0.0450993-0.0600986,0.0856094-0.1234989,0.1212101-0.1896687l0.4388885-0.8158398
      c0.0390816-0.0726414,0.0721016-0.1483803,0.0987206-0.22645l0.29599-0.8678799l0.2956295-0.8528805
      c0.0240002-0.0692406,0.0428905-0.1401501,0.05653-0.2121506l0.1707516-0.90172l0.1501884-0.9434795
      c0.0041809-0.0264397,0.0076599-0.0529804,0.0104313-0.0795994l0.0859356-0.8263292l0.1770344-0.8163519
      c0.032589-0.1503096,0.0418797-0.30474,0.0275192-0.4578695l-0.0853996-0.9111805
      c-0.0125809-0.1342402-0.0431995-0.2661695-0.0910301-0.3922195l-0.2761021-0.7275734l-0.110817-0.6993961l-0.0927315-0.8742304
      c-0.0158787-0.1497202-0.0542088-0.2962008-0.1137104-0.4345102l-0.3593693-0.8354301L28.4436455,8.657052l-0.3246593-0.8034
      c-0.0749798-0.18506-0.1861591-0.3532901-0.3270092-0.4948201l-0.5885963-0.5914521l-0.499794-0.6376781
      c-0.0115204-0.0147099-0.0233212-0.0291896-0.0353909-0.0434599l-0.579649-0.6852198l-0.5492611-0.6814203
      c-0.0344086-0.0426497-0.0711403-0.0833898-0.1100101-0.1220198l-0.63764-0.6337399
      c-0.0505085-0.0502-0.1045284-0.09674-0.1616497-0.1392701l-0.6728096-0.5008948l-0.6446705-0.5704753
      c-0.164259-0.14536-0.3584003-0.2529199-0.5687389-0.31511l-0.6747952-0.1995199l-0.5756149-0.3882
      c-0.1407909-0.09496-0.2966805-0.16531-0.461031-0.20807l-0.800848-0.2083498l-0.7710419-0.3167337
      C19.2851391,1.0480628,19.0983925,1,18.9099617,1c-0.0012379,0-0.0024757,0-0.0037155,0l-0.8934059,0.0147717l-0.6926422-0.0198463
      l-0.703022-0.2141625C16.4730015,0.7361993,16.3236256,0.7170038,16.174202,0.7170038L16.174202,0.7170038z"></path>

    <polyline fill="none" stroke="#2E3192" stroke-width="1.5" stroke-linecap="round" stroke-linejoin="round" points="
      10.6924744,10.5246973 11.6372528,10.6339798 12.587163,10.6267662 13.5379725,10.671073 14.4858227,10.4554968
      15.436841,10.4583969 16.3885632,10.3824368 17.3372803,10.4808397 18.2886353,10.4535265 19.236927,10.6699991   "></polyline>

    <polyline fill="none" stroke="#2E3192" stroke-width="2" stroke-linecap="round" stroke-linejoin="round" points="
      10.695488,14.3920898 11.634593,14.2142677 12.5798922,14.0893688 13.5377655,14.0048151 14.4853458,14 15.4388227,14
      16.3881588,14.1417093 17.3337479,14.26581 18.2841778,14.3450174 19.2349186,14.4089413 20.1820316,14.2938967
      21.1352463,14.414855 22.0878124,14.4920559  "></polyline>

    <polyline fill="none" stroke="#2E3192" stroke-width="1.5" stroke-linecap="round" stroke-linejoin="round" points="
      10.6950064,17.8433285 11.4780436,18.0837212 12.2704678,18.0933361 13.0656796,17.9541397 13.8587427,18.0447445
      14.6446619,17.8670464 15.4366989,17.8358116   "></polyline>
  </g>

</svg>