<svg xmlns="http://www.w3.org/2000/svg" xmlns:xlink="http://www.w3.org/1999/xlink" x="0" y="0" viewBox="0 0 48.1899986 62.3600006" xml:space="preserve" class="svg__inbox">
  <polyline fill="none" stroke="#248FED" stroke-linecap="round" stroke-linejoin="round" points="30.3902874,49.9373779
    30.5049152,50.0047607 31.3576412,50.0303345 32.2153015,50.0740318 33.0740356,50.0872078 33.9397049,49.9406319
    34.7956657,50.1282425 35.6618004,50.0646782 36.5229073,50.0939827 37.3722687,50.3218651 38.2377396,50.3062363
    39.0992432,50.2116013 39.9657516,50.2184372 40.8338661,50.1814117 41.6858406,50.3992615 42.5531807,50.3904572
    43.3478165,50.3779869 42.9115181,49.5938377 42.7105637,48.6275482 42.3230247,47.7389793 41.7813454,46.9343529
    41.2149086,46.1491852 40.6289215,45.3641701 40.3240128,44.4382324 40.0991974,43.4897232 39.7370148,42.5896416
    39.2266922,41.768219 38.7231522,40.9435616 38.2970276,40.0794258 37.770443,39.2396469 37.3807945,38.3328018
    37.1260872,37.3008499 36.1233635,37.4853363 35.180294,37.6323776 34.2247162,37.7253456 33.2951088,37.6183853
    32.365097,37.603756 31.4471607,37.4249687 30.5223618,37.4164734 29.597393,37.4925499 28.6734962,37.63797
    27.7469215,37.4737854 26.823782,37.660141 25.8977451,37.504734 24.965517,37.6225891 24.0409966,37.535141
    23.1201744,37.4607506 22.1912041,37.3772354 21.2661896,37.462162 20.3438721,37.6762085 19.4125881,37.6653786
    18.4914818,37.4932251 17.5644169,37.366497 16.6322174,37.3675079 15.7102003,37.5367279 14.7824507,37.5168152
    13.8431358,37.6494713 12.914402,37.4578094 11.9647303,37.4156609 11.4781532,38.1332092 10.9388447,38.7872925
    10.3790731,39.4205742 9.7764864,40.0036125 9.2688112,40.6728287 8.7426319,41.3254929 8.0402431,41.8283234
    7.6759534,42.6165123 7.092236,43.2210159 6.5764289,43.8792992 6.1022096,44.5745354 5.4939485,45.1642075
    5.0192971,45.8649292 4.4366403,46.4717293 3.8762188,47.0933647 3.3946717,47.7675056 2.6875944,48.2777824
    2.2330441,49.0493202 3.1158283,49.1575966 3.9452603,48.9961052 4.7749853,49.0153122 5.6020117,49.1694756
    6.4458966,49.1087761 7.2819576,49.085022 8.112772,49.0888977 8.9522753,49.1271629 9.7913313,49.0025482
    10.6206446,49.2607613 11.4684553,49.0916138 12.3013144,49.1984978 13.1347389,49.1234169 13.9736128,49.0906525
    14.81882,49.2410507       "></polyline>
  <polygon fill="none" stroke="#248FED" stroke-linecap="round" stroke-linejoin="round" points="30.4771042,49.8398895
    30.6095734,50.2367821 30.2678833,51.017437 30.0851669,51.8307457 29.9041405,52.625351 29.4330921,53.265995
    28.9850311,53.9516411 28.4781265,54.591423 27.6982021,54.859478 27.0321293,55.3859367 26.2366371,55.6497688
    25.4224186,55.591053 24.6150837,55.6139412 23.8063259,55.6068573 22.9995499,55.4268379 22.1911964,55.4408112
    21.3930016,55.676796 20.5796318,55.57584 19.784153,55.5644836 18.8931618,55.3908691 18.028389,55.0944138
    17.2246418,54.6754761 16.6281586,54.0189743 15.8142157,53.5487862 15.1851091,52.8641281 15.0315247,51.9276772
    14.610404,51.1074295 14.4868345,50.2192612 14.4882164,49.7324867 14.8560495,49.1891708 13.9480352,49.3410149
    13.087018,49.2427025 12.2411165,49.440876 11.3918734,49.5066986 10.5403204,49.5445366 9.6825104,49.548172
    8.8428736,49.4332733 7.9883585,49.5 7.1319995,49.5 6.2797399,49.3307571 5.4284258,49.3578033 4.5756097,49.4987869
    3.6897314,49.3630333 2.8026249,49.3577843 1.9594499,49.2724228 2.1139452,50.149437 2.3724871,51.0377579 2.888072,51.8428383
    3.0417576,52.7317886 3.3758268,53.5635681 3.5103996,54.4609642 3.9028318,55.2739105 4.1093893,56.1485138
    4.4797535,56.9709091 4.7081676,57.8509216 5.1059737,58.673439 5.3625441,59.5400429 6.303946,59.5219879 7.2546697,59.5188713
    8.204669,59.5918808 9.1401339,59.6386032 10.0793295,59.5576363 11.0173187,59.5197334 11.953476,59.5357857
    12.8920984,59.4148407 13.8340769,59.5 14.7756882,59.5 15.7070265,59.3794861 16.6425362,59.2385788 17.5829105,59.3374557
    18.5221004,59.4589386 19.462822,59.2895699 20.3988667,59.3917236 21.342802,59.3093796 22.2780361,59.4637184
    23.2122421,59.5731621 24.1492443,59.6781845 25.093708,59.7133217 26.0251026,59.4267921 26.967495,59.4959145
    27.907589,59.5101738 28.8455505,59.5513344 29.7844353,59.4983902 30.7248344,59.2834816 31.6644535,59.3778534
    32.5956535,59.5921249 33.539978,59.4746933 34.4789047,59.595314 35.4174042,59.5211983 36.3559303,59.4259872
    37.2957268,59.3974266 38.2372475,59.3927574 39.1779213,59.4959755 40.1366997,59.6287613 41.1069756,59.5074196
    42.0412941,59.5338364 42.3172493,58.8260307 42.370369,58.0443802 42.4497871,57.2645035 42.6194725,56.4960403
    42.5317993,55.7162132 42.6852341,54.960083 42.798996,54.1980743 42.797081,53.4239922 42.9924545,52.6915627
    43.0431747,51.9330826 43.1819839,51.1883736 43.3826027,50.4361115 42.5215721,50.4033356 41.683609,50.2746544
    40.8449478,50.1259918 39.9770966,50.2623978 39.1137085,50.2836075 38.2550392,50.190731 37.3991318,50.0496178
    36.538765,49.9692535 35.6740036,50.045639 34.8118477,50.0543785 33.9487534,50.1687431 33.0820427,50.1270638
    32.2288742,49.9710579 31.3686485,49.949955      "></polygon>
  <polygon fill="none" stroke="#248FED" stroke-width="1.5" stroke-linecap="round" stroke-linejoin="round" points="
    30.9908085,49.9958763 31.8434753,49.8710251 32.6841125,50.0105362 33.5267448,50.1090126 34.3694839,50.1167526
    35.213768,50.147438 36.0609779,50.1964951 36.9077835,50.118557 37.7515259,50.014061 38.5966454,49.9192657
    39.4372444,50.0356979 40.290123,49.8995247 41.1259689,50.1703568 41.9456329,50.1894836 42.7702332,50.1504135
    43.675972,50.1169167 42.7791138,50.0009041 41.9529839,50.1951218 41.1355209,50.0835838 40.2945747,49.9690475
    39.4490967,49.9992561 38.6029739,50.1325188 37.7602997,50.0003433 36.9147873,49.996521 36.0663948,50.1522675
    35.2245026,50.0261726 34.3819122,49.9286804 33.537075,49.8566704 32.6899757,50.0108299 31.8470936,49.8524323
    30.9881859,49.7627983       "></polygon>
  <polygon fill="none" stroke="#248FED" stroke-width="1.5" stroke-linecap="round" stroke-linejoin="round" points="
    30.9908085,49.9958763 31.8434753,49.8710251 32.6841125,50.0105362 33.5267448,50.1090126 34.3694839,50.1167526
    35.213768,50.147438 36.0609779,50.1964951 36.9077835,50.118557 37.7515259,50.014061 38.5966454,49.9192657
    39.4372444,50.0356979 40.290123,49.8995247 41.1259689,50.1703568 41.9456329,50.1894836 42.7702332,50.1504135
    43.675972,50.1169167 42.7791138,50.0009041 41.9529839,50.1951218 41.1355209,50.0835838 40.2945747,49.9690475
    39.4490967,49.9992561 38.6029739,50.1325188 37.7602997,50.0003433 36.9147873,49.996521 36.0663948,50.1522675
    35.2245026,50.0261726 34.3819122,49.9286804 33.537075,49.8566704 32.6899757,50.0108299 31.8470936,49.8524323
    30.9881859,49.7627983       "></polygon>
  <polyline fill="none" stroke="#248FED" stroke-width="1.5" stroke-linecap="round" stroke-linejoin="round" points="
    30.3902874,49.9373779 30.5049152,50.0047607 31.3576412,50.0303345 32.2153015,50.0740318 33.0740356,50.0872078
    33.9397049,49.9406319 34.7956657,50.1282425 35.6618004,50.0646782 36.5229073,50.0939827 37.3722687,50.3218651
    38.2377396,50.3062363 39.0992432,50.2116013 39.9657516,50.2184372 40.8338661,50.1814117 41.6858406,50.3992615
    42.5531807,50.3904572 43.3478165,50.3779869 42.9115181,49.5938377 42.7105637,48.6275482 42.3230247,47.7389793
    41.7813454,46.9343529 41.2149086,46.1491852 40.6289215,45.3641701 40.3240128,44.4382324 40.0991974,43.4897232
    39.7370148,42.5896416 39.2266922,41.768219 38.7231522,40.9435616 38.2970276,40.0794258 37.770443,39.2396469
    37.3807945,38.3328018 37.1260872,37.3008499 36.1233635,37.4853363 35.180294,37.6323776 34.2247162,37.7253456
    33.2951088,37.6183853 32.365097,37.603756 31.4471607,37.4249687 30.5223618,37.4164734 29.597393,37.4925499
    28.6734962,37.63797 27.7469215,37.4737854 26.823782,37.660141 25.8977451,37.504734 24.965517,37.6225891
    24.0409966,37.535141 23.1201744,37.4607506 22.1912041,37.3772354 21.2661896,37.462162 20.3438721,37.6762085
    19.4125881,37.6653786 18.4914818,37.4932251 17.5644169,37.366497 16.6322174,37.3675079 15.7102003,37.5367279
    14.7824507,37.5168152 13.8431358,37.6494713 12.914402,37.4578094 11.9647303,37.4156609 11.4781532,38.1332092
    10.9388447,38.7872925 10.3790731,39.4205742 9.7764864,40.0036125 9.2688112,40.6728287 8.7426319,41.3254929
    8.0402431,41.8283234 7.6759534,42.6165123 7.092236,43.2210159 6.5764289,43.8792992 6.1022096,44.5745354
    5.4939485,45.1642075 5.0192971,45.8649292 4.4366403,46.4717293 3.8762188,47.0933647 3.3946717,47.7675056
    2.6875944,48.2777824 2.2330441,49.0493202 3.1158283,49.1575966 3.9452603,48.9961052 4.7749853,49.0153122
    5.6020117,49.1694756 6.4458966,49.1087761 7.2819576,49.085022 8.112772,49.0888977 8.9522753,49.1271629 9.7913313,49.0025482
    10.6206446,49.2607613 11.4684553,49.0916138 12.3013144,49.1984978 13.1347389,49.1234169 13.9736128,49.0906525
    14.81882,49.2410507       "></polyline>
  <polyline fill="none" stroke="#248FED" stroke-width="1.5" stroke-linecap="round" stroke-linejoin="round" points="
    30.3902874,49.9373779 30.5049152,50.0047607 31.3576412,50.0303345 32.2153015,50.0740318 33.0740356,50.0872078
    33.9397049,49.9406319 34.7956657,50.1282425 35.6618004,50.0646782 36.5229073,50.0939827 37.3722687,50.3218651
    38.2377396,50.3062363 39.0992432,50.2116013 39.9657516,50.2184372 40.8338661,50.1814117 41.6858406,50.3992615
    42.5531807,50.3904572 43.3478165,50.3779869 42.9115181,49.5938377 42.7105637,48.6275482 42.3230247,47.7389793
    41.7813454,46.9343529 41.2149086,46.1491852 40.6289215,45.3641701 40.3240128,44.4382324 40.0991974,43.4897232
    39.7370148,42.5896416 39.2266922,41.768219 38.7231522,40.9435616 38.2970276,40.0794258 37.770443,39.2396469
    37.3807945,38.3328018 37.1260872,37.3008499 36.1233635,37.4853363 35.180294,37.6323776 34.2247162,37.7253456
    33.2951088,37.6183853 32.365097,37.603756 31.4471607,37.4249687 30.5223618,37.4164734 29.597393,37.4925499
    28.6734962,37.63797 27.7469215,37.4737854 26.823782,37.660141 25.8977451,37.504734 24.965517,37.6225891
    24.0409966,37.535141 23.1201744,37.4607506 22.1912041,37.3772354 21.2661896,37.462162 20.3438721,37.6762085
    19.4125881,37.6653786 18.4914818,37.4932251 17.5644169,37.366497 16.6322174,37.3675079 15.7102003,37.5367279
    14.7824507,37.5168152 13.8431358,37.6494713 12.914402,37.4578094 11.9647303,37.4156609 11.4781532,38.1332092
    10.9388447,38.7872925 10.3790731,39.4205742 9.7764864,40.0036125 9.2688112,40.6728287 8.7426319,41.3254929
    8.0402431,41.8283234 7.6759534,42.6165123 7.092236,43.2210159 6.5764289,43.8792992 6.1022096,44.5745354
    5.4939485,45.1642075 5.0192971,45.8649292 4.4366403,46.4717293 3.8762188,47.0933647 3.3946717,47.7675056
    2.6875944,48.2777824 2.2330441,49.0493202 3.1158283,49.1575966 3.9452603,48.9961052 4.7749853,49.0153122
    5.6020117,49.1694756 6.4458966,49.1087761 7.2819576,49.085022 8.112772,49.0888977 8.9522753,49.1271629 9.7913313,49.0025482
    10.6206446,49.2607613 11.4684553,49.0916138 12.3013144,49.1984978 13.1347389,49.1234169 13.9736128,49.0906525
    14.81882,49.2410507       "></polyline>
  <polygon fill="none" stroke="#248FED" stroke-width="1.5" stroke-linecap="round" stroke-linejoin="round" points="
    30.4771042,49.8398895 30.6095734,50.2367821 30.2678833,51.017437 30.0851669,51.8307457 29.9041405,52.625351
    29.4330921,53.265995 28.9850311,53.9516411 28.4781265,54.591423 27.6982021,54.859478 27.0321293,55.3859367
    26.2366371,55.6497688 25.4224186,55.591053 24.6150837,55.6139412 23.8063259,55.6068573 22.9995499,55.4268379
    22.1911964,55.4408112 21.3930016,55.676796 20.5796318,55.57584 19.784153,55.5644836 18.8931618,55.3908691
    18.028389,55.0944138 17.2246418,54.6754761 16.6281586,54.0189743 15.8142157,53.5487862 15.1851091,52.8641281
    15.0315247,51.9276772 14.610404,51.1074295 14.4868345,50.2192612 14.4882164,49.7324867 14.8560495,49.1891708
    13.9480352,49.3410149 13.087018,49.2427025 12.2411165,49.440876 11.3918734,49.5066986 10.5403204,49.5445366
    9.6825104,49.548172 8.8428736,49.1832733 7.9883585,49 7.1319995,49 6.2797399,49.0807571 5.4284258,49.2328033
    4.5756097,49.4362869 3.6897314,49.3317833 2.8026249,49.3421593 1.9594499,49.2646103 2.1139452,50.1455307
    2.3724871,51.0358047 2.888072,51.8418617 3.0417576,52.7313004 3.3758268,53.563324 3.5103996,54.4608421 3.9028318,55.2738495
    4.1093893,56.1484833 4.4797535,56.9708939 4.7081676,57.850914 5.1059737,58.6734352 5.3625441,59.5400391 6.303946,59.5219879
    7.2546697,59.5188713 8.204669,59.5918808 9.1401339,59.6386032 10.0793295,59.5576363 11.0173187,59.5197334
    11.953476,59.5357857 12.8920984,59.6648407 13.8340769,60 14.7756882,60 15.7070265,59.6294861 16.6425362,59.3635788
    17.5829105,59.3999557 18.5221004,59.4901886 19.462822,59.3051949 20.3988667,59.3995361 21.342802,59.3132858
    22.2780361,59.4656715 23.2122421,59.5741386 24.1492443,59.6786728 25.093708,59.7135658 26.0251026,59.4269142
    26.967495,59.4959755 27.907589,59.5102043 28.8455505,59.5513496 29.7844353,59.4983978 30.7248344,59.2834854
    31.6644535,59.3778572 32.5956535,59.5921249 33.539978,59.4746933 34.4789047,59.595314 35.4174042,59.5211983
    36.3559303,59.4259872 37.2957268,59.3974266 38.2372475,59.3927574 39.1779213,59.4959755 40.1366997,59.6287613
    41.1069756,59.5074196 42.0412941,59.5338364 42.3172493,58.8260307 42.370369,58.0443802 42.4497871,57.2645035
    42.6194725,56.4960403 42.5317993,55.7162132 42.6852341,54.960083 42.798996,54.1980743 42.797081,53.4239922
    42.9924545,52.6915627 43.0431747,51.9330826 43.1819839,51.1883736 43.3826027,50.4361115 42.5215721,50.4033356
    41.683609,50.2746544 40.8449478,50.1259918 39.9770966,50.2623978 39.1137085,50.2836075 38.2550392,50.190731
    37.3991318,50.0496178 36.538765,49.9692535 35.6740036,50.045639 34.8118477,50.0543785 33.9487534,50.1687431
    33.0820427,50.1270638 32.2288742,49.9710579 31.3686485,49.949955      "></polygon>
  <polygon fill="none" stroke="#248FED" stroke-width="1.5" stroke-linecap="round" stroke-linejoin="round" points="
    30.4771042,49.8398895 30.6095734,50.2367821 30.2678833,51.017437 30.0851669,51.8307457 29.9041405,52.625351
    29.4330921,53.265995 28.9850311,53.9516411 28.4781265,54.591423 27.6982021,54.859478 27.0321293,55.3859367
    26.2366371,55.6497688 25.4224186,55.591053 24.6150837,55.6139412 23.8063259,55.6068573 22.9995499,55.4268379
    22.1911964,55.4408112 21.3930016,55.676796 20.5796318,55.57584 19.784153,55.5644836 18.8931618,55.3908691
    18.028389,55.0944138 17.2246418,54.6754761 16.6281586,54.0189743 15.8142157,53.5487862 15.1851091,52.8641281
    15.0315247,51.9276772 14.610404,51.1074295 14.4868345,50.2192612 14.4882164,49.7324867 14.8560495,49.1891708
    13.9480352,49.3410149 13.087018,49.2427025 12.2411165,49.440876 11.3918734,49.5066986 10.5403204,49.5445366
    9.6825104,49.548172 8.8428736,49.4332733 7.9883585,49.5 7.1319995,49.5 6.2797399,49.3307571 5.4284258,49.3578033
    4.5756097,49.4987869 3.6897314,49.3630333 2.8026249,49.3577843 1.9594499,49.2724228 2.1139452,50.149437
    2.3724871,51.0377579 2.888072,51.8428383 3.0417576,52.7317886 3.3758268,53.5635681 3.5103996,54.4609642
    3.9028318,55.2739105 4.1093893,56.1485138 4.4797535,56.9709091 4.7081676,57.8509216 5.1059737,58.673439
    5.3625441,59.5400429 6.303946,59.5219879 7.2546697,59.5188713 8.204669,59.5918808 9.1401339,59.6386032
    10.0793295,59.5576363 11.0173187,59.5197334 11.953476,59.5357857 12.8920984,59.4148407 13.8340769,59.5 14.7756882,59.5
    15.7070265,59.3794861 16.6425362,59.2385788 17.5829105,59.3374557 18.5221004,59.4589386 19.462822,59.2895699
    20.3988667,59.3917236 21.342802,59.3093796 22.2780361,59.4637184 23.2122421,59.5731621 24.1492443,59.6781845
    25.093708,59.7133217 26.0251026,59.4267921 26.967495,59.4959145 27.907589,59.5101738 28.8455505,59.5513344
    29.7844353,59.4983902 30.7248344,59.2834816 31.6644535,59.3778534 32.5956535,59.5921249 33.539978,59.4746933
    34.4789047,59.595314 35.4174042,59.5211983 36.3559303,59.4259872 37.2957268,59.3974266 38.2372475,59.3927574
    39.1779213,59.4959755 40.1366997,59.6287613 41.1069756,59.5074196 42.0412941,59.5338364 42.3172493,58.8260307
    42.370369,58.0443802 42.4497871,57.2645035 42.6194725,56.4960403 42.5317993,55.7162132 42.6852341,54.960083
    42.798996,54.1980743 42.797081,53.4239922 42.9924545,52.6915627 43.0431747,51.9330826 43.1819839,51.1883736
    43.3826027,50.4361115 42.5215721,50.4033356 41.683609,50.2746544 40.8449478,50.1259918 39.9770966,50.2623978
    39.1137085,50.2836075 38.2550392,50.190731 37.3991318,50.0496178 36.538765,49.9692535 35.6740036,50.045639
    34.8118477,50.0543785 33.9487534,50.1687431 33.0820427,50.1270638 32.2288742,49.9710579 31.3686485,49.949955      "></polygon>
 <g class="svg__inbox-left">
    <polygon fill="none" stroke="#2E3192" stroke-width="1.5" stroke-linecap="round" stroke-linejoin="round" points="
   9.3491879,15.4381657 8.8484879,16.2365265 8.5476866,17.0932293 8.1769333,17.8856869 7.4331746,18.3671246 6.5942903,18.711977
   5.7252798,18.876749 4.872261,18.5884933 3.9168432,18.4784622 3.0454473,18.1212482 2.5695596,17.2755337 2.4135168,16.2919674
   2.0771499,15.442565 2.3707068,14.6072531 2.8931835,13.8221693 3.2206085,12.9287958 4.0246005,12.450264 4.9152794,12.1549063
   5.730516,11.7801332 6.5485907,12.1669016 7.4259725,12.507328 8.2495613,12.9155111 8.7415371,13.6817751 8.8398104,14.630455
   "></polygon>
   <polygon fill="none" stroke="#2E3192" stroke-width="1.5" stroke-linecap="round" stroke-linejoin="round" points="
   11.0142775,31.0165443 11.0021296,30.1819954 11.026433,29.4060059 10.8947878,28.6302948 10.8543148,27.8515377
   10.8262424,27.0839729 10.8031445,26.2485008 10.5608759,25.4551907 10.3680811,24.6309624 9.7106733,24.0715332
   9.240941,23.353426 8.6047955,22.7602768 7.7069759,22.7485847 6.9057951,22.4531269 6.1260428,22.0819111 6.0943213,22.1890106
   5.2934022,22.4712944 4.4385772,22.5641537 3.6068871,22.8024311 3.1391821,23.5382996 2.5422373,24.1310539 1.9810437,24.7238369
   1.5538074,25.4401836 1.500078,26.295927 1.1474127,27.0675755 1.2071016,27.8401814 1.2364583,28.6125908 1.096782,29.3897247
   1.3099486,30.1616631 1.2999717,30.8958435 2.0457311,30.886898 2.8355334,30.8576851 3.6263685,30.9122677 4.4353142,31.134819
   5.2674298,31.0691319 6.0901189,31.1856136 6.9191933,31.1581955 7.7310786,30.9517689 8.5614262,31.0207977 9.3559494,30.8764706
   10.1579723,30.8802319   "></polygon>
 </g>
  <g class="svg__inbox-right">
    <polygon fill="none" stroke="#2E3192" stroke-width="1.5" stroke-linecap="round" stroke-linejoin="round" points="
    45.5162277,15.437932 45.0838852,16.259407 44.7839661,17.1566105 44.5531693,18.1282578 43.6530113,18.5496502
    42.7188911,18.7998447 41.8601418,19.11763 40.9433708,18.9225254 40.1363068,18.3528252 39.1795082,18.1186218
    38.8367958,17.2357864 38.6471138,16.3072491 38.4124451,15.4369125 38.5822639,14.5436869 38.986351,13.6823931
    39.2583466,12.8307562 40.0413513,12.3301163 40.9931679,12.1139879 41.8631783,11.606595 42.7385406,12.0275221
    43.5627632,12.4891186 44.3482666,12.9491901 44.8564301,13.7037621 45.1648521,14.5890818   "></polygon>
    <polygon fill="none" stroke="#2E3192" stroke-width="1.5" stroke-linecap="round" stroke-linejoin="round" points="
    46.9938164,30.8618793 46.9989548,30.1766205 47.2027664,29.4076862 47.1956787,28.6300716 47.2254143,27.8515759
    47.3323936,27.0531845 47.0047493,26.2605896 46.654583,25.4960842 46.2511826,24.7776394 45.8806419,24.0230751
    45.2778587,23.440834 44.6672401,22.8794689 43.8896446,22.5574989 43.0662689,22.3702545 42.2238655,22.2734165
    42.2649574,22.4706326 41.4283638,22.6144009 40.5725784,22.6026001 39.7907639,22.8914318 39.1193657,23.3908157
    38.6333809,24.0846291 38.1091118,24.7231903 37.7877808,25.4871902 37.5194206,26.2873325 37.1321831,27.0592728
    37.1085014,27.8552628 37.3497009,28.6355209 37.1644669,29.4261475 37.2456627,30.2132626 37.2949829,30.9969234
    38.1099396,30.9287243 38.9341698,30.9342537 39.758255,30.8345413 40.5713882,31.0344887 41.4040947,30.9770432
    42.2198792,31.1536102 43.0434647,31.1184692 43.8677826,31.1244202 44.6920929,31.1076965 45.485878,31.019701
    46.2894402,31.0418663   "></polygon>
  </g>
  <polygon fill="none" stroke="#2E3192" stroke-width="1.5" stroke-linecap="round" stroke-linejoin="round" points="
  28.5426292,7.5011425 28.3784332,8.3649302 28.252224,9.2559853 28.0466576,10.1294851 27.3608875,10.7262659
  26.7809372,11.4322615 26.1606178,12.1211863 25.2726555,12.3822098 24.3645878,12.5166636 23.4893551,12.8727102
  22.6455517,12.4923401 21.8284378,12.1092348 21.0112762,11.8039646 20.3175163,11.2959118 19.7242107,10.6464376
  19.025507,10.0811968 18.7241783,9.2191362 18.5690632,8.3186207 18.0999908,7.499651 18.5179367,6.6643 18.8445282,5.8237238
  19.1793251,5.0162659 19.7485352,4.3926277 20.3976688,3.8073361 21.0131798,3.2019796 21.8454075,2.9174476 22.6309967,2.469703
  23.4862766,2.0970781 24.3991165,2.3528469 25.2631893,2.6528118 26.1395035,2.9151239 26.7825718,3.547713 27.3488655,4.2488313
  27.987402,4.9065571 28.2140961,5.7751789 28.4688778,6.6259193   "></polygon>
  <polygon fill="none" stroke="#2E3192" stroke-width="1.5" stroke-linecap="round" stroke-linejoin="round" points="
  30.937706,28.1193371 31.0859203,27.2382641 30.8243847,26.3161964 30.8010178,25.3885307 30.9104996,24.4638939
  31.0225468,23.5384769 30.8813438,22.6183128 30.8282013,21.7236176 30.5826321,20.8530445 30.3934193,19.9967327
  29.9476871,19.2416687 29.3466358,18.5769234 28.7497902,17.9200401 28.0593529,17.3622456 27.4313164,16.7068443
  26.6796627,16.2160015 25.8106461,15.9671383 24.9167938,15.858675 24.0128517,15.8490629 24.0069351,15.6545677
  23.1177139,15.8410826 22.223608,15.9790115 21.3156471,16.1705246 20.5627918,16.6930656 19.8522797,17.236042
  19.2345467,17.8856125 18.5706825,18.483469 18.2114601,19.3184967 17.6018372,19.9840755 17.3653355,20.8569851
  17.1437244,21.7299347 16.9668102,22.6127472 16.8409557,23.5373669 16.9409389,24.4624252 16.9126568,25.3905869
  17.0049553,26.2898693 17.0618019,27.1920815 17.1494217,28.0494385 18.0098209,28.0580349 18.9174728,27.9936562
  19.8218079,28.2162914 20.7495174,28.1364212 21.6789436,28.0562668 22.6097221,28.0829258 23.5338345,28.2509689
  24.4681492,28.1336842 25.3979664,28.29459 26.3269768,28.169199 27.258337,28.1235676 28.1900692,28.118782 29.114584,28.2435989
  30.049511,28.1788006  "></polygon>
</svg>