<svg version="1.1" xmlns="http://www.w3.org/2000/svg" xmlns:xlink="http://www.w3.org/1999/xlink" x="0px" y="0px" viewBox="0 0 70.8700027 48.1899986" xml:space="preserve" class="svg__lead-tracking">

  <polyline fill="none" stroke="#248FED" stroke-width="1.6" stroke-linecap="round" stroke-linejoin="round" points="
    10.8663969,37.5813599 11.6437807,37.5312004 12.4248152,37.504364 13.2127991,37.6261978 13.9888048,37.5906792
    14.768734,37.5232391 15.5499649,37.4499283 16.3407383,37.4168816 17.1187477,37.5229225 17.8885193,37.713501   "></polyline>

  <polyline fill="none" stroke="#248FED" stroke-width="1.6" stroke-linecap="round" stroke-linejoin="round" points="
    27.8293171,37.5425034 28.8147526,37.7098312 29.7970295,37.6538467 30.7777157,37.6743927 31.7551403,37.6983299
    32.7434502,37.6161079 33.7238617,37.7205734   "></polyline>

  <g class="svg__lead-tracking-person">
    <polygon fill="none" stroke="#248FED" stroke-width="1.6" stroke-linecap="round" stroke-linejoin="round" points="
      26.8448753,5.4402981 26.6631813,6.1903958 26.6341553,7.0116687 26.4218178,7.7878284 25.8812466,8.4014921 25.2703037,8.9563742
      24.7875099,9.65341 23.9685535,9.86693 23.1783371,10.1294775 22.3518658,10.2158356 21.5438423,10.0633812 20.7549477,9.7822208
      19.9109821,9.6657381 19.3082333,9.0731707 18.7044582,8.494668 18.0482082,7.9215593 17.9312,7.0602908 17.8288555,6.2276158
      17.4939098,5.4376998 17.6830215,4.6141491 17.9797173,3.8302379 18.2468147,3.069988 18.7145519,2.4043748 19.4094906,1.9492142
      20.0033646,1.3667548 20.7681084,1.0901841 21.5814266,1.0225792 22.355135,0.8771629 23.1426811,1.0329818 23.9847908,1.0046314
      24.8157692,1.172021 25.3448563,1.8283393 25.728075,2.5760045 26.2630253,3.175842 26.4399796,3.9322696 26.8881245,4.6460776
      "></polygon>

    <polygon fill="none" stroke="#248FED" stroke-width="1.6" stroke-linecap="round" stroke-linejoin="round" points="
      29.1764412,25.47995 29.113966,24.5738621 29.2731094,23.7639408 29.0595455,22.9450226 29.2446136,22.1009197
      29.2237892,21.256752 29.1945229,20.4055691 28.9506264,19.6200066 28.8596745,18.8115349 28.7659111,17.980463
      28.1410332,17.383646 27.7105694,16.684721 27.3025742,15.9775877 26.5975018,15.5767708 25.9306145,15.0960016
      25.2103176,14.7014341 24.431076,14.450222 23.6371555,14.2620955 22.8265877,14.1116638 22.8253994,14.2944241
      22.0321941,14.4277754 21.2591076,14.6710978 20.4979305,14.8530073 19.8063316,15.2188473 19.1117287,15.6259336
      18.4626007,16.100956 18.0967846,16.8203468 17.6222534,17.4650726 16.9819012,18.0213833 16.910078,18.8443947
      16.6731014,19.6124249 16.6013775,20.4146252 16.5662575,21.2566357 16.5388584,22.1008015 16.390295,22.9403706
      16.4669704,23.8043003 16.4656105,24.6679173 16.4807472,25.4606915 17.2724571,25.3978367 18.1399784,25.3588772
      19.0098057,25.4126987 19.8497772,25.4374943 20.7027664,25.3107529 21.5493336,25.3752632 22.3970127,25.3921261
      23.2333069,25.6295071 24.0870228,25.5201817 24.9434738,25.6237946 25.7822475,25.4390621 26.631691,25.4138355
      27.4463692,25.4674225 28.2589111,25.5077496   "></polygon>
  </g>

  <polygon fill="none" stroke="#2E3192" stroke-width="1.6" stroke-linecap="round" stroke-linejoin="round" points="
    2.3586099,37.112606 2.4859657,37.841835 2.5428231,38.6131706 2.5884588,39.4170876 3.3156288,39.8198586 3.8775434,40.3548126
    4.3835731,40.9202843 5.1070352,41.0772781 5.8197198,41.3888626 6.5826092,41.3712273 7.2987027,41.2183952 8.0358973,41.060051
    8.7555351,40.8710861 9.2829046,40.3306999 9.9643021,39.9405212 10.4938297,39.3686676 10.4763737,38.579155
    10.8105936,37.8692131 10.7841158,37.1123123 10.7293682,36.3748169 10.6083708,35.6236382 10.3607254,34.9272308
    10.0120459,34.2283783 9.3614721,33.7738762 8.9037189,33.0922585 8.0863781,33.079628 7.3558183,32.7993164 6.5810933,32.5860062
    5.8419156,32.8770714 5.1073928,33.0744438 4.4397216,33.4029732 3.8551059,33.8551369 3.2737033,34.3599548 2.7678752,34.9077682
    2.6383424,35.6336212 2.3294601,36.3559837   "></polygon>

  <polygon class="svg__lead-tracking-bubble-1" fill="none" stroke="#248FED" stroke-width="1.6" stroke-linecap="round" stroke-linejoin="round" points="
    17.908535,37.1124458 18.2482586,37.8055305 18.2831554,38.5812988 18.6027145,39.265873 19.0726414,39.8402443
    19.5760536,40.3939209 20.2257023,40.7726173 20.9142513,41.0799484 21.5854015,41.4849625 22.332922,41.7148476
    23.0647621,41.4436913 23.8011246,41.1985435 24.4640408,40.8077087 24.994194,40.2899857 25.6706886,39.8995438
    26.1209641,39.2995224 26.2937183,38.5874863 26.4064102,37.8366852 26.5803623,37.1139908 26.5237293,36.3767548
    26.2819595,35.671917 26.0203533,34.9822998 25.5633736,34.3869324 25.0791779,33.7998772 24.5450172,33.2805977
    23.8117733,33.1594124 23.0571995,33.0371628 22.3320293,32.9023857 21.5986328,33.0046997 20.8500175,33.1790504
    20.042099,33.1428337 19.5037727,33.7191315 19.073719,34.3702698 18.6293068,34.9703445 18.4508781,35.6763992
    18.1892567,36.3936806   "></polygon>

  <polygon fill="none" stroke="#2E3192" stroke-width="1.6" stroke-linecap="round" stroke-linejoin="round" points="
    50.5178185,37.1125298 50.5391808,37.9530869 50.6930885,38.7807007 51.0485725,39.5600586 51.3313637,40.3356705
    51.5409622,41.1507912 51.8321877,41.9369812 52.2469749,42.6773911 52.7528877,43.3542976 53.2082748,44.0947609
    54.0553818,44.3898315 54.7329788,44.8940849 55.3395081,45.5116158 56.1832047,45.7286263 56.8821754,46.2253799
    57.6735306,46.5076065 58.5096817,46.5336647 59.3295174,46.8819122 60.1888351,46.8330879 60.995121,46.5733719
    61.8572006,46.6038742 62.6920128,46.4448318 63.4078674,45.9921074 64.2187729,45.7631683 64.9334335,45.3284378
    65.7238312,45.0113411 66.3746414,44.4717789 67.1080322,44.0313225 67.4601135,43.2426262 67.8920746,42.5209045
    68.3637466,41.8333702 68.7730713,41.1125107 69.1770248,40.3791275 69.540184,39.6197853 69.6742554,38.7837601
    69.6471786,37.9260635 69.8700104,37.1113815 69.851944,36.2653008 69.6670914,35.430706 69.6186523,34.584938
    69.2951584,33.8030357 69.0893478,32.9660187 68.6100006,32.2506142 68.1403961,31.5505371 67.668663,30.8415585
    67.062706,30.2360592 66.3161392,29.8386841 65.6434326,29.3355961 64.9553986,28.8558388 64.1546173,28.6066246
    63.4306412,28.1821728 62.7080841,27.7296276 61.8382034,27.7131901 61.0171852,27.4948826 60.1894188,27.4350796
    59.3848152,27.5956249 58.537323,27.6843777 57.727066,27.925333 56.8980751,28.0937672 56.0741882,28.3027039
    55.3336525,28.6994381 54.7639542,29.2947884 54.0193863,29.7437 53.508667,30.4274445 53.0451012,31.1080284
    52.3603592,31.6263065 52.0003891,32.3849602 51.5952148,33.1027527 51.2790718,33.8687172 50.9128723,34.6225815
    50.8617592,35.4773064 50.6842766,36.2978058   "></polygon>

  <polyline fill="none" stroke="#2E3192" stroke-width="1.6" stroke-linecap="round" stroke-linejoin="round" points="
    42.3695374,37.7384109 43.2398834,37.5522652 44.1124306,37.5775032 44.9849472,37.6966171 45.8551331,37.6059494
    46.7277641,37.5616684 47.6002235,37.6248169 48.4791718,37.7200279 49.3409119,37.4809914 50.2161179,37.5222168
    51.0978127,37.4693947 51.9526367,37.7563248 52.8375359,37.754055 53.7090111,37.6351318 54.5814362,37.5232124
    55.4570198,37.4406128   "></polyline>

  <polygon class="svg__lead-tracking-bubble-2" fill="none" stroke="#2E3192" stroke-width="1.6" stroke-linecap="round" stroke-linejoin="round" points="
    33.5486565,37.1122665 33.6549759,37.8799858 34.0959091,38.5427361 34.2719765,39.314724 34.9252892,39.7399178
    35.441864,40.2884369 35.8937492,40.9043617 36.6028519,41.1607513 37.3403587,41.294075 38.0824623,41.3466034
    38.8109474,41.2360687 39.5706825,41.1914253 40.3015442,40.9571342 40.8428993,40.4144821 41.3411293,39.8457413
    41.8434105,39.2829399 42.105587,38.5582542 42.3249054,37.8137665 42.6342621,37.111763 42.30373,36.4145164
    42.0709229,35.6723366 41.9955978,34.8517761 41.34618,34.371521 40.9254189,33.7112045 40.2752838,33.3117104
    39.6212006,32.8886261 38.8186836,32.9116554 38.0821877,32.7486954 37.3189278,32.789032 36.5545197,32.9235916
    35.8837051,33.2991791 35.3941002,33.8396454 34.9006767,34.4257545 34.3100243,34.9341354 34.1461411,35.7017708
    33.7020302,36.3625031   "></polygon>

  <polygon fill="none" stroke="#2E3192" stroke-width="1.6" stroke-linecap="round" stroke-linejoin="round" points="
    55.6023788,37.1127586 55.6152573,37.9167137 55.8540077,38.6834717 56.2311707,39.3979111 56.6794319,40.0643349
    57.3333549,40.5598183 57.8637848,41.1419678 58.5952721,41.4714127 59.4239616,41.5017014 60.1890106,41.856575
    61.0078583,41.7260246 61.7867661,41.4930191 62.5767937,41.2459602 63.0370979,40.561058 63.5274353,39.9191513
    64.1192551,39.3814888 64.3781128,38.6393089 64.5465622,37.8572807 64.7490616,37.1082077 64.6376572,36.3195381
    64.5052414,35.5108833 64.3692856,34.6994286 63.7080956,34.1796684 63.2177849,33.4930992 62.6660423,32.812767
    61.8037033,32.7778625 60.9844208,32.7120895 60.1868401,32.4282112 59.4048462,32.6668205 58.6242561,32.8509903
    57.8093071,32.9913406 57.2709389,33.6123657 56.704361,34.1784439 56.1912498,34.8047218 55.8673248,35.5474091
    55.6559258,36.3243217   "></polygon>
</svg>