<svg version="1.1" id="Layer_1" xmlns="http://www.w3.org/2000/svg" xmlns:xlink="http://www.w3.org/1999/xlink" x="0px" y="0px"
   viewBox="0 0 61 71" xml:space="preserve">
<g>
  <polyline fill="none" stroke="#fff" stroke-width="2" stroke-linecap="round" stroke-linejoin="round" points="1.0933,48.9166
    1.8222,48.4039 2.4992,47.8333 3.0408,47.1217 3.7458,46.5809 4.3031,45.8863 4.9463,45.2791 5.47,44.5582 6.2699,44.1066
    6.8778,43.467 7.3862,42.7258 8.1163,42.2082 8.7764,41.6167 9.267,40.8612 9.9545,40.2976 10.6278,39.7154 11.1486,38.9919
    11.7542,38.3405 12.2462,37.5911 12.8707,36.9648 13.4833,36.3257 14.1954,35.7908 14.8542,35.2039 15.467,34.5593
    16.1583,34.0135 16.8351,33.4397 17.4323,32.7849 17.9302,32.0368 18.616,31.4748 19.2541,30.8633 19.8478,30.2098
    20.4889,29.6027 21.1802,29.0322 21.6603,28.2714 22.3612,27.7247 22.9178,27.0246 23.5161,26.3668 24.3267,25.9423
    24.8202,25.1715 25.5592,24.6666 26.1424,23.9995 26.6585,23.27 27.2518,22.6064 27.9903,22.0869 28.6104,21.4513 29.2003,20.7865
    29.853,20.1876 30.423,19.5009 31.1733,18.9974   "/>
</g>
<g>
  <g>
    <polyline fill="none" stroke="#fff" stroke-width="2" stroke-linecap="round" stroke-linejoin="round" points="
      50.5873,22.4295 51.6488,22.2981 52.7163,22.3924 53.6145,22.3747 54.5084,22.218 55.422,22.3641 55.7959,22.0326     "/>
  </g>
  <g>
    <polyline fill="none" stroke="#fff" stroke-width="2" stroke-linecap="round" stroke-linejoin="round" points="
      53.2283,26.1988 53.2044,25.3531 52.957,24.5066 53.1522,23.444 53.4104,22.4 53.1523,21.6842 53.3211,20.9514 53.0605,20.2458
      53.0168,19.4329 53.0352,18.6174 53.0966,18.4754     "/>
  </g>
</g>
<g>
  <g>
    <polyline fill="none" stroke="#fff" stroke-width="2" stroke-linecap="round" stroke-linejoin="round" points="
      13.8941,12.6866 14.8493,12.7557 15.8059,12.826 16.7652,12.9471 17.7244,12.7532    "/>
  </g>
  <g>
    <polyline fill="none" stroke="#fff" stroke-width="2" stroke-linecap="round" stroke-linejoin="round" points="15.8726,9.917
      15.9786,10.8872 15.7374,11.8325 15.8206,12.7985 15.7125,13.7539 15.7197,14.7132 15.9256,15.6658     "/>
  </g>
</g>
<g>
  <polygon fill="none" stroke="#fff" stroke-width="2" stroke-linecap="round" stroke-linejoin="round" points="59.2577,12.0783
    58.7404,12.6032 58.4101,12.0783 58.7404,11.4419   "/>
</g>
<g>
  <polygon fill="none" stroke="#fff" stroke-width="2" stroke-linecap="round" stroke-linejoin="round" points="42.6172,22.0531
    42.303,22.3792 41.8314,22.0531 42.303,21.6595   "/>
</g>
<g>
  <polygon fill="none" stroke="#fff" stroke-width="2" stroke-linecap="round" stroke-linejoin="round" points="22.0615,2.2112
    20.9973,2.9967 20.1576,2.1833 20.966,1.1918 21.4856,1.7482  "/>
</g>
<g>
  <polygon fill="none" stroke="#fff" stroke-width="2" stroke-linecap="round" stroke-linejoin="round" points="42.77,5.9478
    42.4277,6.5441 42.2466,7.3038 41.9056,7.9949 41.6764,8.7391 41.3561,9.4453 40.9001,10.0901 40.7194,10.8938 40.2679,11.5751
    39.8971,12.3454 40.6483,13.0544 41.4568,13.6396 42.2098,14.2908 42.9456,14.8939 43.6577,15.5297 44.5024,16.1051
    43.588,16.1336 42.7572,16.0272 41.9291,15.8714 41.0968,15.7553 40.264,15.7003 39.4442,15.5435 38.6105,15.4701 37.8204,15.3412
    37.5906,16.0221 37.3023,16.724 36.8936,17.3745 36.6852,18.15 36.1837,18.7765 35.8575,19.4942 35.6838,20.2387 35.293,20.9067
    35.0302,21.7111 34.9711,20.8006 34.7418,19.9995 34.4972,19.1989 34.5237,18.3526 34.4156,17.5148 34.1885,16.6781
    34.1461,15.8264 34.2512,14.9288 33.4187,14.6409 32.627,14.3405 31.8553,13.9638 31.0227,13.8202 30.1894,13.7062
    29.3316,13.6562 28.5945,13.1203 27.7592,12.8573 26.894,12.5801 27.7882,12.4917 28.6258,12.2952 29.446,12.0079 30.266,11.7287
    31.0932,11.5479 31.9615,11.517 32.756,11.1837 33.6769,11.0829 33.5965,10.1661 33.5567,9.3146 33.6227,8.4629 33.6253,7.6101
    33.7366,6.7696 33.7787,5.9274 33.557,5.0819 33.6911,4.3276 34.107,4.9833 34.5995,5.6977 35.0916,6.4128 35.5095,7.1824
    36.0187,7.8994 36.3917,8.7465 37.104,8.2969 37.8677,8.0614 38.5786,7.7128 39.2928,7.4157 39.9997,7.0971 40.6827,6.7258
    41.4192,6.4978 42.1033,6.1263   "/>
</g>
<g>
  <g>
    <polyline fill="none" stroke="#fff" stroke-width="2.0594" stroke-linecap="round" stroke-linejoin="round" points="
      35.7066,61.1601 36.2782,61.9748 36.496,62.9523 37.0778,63.7678 37.3242,64.7243 37.6717,65.6421 38.0326,66.5552 38.464,67.458
      38.7132,68.439 39.2189,69.3594 39.744,68.4469 40.1336,67.5118 40.5561,66.5927 40.8945,65.66 41.3142,64.7609 41.6483,63.8238
      42.2466,63.0074 42.5805,62.0702 42.9141,61.1329     "/>
  </g>
  <g>
    <polyline fill="none" stroke="#fff" stroke-width="2.0594" stroke-linecap="round" stroke-linejoin="round" points="
      42.8302,60.9852 43.7519,60.7346 44.6984,60.6427 45.6566,60.6165 46.5195,60.2186 47.4306,59.9379 48.2939,59.536
      49.1706,59.1406 49.9161,58.5274 50.8054,58.1176 51.3832,57.3313 52.0638,56.6558 52.7423,55.9642 53.1631,55.0935
      53.6383,54.2671 54.2113,53.5019 54.7488,52.718 55.2383,51.9032 55.6513,51.0379 55.6739,50.0738 55.9398,49.1567
      56.0873,48.2198 56.324,47.3015 56.4688,46.3675 56.4926,45.4183 56.4142,44.4773 56.2382,43.5478 56.1931,42.5932
      55.904,41.6935 55.6371,40.7918 55.3658,39.8871 54.8994,39.0612 54.5467,38.1867 54.234,37.285 53.5693,36.5952 53.0103,35.8356
      52.4543,35.0779 51.747,34.4569 51.188,33.6852 50.459,33.095 49.7367,32.5058 48.9214,32.0293 48.1365,31.5082 47.3906,30.913
      46.541,30.4786 45.7113,30.0412 44.7963,29.8568 43.9041,29.4981 42.9713,29.3162 42.0546,29.0606 41.1085,29.0316
      40.1598,29.1171 39.2253,29.0079 38.2824,29.0248 37.3393,29.0636 36.4184,29.3324 35.47,29.4247 34.5405,29.5692
      33.6309,29.8371 32.7505,30.2032 31.9261,30.6886 31.0535,31.0796 30.3416,31.7254 29.5332,32.2231 28.9217,32.9527
      28.1306,33.4965 27.4779,34.1846 26.9311,34.9568 26.2693,35.6473 25.8194,36.4843 25.5176,37.3733 25.0339,38.2032
      24.7142,39.0988 24.3685,39.9767 23.9883,40.846 23.84,41.7836 23.5037,42.6776 23.556,43.6393 23.2859,44.5631 23.3489,45.5082
      23.4227,46.4521 23.3958,47.393 23.3718,48.3472 23.519,49.2882 23.7435,50.2096 24.0101,51.1175 24.3588,52.01 24.6216,52.9379
      25.2648,53.6547 25.813,54.4387 26.2287,55.3352 27.1167,55.7783 27.8348,56.3976 28.4775,57.0993 29.1931,57.7165
      30.0601,58.121 30.7782,58.7469 31.6768,59.0536 32.5548,59.4073 33.3652,59.9161 34.2857,60.1457 35.2077,60.3733
      36.1093,60.6666     "/>
  </g>
</g>
</svg>
