<svg version="1.1" id="Layer_1" xmlns="http://www.w3.org/2000/svg" xmlns:xlink="http://www.w3.org/1999/xlink" x="0px" y="0px"
   viewBox="0 0 118 66" xml:space="preserve">
<g>
  <polygon fill="none" stroke="#fff" stroke-width="2" stroke-linecap="round" stroke-linejoin="round" points="85.2431,39.3537
    84.4689,39.7703 83.6098,40.1121 82.7161,40.345 81.8266,40.5573 80.9549,40.8279 80.1387,41.2451 79.324,41.6588 78.5554,42.1675
    77.7126,42.5387 76.8106,42.7243 75.9516,43.0378 75.1079,43.3931 74.2061,43.5889 73.3746,43.9639 72.5455,44.3362
    71.6664,44.5709 70.8468,45.0107 69.9596,45.2391 69.095,45.5391 68.3528,46.1128 67.4199,46.2568 66.6359,46.7495
    65.7179,46.8979 64.9352,47.4074 64.0353,47.6174 63.2376,48.0712 62.415,48.4738 61.506,48.6401 60.6987,49.0979 59.7994,49.2993
    59.0149,49.7843 58.1213,50.0215 57.2607,50.3256 56.4079,50.6299 55.5575,50.9585 54.7251,51.3382 53.8575,51.622
    53.0588,52.0813 52.2242,52.452 51.3364,52.6854 50.5286,53.1263 49.6555,53.4025 48.8402,53.827 47.9756,54.1239 47.0666,54.2994
    46.2145,54.6239 45.354,54.9323 44.503,55.2697 43.7352,55.7975 42.8328,56.0193 42.0295,56.4721 41.1668,56.8443 40.2293,57.0321
    39.3824,57.4467 39.3316,56.5183 39.3821,55.589 39.3888,54.6594 39.5502,53.7571 39.4844,52.8509 39.3743,51.9413
    39.4151,51.0337 39.808,50.1493 40,49.2455 40,48.3385 39.8733,47.4292 39.7775,46.5229 39.7818,45.6224 39.8806,44.7141
    39.8399,43.8083 39.8044,42.9045 39.7779,41.9981 39.8391,41.0936 39.7384,40.1844 39.7904,39.279 40.0348,38.3863 39.9722,37.475
    39.964,36.5646 40.0098,35.6651 40.0129,34.7661 39.9233,33.8616 39.9982,32.9495 40.0889,32.0485 40.0953,31.1409
    40.0323,30.2342 40.1898,29.3305 39.9968,28.4269 40.1454,27.5183 40.0429,26.6049 40.1456,25.7024 40.2352,24.7995
    40.4313,23.904 40.4593,22.9956 40.3584,22.0803 40.3706,21.2014 40.5443,20.3271 40.6568,19.4955 41.4606,19.2538 42.2442,18.825
    43.0995,18.5713 43.8311,17.9884 44.7099,17.6947 45.5189,17.2707 46.3375,16.8607 47.1883,16.5296 48.0473,16.2264
    48.9278,15.9877 49.7677,15.6274 50.6165,15.2903 51.5457,15.1839 52.3257,14.661 53.2024,14.4074 54.0421,14.0595
    54.8643,13.6588 55.7504,13.4162 56.521,12.916 57.357,12.5431 58.1858,12.1444 59.0352,11.8027 59.9796,11.7232 60.8094,11.3391
    61.6997,11.1349 62.523,10.7053 63.4004,10.4482 64.2665,10.1468 65.0434,9.6492 65.8425,9.1826 66.7265,8.9282 67.6169,8.7082
    68.4532,8.3346 69.3724,8.1918 70.1353,7.6508 71.0033,7.3655 71.8239,6.9693 72.6634,6.6111 73.5738,6.422 74.4133,6.0692
    75.2747,5.762 76.1197,5.4162 76.8799,4.8635 77.745,4.5666 78.595,4.2272 79.4877,4.0131 80.3413,3.6832 81.1821,3.3161
    82.0678,3.0819 82.9263,2.7615 83.8125,2.5172 84.5889,1.9865 85.4767,1.696 86.3146,1.3659 86.2966,2.2499 86.2717,3.1659
    86.2285,4.0787 86.147,4.9778 86.0916,5.885 86.0264,6.7907 85.9444,7.693 86.1153,8.5986 85.8788,9.5031 85.8848,10.406
    85.949,11.3129 86.0694,12.222 85.8227,13.1157 85.9957,14.0308 85.8632,14.9306 85.7953,15.8386 85.8723,16.7441 86.0522,17.6505
    85.8627,18.5496 85.8012,19.4543 85.8991,20.3678 85.782,21.2665 85.6933,22.1698 85.6302,23.0752 85.8029,23.9786 85.663,24.8847
    85.5909,25.7881 85.7013,26.6967 85.6997,27.5923 86,28.5036 86,29.4078 85.6885,30.3154 85.6872,31.2217 85.5359,32.1237
    85.483,33.03 85.3804,33.9329 85.3195,34.8357 85.3618,35.7482 85.225,36.6533 85.4513,37.572 85.3646,38.4921  "/>
</g>
<g>
  <polyline fill="none" stroke="#fff" stroke-width="2" stroke-linecap="round" stroke-linejoin="round" points="40.3852,19.4718
    41.2487,19.889 41.9411,20.5307 42.7568,21.0239 43.3846,21.7359 44.0559,22.3971 44.8046,22.9695 45.4073,23.7074
    46.1368,24.3009 46.9513,24.7908 47.692,25.3676 48.2549,26.1509 49.0495,26.6665 49.73,27.3251 50.5016,27.8657 51.2664,28.4117
    51.9497,29.0534 52.7105,29.6109 53.4183,30.2274 54.0743,30.8991 54.77,31.5376 55.5647,32.0689 56.2787,32.672 56.938,33.3504
    57.5983,34.0319 58.4203,34.5089 59.2181,35.019 59.9066,35.6758 60.6695,36.2329 61.3669,36.8722 62.0736,37.6077 62.584,36.7697
    62.9086,35.903 63.4245,35.1471 64.1073,34.5266 64.6766,33.8155 65.2278,33.0874 65.6336,32.2682 66.2958,31.6235
    66.6715,30.7853 67.2682,30.0884 67.7275,29.3046 68.1885,28.5267 68.7012,27.7859 69.1827,27.0138 69.7243,26.2858
    70.2561,25.5484 70.5472,24.6634 71.0884,23.9281 71.6023,23.182 72.0474,22.3902 72.5195,21.6119 73.1914,20.9799 73.751,20.2638
    74.1318,19.4158 74.7538,18.7483 75.3054,18.0265 75.7157,17.2075 76.218,16.4571 76.8361,15.7813 77.3721,15.0486
    77.6506,14.1513 78.1654,13.4036 78.7974,12.7322 79.2108,11.9186 79.8798,11.2769 80.2077,10.4049 80.8215,9.7135 81.1607,8.8589
    81.729,8.146 82.1868,7.356 82.732,6.6218 83.2934,5.9128 83.7538,5.139 84.3441,4.4268 84.7759,3.6244 85.2126,2.8259
    85.797,2.1227 86.2705,1.3445  "/>
</g>
<g>
  <polyline fill="none" stroke="#fff" stroke-width="2" stroke-linecap="round" stroke-linejoin="round" points="30.0308,29.2635
    29.1363,29.4494 28.3693,29.9644 27.5246,30.2897 26.6605,30.5464 25.8071,30.8387 24.9294,31.0508 24.0232,31.1708
    23.2022,31.5672 22.3283,31.789 21.4397,31.9436 20.5852,32.2747 19.6629,32.3383 18.8755,32.8224 18.0381,33.1673
    17.1456,33.3603 16.2764,33.5824 15.4026,33.8197 14.5875,34.2636 13.7316,34.5339 12.7994,34.5983 12,35.0598  "/>
</g>
<g>
  <polyline fill="none" stroke="#fff" stroke-width="2" stroke-linecap="round" stroke-linejoin="round" points="30.0135,38.6465
    29.2182,39.1088 28.3383,39.3442 27.5137,39.7401 26.6475,40.0132 25.7602,40.2136 24.8643,40.386 24.004,40.6693 23.1347,40.9305
    22.2721,41.2164 21.4595,41.6276 20.6014,41.93 19.7863,42.3529 18.8993,42.5592 17.9815,42.6518 17.1652,43.0853 16.2604,43.2301
    15.4125,43.5538 14.541,43.819 13.7536,44.2947 12.9307,44.6865 12.0974,45.0699 11.168,45.1373 10.3018,45.4188 9.4161,45.6459
    8.6092,46.0805 7.7085,46.2862 6.8893,46.6781 6.1011,47.1715 5.2114,47.3801 4.2979,47.5137 3.4695,47.902 2.6192,48.2328
    1.7102,48.3756  "/>
</g>
<g>
  <polyline fill="none" stroke="#fff" stroke-width="2" stroke-linecap="round" stroke-linejoin="round" points="30.0166,46.458
    29.1552,46.7928 28.3002,47.1494 27.4675,47.5594 26.5932,47.8666 25.7756,48.3156 24.9176,48.6699 24.0823,49.079 23.212,49.4035
    22.2811,49.5752 21.5115,50.1323 20.6415,50.4614 19.7438,50.7241 18.8635,51.0135 17.9577,51.2401 17.0974,51.6077
    16.3227,52.1522 15.4807,52.5512 14.5719,52.8025 13.6745,53.046 12.8576,53.5292 11.9083,53.6389  "/>
</g>
<g>
  <polygon fill="none" stroke="#fff" stroke-width="2" stroke-linecap="round" stroke-linejoin="round" points="108.72,64.5006
    107.8488,64.2351 106.9691,64.1318 106.1126,63.9177 105.3327,63.4697 104.419,63.4287 103.5837,63.1626 102.7651,62.843
    101.9408,62.5192 101.0508,62.4404 100.2362,62.0933 99.3665,61.9323 98.5085,61.7226 97.7153,61.3194 96.8641,61.0872
    96.0151,60.8579 95.1695,60.6317 94.3468,60.2928 93.4736,60.154 92.6575,59.8004 91.8034,59.5848 90.9246,59.4651
    90.0879,59.2029 89.243,58.961 88.415,58.6729 87.594,58.3707 86.7623,58.079 85.9146,57.8225 85.0161,57.767 84.217,57.3467
    83.3142,57.2991 82.5197,56.8968 81.6907,56.5936 80.8553,56.3029 79.9887,56.1365 79.1685,55.7833 78.292,55.6489
    77.4347,55.4294 76.5556,55.3094 75.6842,55.1546 74.8298,54.9318 74.0008,54.6273 73.0708,54.3476 73.5064,53.4824
    73.6813,52.6308 73.8559,51.7793 74.1248,50.9563 74.4983,50.1603 74.597,49.287 74.9202,48.4721 75.027,47.6047 75.2117,46.755
    75.4963,45.9386 75.844,45.1389 76.0104,44.283 76.2445,43.4497 76.3586,42.5805 76.5841,41.7398 76.8596,40.9144 77.3138,40.1511
    77.5918,39.3254 77.6516,38.4376 78.0818,37.6595 78.4036,36.8451 78.3797,35.9436 78.5729,35.0956 78.9194,34.2866
    79.2363,33.4787 79.5067,32.6494 79.7383,31.8074 79.9472,30.9568 80.2047,30.1136 80.3215,29.2266 81.1954,29.4296
    82.0505,29.6631 82.871,30.0169 83.7537,30.1055 84.5904,30.3945 85.4207,30.6892 86.2367,31.0027 87.1115,31.1716
    87.9293,31.5049 88.8033,31.6382 89.6535,31.8672 90.4654,32.2401 91.3573,32.3033 92.1736,32.6539 93.0124,32.9145
    93.8267,33.2436 94.6836,33.4598 95.5166,33.7588 96.3831,33.9327 97.2395,34.1455 98.1338,34.1944 98.9975,34.3614
    99.8424,34.6047 100.6761,34.896 101.4977,35.2135 102.3499,35.4459 103.1675,35.7749 104.0261,35.9616 104.8751,36.1971
    105.734,36.4004 106.5755,36.6571 107.3808,37.0397 108.2767,37.1215 109.071,37.5293 109.9259,37.749 110.79,37.921
    111.621,38.2323 112.509,38.3091 113.3366,38.6467 114.1637,38.8776 115.0041,39.0972 115.6978,39.5312 115.5575,40.3006
    115.5424,41.1644 115.3446,41.9954 114.8865,42.7601 114.6286,43.5912 114.3356,44.4115 114.0407,45.2314 113.8628,46.0825
    113.7127,46.9407 113.6337,47.8123 113.1953,48.5955 113.0387,49.449 112.8674,50.2997 112.4951,51.0941 112.2606,51.9276
    112.0785,52.7804 111.8875,53.6345 111.5795,54.4448 111.1808,55.2315 111.0814,56.1041 110.7123,56.9066 110.6333,57.7807
    110.4916,58.6409 110.2467,59.4779 109.9989,60.3108 109.6336,61.1084 109.3341,61.9277 109.3004,62.8244 108.857,63.6021   "/>
</g>
<g>
  <polyline fill="none" stroke="#fff" stroke-width="2" stroke-linecap="round" stroke-linejoin="round" points="80.0789,30.16
    80.4786,30.7513 80.8852,31.3652 80.7981,32.4269 81.3392,33.2199 81.5622,33.9413 81.9541,34.5905 82.29,35.2674 82.5212,36.0392
    82.8597,36.7676 83.117,37.5284 83.5583,38.3057 83.6938,39.218 84.1844,39.9768 84.6168,40.8669 85.0024,41.7802 85.0906,42.552
    85.4203,43.2357 85.7661,44.0052 86.0994,44.78 86.5121,45.5781 87.1213,46.2631 87.4884,47.0907 87.9995,47.8297 88.5408,48.6121
    88.9451,49.4884 89.1804,50.1701 89.5617,50.799 89.9757,51.3958 90.4948,52.0686 91.0607,52.7341 91.3433,53.3632
    91.6682,53.8399 92.1555,54.8873 92.97,54.8046 93.7068,54.4399 94.5074,54.1193 95.2396,53.6736 96.0615,53.3285 96.824,52.8718
    97.8207,52.4148 98.6045,51.8415 99.588,51.4579 100.4798,50.8984 101.1162,50.7141 101.7755,50.5052 102.4191,49.7669
    103.0945,49.0898 103.8229,48.7056 104.5421,48.3111 105.24,47.8699 105.8889,47.3548 106.3604,47.0283 106.5529,46.6077
    107.2641,46.0958 108.0538,45.7148 108.7952,45.2573 109.3088,44.7593 109.8879,44.3767 110.4273,44.3182 110.6692,43.7488
    111.7594,43.2235 112.3161,42.8432 113.163,42.0299 113.8113,41.3268 114.6918,40.4191 115.2813,39.9943 115.7541,39.3924
    115.1328,39.6363  "/>
</g>
</svg>
