<svg version="1.1" xmlns="http://www.w3.org/2000/svg" xmlns:xlink="http://www.w3.org/1999/xlink" x="0px" y="0px" viewBox="0 0 1040.527 132.565" style="enable-background:new 0 0 1040.527 132.565;" xml:space="preserve">
<path style="fill:#1F8BEB;" d="M368.442,35.985c2.796,8.028,5.559,15.165,7.743,22.476c1.825,6.111,3.994,11.969,7.436,17.372
	c1.421,2.23,2.477,4.726,3.451,7.198c1.168,2.962,0.366,5.333-1.883,6.473c-2.181,1.106-4.728,0.358-6.189-2.593
	c-3.758-7.586-7.412-15.239-10.685-23.043c-1.988-4.74-3.112-9.837-4.783-14.719c-0.737-2.153-1.867-4.172-3.204-7.097
	c-5.194,3.969-9.995,7.434-14.512,11.235c-1.109,0.934-1.581,2.916-1.857,4.502c-1.595,9.182-3.042,18.389-4.541,27.588
	c-0.214,1.31-0.042,2.91-0.746,3.858c-0.985,1.327-2.498,2.748-4.015,3.081c-2.206,0.484-3.767-1.207-4.292-3.323
	c-0.35-1.413-0.365-2.981-0.192-4.44c2.194-18.401,6.076-36.42,11.751-54.088c1.866-5.808,2.59-11.984,3.805-17.998
	c0.362-1.791,0.465-3.647,0.959-5.397c0.856-3.03,2.997-4.625,5.307-4.228c2.404,0.413,3.955,2.569,3.531,5.729
	c-1.104,8.229-1.363,16.625-4.591,24.467c-0.538,1.308-0.737,2.756-1.175,4.462c0.949-0.261,1.503-0.259,1.839-0.529
	c10.384-8.331,20.744-16.693,31.116-25.04c1.416-1.14,2.733-2.777,4.348-3.185c1.483-0.374,3.607,0.174,4.905,1.087
	c1.658,1.167,1.533,3.254,0.416,4.965c-0.72,1.102-1.599,2.153-2.59,3.016c-5.647,4.915-11.343,9.774-17.037,14.635
	C371.254,33.735,369.699,34.958,368.442,35.985z"></path>
<path style="fill:#1F8BEB;" d="M33.24,55.125c-2.799-0.368-4.607-0.531-6.386-0.857C24.46,53.83,22.84,52.43,22.859,49.9
	c0.019-2.525,1.715-4.272,4.039-4.301c4.3-0.054,8.659,0.168,12.893,0.879c2.781,0.467,3.779,3.176,3.371,6.336
	c-1.169,9.066-2.366,18.131-3.354,27.218c-0.758,6.966-3.392,8.32-9.161,4.629c-2.998,1.27-5.773,2.876-8.762,3.636
	c-11.162,2.84-21.485-4.796-21.836-16.357c-0.166-5.459,0.064-11.089,1.233-16.395c2.539-11.521,5.568-22.95,8.843-34.288
	c2.2-7.618,7.197-13.382,13.835-17.769c8.247-5.45,18.095-4.461,25.07,2.596c3.782,3.827,5.036,8.548,4.943,13.697
	c-0.057,3.185-1.806,5.148-4.227,5.307c-2.434,0.159-4.264-1.608-4.825-4.748c-0.175-0.979-0.107-2.002-0.282-2.982
	c-1.194-6.683-8.189-10.209-14.154-6.93c-4.752,2.612-8.931,6.098-10.73,11.407c-5.185,15.3-10.291,30.641-10.418,47.076
	c-0.045,5.797,1.82,9.556,5.775,10.349c4.598,0.922,8.399,0.199,11.014-6.082c1.533-3.682,3.597-7.143,5.155-10.817
	C32.152,60.304,32.481,58.015,33.24,55.125z"></path>
<path style="fill:#1F8BEB;" d="M498.342,94.142c-2.62,0.974-4.107,1.646-5.66,2.083c-7.058,1.985-13.588,0.7-19.257-3.847
	c-4.906-3.936-6.261-13.282-2.623-20.331c1.858-3.6,4.817-6.702,7.613-9.719c1.663-1.794,3.931-3.054,6.006-4.436
	c4.815-3.206,9.814-4.902,15.402-1.75c0.969,0.547,2.186,0.655,3.474,1.019c0.561-1.186,0.784-2.538,1.576-3.136
	c1.342-1.014,3.198-2.336,4.552-2.071c1.387,0.272,2.45,2.277,3.605,3.569c0.18,0.201,0.145,0.649,0.115,0.974
	c-0.723,7.909,0.474,15.973-2.109,23.745c-0.885,2.663-1.287,5.496-1.805,8.27c-1.633,8.742-4.661,17.025-8.733,24.87
	c-4.228,8.147-10.64,13.591-20.26,14.184c-1.637,0.101-3.34-0.005-4.938-0.356c-2.145-0.471-3.6-1.964-3.577-4.218
	c0.026-2.487,1.66-3.906,4.016-4.401c0.964-0.203,1.986-0.176,2.982-0.178c5.081-0.012,8.971-2.293,11.769-6.396
	C493.986,106.891,496.059,101.124,498.342,94.142z M478.135,79.296c-0.008,5.18,1.277,6.545,4.815,7.953
	c7.03,2.797,19.129-4.759,19.338-14.419c0.113-5.24-1.919-8.104-7.012-7.705c-2.588,0.203-5.34,0.848-7.612,2.056
	C482.32,70.022,478.401,74.148,478.135,79.296z"></path>
<path style="fill:#1F8BEB;" d="M540.089,46.724c3.27-0.552,6.298-1.389,9.356-1.516c7.638-0.317,12.561,3.765,12.771,11.456
	c0.162,5.914-0.688,11.929-1.747,17.78c-0.884,4.883-2.718,9.594-4.145,14.377c-0.19,0.636-0.412,1.272-0.702,1.868
	c-1.284,2.638-3.352,3.768-5.539,3.066c-2.198-0.706-3.596-2.93-3.023-5.591c0.769-3.573,1.693-7.139,2.899-10.586
	c2.057-5.875,3.395-11.826,3.134-18.085c-0.212-5.094-1.811-6.384-6.579-4.633c-6.42,2.358-10.942,6.557-12.842,13.493
	c-1.711,6.246-3.985,12.339-6.085,18.475c-0.368,1.076-0.867,2.419-1.729,2.941c-1.298,0.787-3.299,1.696-4.397,1.204
	c-1.352-0.606-2.525-2.477-2.945-4.026c-0.344-1.268,0.395-2.912,0.884-4.31c7.426-21.253,13.192-42.922,16.613-65.197
	c0.693-4.51,2.789-6.614,5.725-6.154c3.192,0.5,4.565,3.587,3.637,7.994c-1.783,8.461-3.534,16.929-5.27,25.4
	C539.982,45.284,540.089,45.934,540.089,46.724z"></path>
<path style="fill:#1F8BEB;" d="M78.572,85.42c-1.865,1.246-3.357,2.25-4.857,3.242c-3.028,2.004-6.346,2.876-9.971,2.529
	c-5.803-0.555-9.395-4.294-9.724-10.12c-0.775-13.715,8.955-30.02,21.678-35.658c2.424-1.074,5.478-0.975,8.239-0.958
	c2.244,0.013,4.484,0.715,6.725,1.109c2.686,0.473,4.445,2.7,4.217,5.886c-0.153,2.138-0.823,4.237-1.237,6.359
	c-1.816,9.304-3.628,18.61-5.428,27.918c-0.158,0.815,0.068,1.9-0.386,2.425c-1.121,1.296-2.367,2.907-3.87,3.349
	c-2.147,0.631-3.751-0.896-4.532-2.99C79.103,87.643,78.925,86.722,78.572,85.42z M84.273,54.271
	c-2.969-1.76-5.017-0.597-6.957,0.733c-7.649,5.247-12.385,12.45-13.918,21.595c-0.267,1.59,0.544,3.361,0.857,5.049
	c1.699-0.401,3.418-0.737,5.088-1.237c0.599-0.18,1.134-0.701,1.605-1.161C78.064,72.287,81.497,63.453,84.273,54.271z"></path>
<path style="fill:#1F8BEB;" d="M238.903,39.434c1.976,0.118,3.585,0.25,5.197,0.3c1.829,0.057,3.67-0.074,5.489,0.078
	c3.992,0.334,6.061,2.328,5.794,5.402c-0.251,2.89-2.303,4.211-6.213,4.149c-3.803-0.06-7.607-0.013-11.942-0.013
	c-0.585,2.972-1.278,5.824-1.689,8.716c-0.98,6.902-2.05,13.803-2.652,20.742c-0.425,4.896,1.542,6.439,6.309,5.216
	c2.175-0.558,4.172-1.93,6.154-3.096c2.93-1.723,5.042-1.698,6.702,0.291c1.627,1.95,1.328,4.354-0.835,6.706
	c-4.403,4.786-14.303,7.202-20.419,4.759c-5.065-2.024-7.557-6.183-7.274-11.419c0.384-7.119,1.397-14.207,2.232-21.298
	c0.232-1.975,0.801-3.909,1.189-5.867c0.462-2.331,0.523-4.355-1.385-6.426c-2.161-2.345-1.902-4.752,0.701-6.365
	c2.449-1.517,3.197-3.639,3.864-6.046c0.711-2.564,1.342-5.156,2.172-7.681c0.899-2.734,3.024-4.222,5.163-3.621
	c2.595,0.73,3.928,2.64,3.547,5.272C240.538,32.486,239.696,35.683,238.903,39.434z"></path>
<path style="fill:#1F8BEB;" d="M278.72,39.434c1.976,0.118,3.585,0.25,5.197,0.3c1.829,0.057,3.67-0.074,5.489,0.078
	c3.992,0.334,6.061,2.328,5.794,5.402c-0.251,2.89-2.303,4.211-6.213,4.149c-3.803-0.06-7.607-0.013-11.942-0.013
	c-0.585,2.972-1.278,5.824-1.689,8.716c-0.98,6.902-2.05,13.803-2.652,20.742c-0.425,4.896,1.542,6.439,6.309,5.216
	c2.175-0.558,4.172-1.93,6.154-3.096c2.93-1.723,5.042-1.698,6.702,0.291c1.627,1.95,1.328,4.354-0.835,6.706
	c-4.403,4.786-14.303,7.202-20.419,4.759c-5.065-2.024-7.557-6.183-7.274-11.419c0.384-7.119,1.397-14.207,2.232-21.298
	c0.232-1.975,0.801-3.909,1.189-5.867c0.462-2.331,0.523-4.355-1.385-6.426c-2.161-2.345-1.902-4.752,0.701-6.365
	c2.449-1.517,3.197-3.639,3.864-6.046c0.711-2.564,1.342-5.156,2.172-7.681c0.899-2.734,3.024-4.222,5.163-3.621
	c2.595,0.73,3.928,2.64,3.547,5.272C280.354,32.486,279.513,35.683,278.72,39.434z"></path>
<path style="fill:#1F8BEB;" d="M589.06,39.434c1.976,0.118,3.585,0.25,5.197,0.3c1.829,0.057,3.67-0.074,5.489,0.078
	c3.992,0.334,6.061,2.328,5.794,5.402c-0.251,2.89-2.303,4.211-6.213,4.149c-3.803-0.06-7.607-0.013-11.942-0.013
	c-0.585,2.972-1.278,5.824-1.689,8.716c-0.98,6.902-2.05,13.803-2.652,20.742c-0.425,4.896,1.542,6.439,6.309,5.216
	c2.175-0.558,4.172-1.93,6.154-3.096c2.93-1.723,5.042-1.698,6.702,0.291c1.627,1.95,1.328,4.354-0.835,6.706
	c-4.403,4.786-14.303,7.202-20.419,4.759c-5.065-2.024-7.557-6.183-7.274-11.419c0.384-7.119,1.397-14.207,2.232-21.298
	c0.232-1.975,0.801-3.909,1.189-5.867c0.462-2.331,0.523-4.355-1.385-6.426c-2.161-2.345-1.902-4.752,0.701-6.365
	c2.449-1.517,3.197-3.639,3.864-6.046c0.711-2.564,1.342-5.156,2.172-7.681c0.899-2.734,3.024-4.222,5.163-3.621
	c2.595,0.73,3.928,2.64,3.547,5.272C590.694,32.486,589.853,35.683,589.06,39.434z"></path>
<path style="fill:#1F8BEB;" d="M411.323,51.17c1.403-0.706,2.693-1.43,4.041-2.019c2.436-1.064,4.829-2.354,7.379-3.01
	c8.909-2.293,13.784,1.608,13.99,10.782c0.21,9.315-2.676,18.059-4.866,26.917c-0.768,3.107-3.146,4.333-5.561,3.696
	c-2.421-0.639-3.729-2.864-3.108-5.956c0.982-4.893,2.279-9.723,3.274-14.614c0.783-3.854,1.805-7.75,0.231-12.296
	c-1.826,0.588-3.671,0.827-5.116,1.716c-3.665,2.258-7.205,4.734-10.69,7.266c-2.562,1.862-3.769,4.586-4.139,7.696
	c-0.374,3.14-0.624,6.301-1.164,9.412c-0.451,2.601-0.964,5.257-1.965,7.676c-0.885,2.139-2.836,3.355-5.318,2.426
	c-2.331-0.873-3.26-2.724-2.924-5.173c0.565-4.119,1.077-8.248,1.761-12.348c1.284-7.7,2.633-15.39,4.06-23.065
	c0.235-1.264,0.79-2.594,1.569-3.607c1.87-2.43,5.04-2.323,6.734,0.223C410.306,48.09,410.667,49.577,411.323,51.17z"></path>
<path style="fill:#1F8BEB;" d="M190.963,73.266c0.188,4.257,1.785,6.874,5.809,7.741c3.483,0.75,7.203,0.446,10.82,0.493
	c0.791,0.01,1.697-0.834,2.361-0.639c1.632,0.478,3.811,0.939,4.535,2.146c0.721,1.203,0.362,3.509-0.322,4.953
	c-0.546,1.151-2.204,2.256-3.523,2.482c-8.4,1.439-16.632,1.537-23.648-4.494c-3.589-3.085-5.92-6.896-5.693-11.716
	c0.227-4.798,0.451-9.68,1.507-14.336c1.445-6.37,5.992-10.701,11.534-13.781c4.693-2.608,11.137-1.052,14.514,3.064
	c3.394,4.137,3.487,11.364,0.033,15.87c-3.19,4.162-7.596,6.372-12.686,7.312C194.441,72.685,192.669,72.972,190.963,73.266z
	 M191.689,63.104c3.98,0.599,6.942-0.513,8.981-3.015c0.889-1.091,1.132-3.611,0.475-4.848c-0.993-1.869-2.918-0.8-4.278,0.232
	C194.473,57.29,192.398,59.371,191.689,63.104z"></path>
<path style="fill:#1F8BEB;" d="M118.877,53.484c1.422-0.628,2.744-1.276,4.113-1.804c4.308-1.662,8.495-1.34,12.443,1.05
	c2.906,1.759,3.837,4.737,2.412,7.19c-1.392,2.396-3.882,3.127-6.88,1.278c-3.102-1.914-5.728-1.172-7.468,1.246
	c-2.387,3.317-4.382,7.016-5.933,10.803c-1.241,3.03-1.609,6.426-2.295,9.674c-0.771,3.646-2.777,5.607-5.448,5.205
	c-2.676-0.403-4.505-2.951-4.188-6.446c0.539-5.953,1.346-11.882,1.98-17.827c0.388-3.632,0.706-7.272,0.978-10.914
	c0.271-3.63,1.563-5.61,4.075-6.018c2.654-0.432,4.418,1.182,5.553,5.047C118.353,52.418,118.594,52.839,118.877,53.484z"></path>
<path style="fill:#1F8BEB;" d="M156.877,53.484c1.422-0.628,2.744-1.276,4.113-1.804c4.308-1.662,8.495-1.34,12.443,1.05
	c2.906,1.759,3.837,4.737,2.412,7.19c-1.392,2.396-3.882,3.127-6.88,1.278c-3.102-1.914-5.728-1.172-7.468,1.246
	c-2.387,3.317-4.382,7.016-5.933,10.803c-1.241,3.03-1.609,6.426-2.295,9.674c-0.771,3.646-2.777,5.607-5.448,5.205
	c-2.676-0.403-4.505-2.951-4.188-6.446c0.539-5.953,1.346-11.882,1.98-17.827c0.388-3.632,0.706-7.272,0.978-10.914
	c0.271-3.63,1.563-5.61,4.075-6.018c2.654-0.432,4.418,1.182,5.553,5.047C156.353,52.418,156.594,52.839,156.877,53.484z"></path>
<g>
	<path style="fill:#1F8BEB;" d="M458.29,66.345c-0.766,5.751-1.512,11.506-2.317,17.251c-0.137,0.977-0.44,1.954-0.82,2.867
		c-1.096,2.633-3.151,3.808-5.459,3.09c-2.413-0.751-3.485-2.561-3.179-4.977c0.834-6.581,1.7-13.16,2.754-19.708
		c0.516-3.207,2.407-4.63,5.014-4.358C456.998,60.794,458.422,62.867,458.29,66.345z"></path>
	<path style="fill:#1F8BEB;" d="M451.06,40.33c0.011-3.018,2.375-5.53,5.236-5.563c2.876-0.033,4.967,2.396,4.908,5.702
		c-0.058,3.263-2.272,5.715-5.079,5.626C453.358,46.008,451.049,43.379,451.06,40.33z"></path>
</g>
<path style="fill:#1F8BEB;" d="M693.186,43.117c4.469-1.071,7.838-1.881,11.209-2.684c1.133-0.27,2.257-0.612,3.407-0.765
	c2.944-0.391,5.39,1.026,5.779,3.464c0.444,2.779-1.188,4.342-3.571,5.269c-0.925,0.36-1.902,0.599-2.869,0.833
	c-4.363,1.057-8.774,1.95-13.075,3.217c-1.4,0.412-3.318,1.564-3.638,2.746c-2.471,9.124-4.607,18.339-7.052,28.369
	c2.393,0,4.305,0.056,6.213-0.011c4.989-0.176,9.975-0.522,14.964-0.575c3.747-0.04,5.802,1.821,5.764,4.747
	c-0.038,2.927-2.058,4.459-5.883,4.583c-7.311,0.237-14.621,0.54-21.932,0.77c-1.491,0.047-3.02,0.068-4.476-0.201
	c-3.511-0.649-5.146-2.809-4.739-6.403c0.261-2.303,0.839-4.579,1.393-6.838c5.273-21.478,10.571-42.951,15.863-64.424
	c1.361-5.521,3.02-6.945,8.569-7.124c7.317-0.236,14.636-0.465,21.956-0.563c4.577-0.061,6.987,1.667,6.933,4.631
	c-0.05,2.772-2.247,4.456-6.585,4.632c-5.985,0.244-11.979,0.407-17.967,0.342c-2.825-0.031-4.16,0.907-4.788,3.736
	C697.083,27.977,695.202,35.018,693.186,43.117z"></path>
<path style="fill:#1F8BEB;" d="M1012.085,85.063c0.511-0.24,1.184-0.389,1.628-0.791c7.379-6.675,13.35-14.363,16.896-23.764
	c0.469-1.244,0.694-2.593,1.257-3.787c1.01-2.141,2.678-3.468,5.182-2.958c2.258,0.46,3.38,2.108,3.46,4.31
	c0.059,1.647-0.009,3.356-0.386,4.951c-2.909,12.302-5.807,24.608-8.925,36.857c-1.311,5.151-2.964,10.236-4.791,15.231
	c-2.312,6.323-6.637,11.272-12.419,14.508c-3.064,1.715-6.837,2.574-10.377,2.916c-3.614,0.349-5.658-2.562-5.252-6.262
	c0.378-3.446,2.394-4.511,6.447-3.999c1.648,0.208,3.873,0.029,5.035-0.936c2.649-2.201,5.547-4.632,7.013-7.623
	c3.88-7.913,5.733-16.542,7.875-26.368c-2.83,2.238-4.656,3.796-6.598,5.193c-3.579,2.575-7.333,5.104-11.915,2.652
	c-4.357-2.331-4.477-6.683-4.425-10.922c0.102-8.227,1.458-16.233,4.425-23.936c0.239-0.621,0.458-1.253,0.734-1.858
	c1.677-3.673,3.833-5.128,6.312-4.28c2.816,0.964,3.679,3.579,2.225,7.543c-2.364,6.443-4.33,12.952-4.271,19.904
	c0.007,0.83,0.034,1.665,0.143,2.486C1011.393,84.392,1011.723,84.615,1012.085,85.063z"></path>
<path style="fill:#1F8BEB;" d="M780.531,91.858c-0.94,4.738-1.832,8.944-2.598,13.173c-0.978,5.403-1.726,10.851-2.824,16.229
	c-0.646,3.165-2.755,4.744-5.097,4.427c-2.571-0.347-4.001-2.634-3.785-6.062c0.021-0.332,0.054-0.665,0.111-0.993
	c1.44-8.194,2.872-16.39,4.332-24.58c1.753-9.83,3.612-19.641,5.242-29.491c0.43-2.596,0.307-5.308,0.209-7.958
	c-0.088-2.356,0.408-4.315,2.571-5.519c1.989-1.108,3.708-0.526,5.57,0.653c1.261,0.798,2.947,1.118,4.477,1.248
	c1.806,0.153,3.66-0.307,5.474-0.19c5.896,0.379,10.205,3.345,12.081,8.91c2.063,6.116,2.398,12.531-0.116,18.602
	c-3.253,7.856-10.242,10.454-17.974,11.504C785.93,92.12,783.577,91.858,780.531,91.858z M782.305,81.469
	c8.309,3.313,15.832-1.338,16.004-9.239c0.032-1.486,0.038-2.981-0.083-4.461c-0.305-3.749-1.747-5.44-4.843-5.837
	c-3.51-0.449-7.364,1.293-8.1,4.27C784.03,71.278,783.254,76.471,782.305,81.469z"></path>
<path style="fill:#1F8BEB;" d="M972.597,67.23c-1.516-0.349-2.329-0.462-3.09-0.725c-2.091-0.723-3.723-2.255-3.234-4.406
	c0.347-1.53,1.881-3.772,3.127-3.945c5.357-0.741,5.841-4.593,6.33-8.614c0.703-5.783,0.894-11.678,2.176-17.326
	c1.085-4.781,2.802-9.647,5.326-13.819c3.908-6.462,11.75-8.701,18.924-6.421c4.186,1.331,6.903,5.358,6.514,9.551
	c-0.207,2.237-1.227,4.156-3.455,4.209c-1.546,0.037-3.606-0.848-4.599-2.027c-3.424-4.062-7.316-4.253-10.112,0.34
	c-1.692,2.781-2.986,6.029-3.545,9.227c-1.117,6.385-1.619,12.878-2.33,19.332c-0.067,0.605,0.191,1.247,0.37,2.294
	c2.609-0.637,4.966-1.32,7.367-1.772c3.405-0.641,5.765,0.644,6.327,3.247c0.527,2.442-0.774,4.412-3.913,5.463
	c-2.839,0.951-5.716,1.909-8.653,2.413c-2.928,0.503-4.175,1.852-4.641,4.821c-1.082,6.904-2.562,13.745-3.884,20.612
	c-0.126,0.652-0.173,1.344-0.43,1.943c-0.86,2.006-2.307,3.324-4.615,3.093c-2.297-0.23-3.728-1.716-3.819-3.93
	c-0.095-2.301,0.159-4.654,0.567-6.929C970.272,78.466,971.421,73.105,972.597,67.23z"></path>
<path style="fill:#1F8BEB;" d="M876.854,54.217c1.403-0.706,2.693-1.43,4.041-2.019c2.436-1.064,4.829-2.354,7.379-3.01
	c8.909-2.293,13.784,1.608,13.99,10.782c0.21,9.315-2.676,18.059-4.866,26.917c-0.768,3.107-3.146,4.333-5.561,3.696
	c-2.421-0.639-3.729-2.864-3.108-5.956c0.982-4.893,2.279-9.723,3.274-14.614c0.783-3.854,1.805-7.75,0.231-12.296
	c-1.826,0.588-3.671,0.827-5.116,1.716c-3.665,2.258-7.205,4.734-10.69,7.266c-2.562,1.862-3.769,4.586-4.139,7.696
	c-0.374,3.14-0.624,6.301-1.164,9.412c-0.451,2.601-0.964,5.257-1.965,7.676c-0.885,2.139-2.836,3.355-5.318,2.426
	c-2.331-0.873-3.26-2.724-2.924-5.173c0.565-4.119,1.078-8.248,1.761-12.348c1.284-7.7,2.633-15.39,4.06-23.065
	c0.235-1.264,0.79-2.594,1.569-3.607c1.87-2.43,5.04-2.323,6.734,0.223C875.838,51.136,876.198,52.623,876.854,54.217z"></path>
<path style="fill:#1F8BEB;" d="M826.805,77.426c0.188,4.257,1.785,6.874,5.809,7.741c3.483,0.75,7.203,0.446,10.82,0.493
	c0.791,0.01,1.697-0.834,2.361-0.639c1.632,0.478,3.811,0.939,4.535,2.146c0.721,1.203,0.362,3.509-0.322,4.953
	c-0.546,1.151-2.204,2.256-3.523,2.482c-8.4,1.439-16.632,1.537-23.648-4.494c-3.589-3.085-5.92-6.896-5.693-11.716
	c0.227-4.798,0.451-9.68,1.507-14.336c1.445-6.37,5.992-10.701,11.534-13.781c4.693-2.608,11.137-1.052,14.514,3.064
	c3.394,4.137,3.487,11.364,0.033,15.87c-3.19,4.162-7.596,6.372-12.686,7.312C830.283,76.845,828.511,77.132,826.805,77.426z
	 M827.532,67.265c3.98,0.599,6.942-0.513,8.981-3.015c0.889-1.091,1.132-3.611,0.475-4.848c-0.993-1.869-2.918-0.8-4.278,0.232
	C830.315,61.45,828.24,63.531,827.532,67.265z"></path>
<path style="fill:#1F8BEB;" d="M744.829,60.093c1.99-1.85,3.455-3.181,4.884-4.549c1.803-1.726,3.515-3.551,5.377-5.209
	c2.919-2.598,5.518-2.874,7.507-0.957c2.078,2.002,1.845,4.433-1.031,7.363c-3.495,3.561-7.045,7.085-10.788,10.379
	c-2.086,1.835-2.643,3.601-1.445,6.084c1.803,3.735,3.413,7.564,5.262,11.275c1.721,3.455,1.421,5.947-1.152,7.345
	c-2.498,1.357-5.285,0.386-6.993-2.783c-2.033-3.772-3.805-7.684-6.065-12.302c-2.566,2.814-4.77,5.217-6.958,7.635
	c-2.008,2.22-3.883,4.576-6.026,6.656c-2.537,2.465-5.189,2.688-7.093,0.93c-1.944-1.795-1.911-4.393,0.446-7.098
	c4.371-5.015,8.753-10.035,13.41-14.78c2.183-2.225,2.874-4.199,1.475-7.028c-1.32-2.67-2.286-5.514-3.573-8.202
	c-1.555-3.245-1.308-5.625,0.963-7.052c2.365-1.486,5.557-0.674,7.231,2.254c1.307,2.287,2.069,4.883,3.112,7.325
	C743.691,58.128,744.139,58.82,744.829,60.093z"></path>
<path style="fill:#1F8BEB;" d="M934.322,50.713c-0.172,1.988-1.654,3.047-3.582,4.004c-2.348,1.166-4.761,2.446-6.668,4.196
	c-2.78,2.552-2.447,4.763-0.014,7.744c1.753,2.148,3.699,4.428,4.529,6.983c1.979,6.095,1.221,11.877-4.048,16.3
	c-2.407,2.021-4.874,3.996-7.48,5.745c-1.813,1.217-3.85,1.08-5.466-0.582c-1.762-1.813-1.752-3.993-0.435-5.934
	c0.895-1.319,2.217-2.46,3.57-3.339c7.048-4.575,7.496-7.821,1.737-13.684c-4.155-4.23-5.137-9.05-2.598-14.614
	c2.632-5.768,7.451-9.32,13.221-11.424C930.949,44.7,934.457,47.041,934.322,50.713z"></path>
<g>
	<path style="fill:#1F8BEB;" d="M953.103,73.174c-0.766,5.751-1.512,11.506-2.317,17.251c-0.137,0.977-0.44,1.954-0.82,2.867
		c-1.096,2.633-3.151,3.808-5.459,3.09c-2.413-0.751-3.485-2.561-3.179-4.977c0.834-6.581,1.7-13.16,2.754-19.708
		c0.516-3.207,2.407-4.63,5.014-4.358C951.811,67.623,953.234,69.695,953.103,73.174z"></path>
	<path style="fill:#1F8BEB;" d="M945.872,47.158c0.011-3.018,2.375-5.53,5.236-5.563c2.876-0.033,4.967,2.396,4.908,5.702
		c-0.058,3.263-2.272,5.715-5.079,5.626C948.17,52.836,945.861,50.208,945.872,47.158z"></path>
</g>
<path style="fill:#1F8BEB;" d="M632.757,81.421c-0.281,1.309-0.309,2.004-0.574,2.592c-3.605,8.001-7.243,15.987-10.876,23.975
	c-0.068,0.15-0.158,0.292-0.252,0.429c-1.999,2.921-4.323,3.782-6.678,2.475c-2.579-1.431-2.928-3.985-1.329-7.334
	c2.993-6.267,5.776-12.634,8.777-18.897c0.987-2.058,2.084-4.234,3.697-5.757c0.937-0.885,3.21-1.141,4.492-0.654
	C631.265,78.725,632.019,80.505,632.757,81.421z"></path>
</svg>