<?xml version="1.0" encoding="utf-8"?>
<!-- Generator: Adobe Illustrator 19.1.0, SVG Export Plug-In . SVG Version: 6.00 Build 0)  -->
<svg version="1.1" id="Layer_1" xmlns="http://www.w3.org/2000/svg" xmlns:xlink="http://www.w3.org/1999/xlink" x="0px" y="0px"
	 viewBox="0 0 62.3600006 53.8600006" enable-background="new 0 0 62.3600006 53.8600006" xml:space="preserve">
<g>
	<g>
		<g>
			<polygon fill="none" stroke="#248FED" stroke-width="2" stroke-linecap="round" stroke-linejoin="round" points="
				60.8682632,31.6383038 60.7469063,30.7172012 60.908329,29.7937832 60.8598938,28.870676 60.7474556,27.9561291 
				60.6273651,27.0397091 60.5316505,26.1163731 60.2834969,25.2254925 60.1322098,24.314127 59.9237823,23.4085865 
				59.5404701,22.5601692 59.2629623,21.6792316 58.8845825,20.8356934 58.573204,19.9681129 58.1654129,19.14114 
				57.6481743,18.3690968 57.2645111,17.5351048 56.8991013,16.685955 56.3501587,15.9384928 55.8421516,15.1717691 
				55.3393593,14.3959894 54.9102249,13.5793037 54.4336662,12.780961 53.6841354,12.2007017 53.2144356,11.3845005 
				52.4457054,10.8555059 51.9098206,10.0715151 51.1516762,9.5312271 50.4250259,8.9580688 49.7553749,8.3196268 
				49.0423164,7.7416048 48.274498,7.2471175 47.6045723,6.5793376 46.7577629,6.1900091 45.974041,5.70366 45.0774727,5.4374285 
				44.3143463,4.8964939 43.4114723,4.6528478 42.6929398,4.0244865 41.7764931,3.8216987 40.9477501,3.407295 
				40.0235023,3.2910979 39.1824265,2.8702772 38.2425041,2.8593619 37.3834152,2.5019627 36.4783554,2.3391767 
				35.5802612,2.1455455 34.65271,2.1127715 33.7554398,1.904161 32.8405724,1.7777115 31.9090881,1.7681059 30.9995155,1.5394963 
				30.0791473,1.6588308 29.1835842,1.9519917 28.2370014,1.8701435 27.3572884,2.191143 26.4134712,2.0861709 
				25.5181961,2.3148241 24.5976505,2.4031568 23.6957607,2.646245 22.7582741,2.6669807 21.8882294,2.9945292 
				21.0243607,3.3333952 20.1339226,3.5936418 19.2923412,3.9750206 18.4075394,4.2672296 17.5919647,4.7150903 
				16.8532066,5.2888346 15.9316092,5.5368032 15.2119026,6.1387324 14.4483433,6.6564322 13.8301487,7.3620601 
				13.0161285,7.8256006 12.3163338,8.4353418 11.5210705,8.9135342 10.7838211,9.4677477 10.0904112,10.073947 
				9.4884624,10.7809238 8.9027729,11.4931879 8.3002567,12.1829615 7.6321945,12.8343611 7.0885096,13.5834656 
				6.5196619,14.3110142 6.186945,15.1947584 5.5295038,15.8685293 5.0343008,16.6466007 4.5039434,17.4051075 
				4.2035141,18.2945061 3.8585773,19.1399727 3.4824853,19.9888096 3.1143324,20.8403721 2.8720169,21.7254238 
				2.712956,22.6418114 2.426487,23.5099621 2.130327,24.3763523 1.8745676,25.2602158 1.5705659,26.1358376 1.5770893,27.0653648 
				1.2871832,27.9568558 1.4277452,28.896244 1.1991807,29.7986031 1.0812365,30.7137337 1.06812,31.634285 1.1879845,32.4860153 
				1.1900042,33.3354721 1.054678,34.1829605 1.2646466,35.007843 1.4342753,35.8392944 1.5254754,36.6836281 1.6264373,37.526886 
				2.0596316,38.2883759 2.0633757,39.1579475 2.1939716,39.9945793 2.5157695,40.7942238 2.5762289,41.657814 
				3.0627306,42.3863182 3.3367889,43.1912956 3.4822176,44.0582085 4.073565,44.6667099 4.5695019,45.323864 4.9535279,45.9767303 
				5.8003802,46.209404 6.7087688,46.1112137 7.6171045,46.1400223 8.5310593,46.0926781 9.4467955,46.0410004 
				10.3661947,45.9214096 11.284584,46.0187721 12.1948776,46.1746521 13.1116695,46.2914238 14.0293522,46.2285042 
				14.9439907,46.1373444 15.856041,46.0149727 16.7732677,46.0200081 17.687603,46.1469955 18.6077938,46.1451225 
				19.5211697,46.0352554 20.4389,46.1783104 21.3551083,46.1221352 22.270462,46.1232491 23.1877365,46.094101 
				24.101572,45.9971695 25.0176334,45.9706917 25.9415131,45.9809494 26.8510532,45.8194618 27.7642803,45.9294472 
				28.6807766,46.0210533 29.6035252,46.1106987 30.5211086,45.9974632 31.4416485,46.0469513 32.3541374,46.0008507 
				33.2708702,45.8314705 34.1894341,45.845211 35.1065636,45.9923973 36.0197067,45.8702011 36.9360847,45.7850151 
				37.8545761,45.6923485 38.7738533,45.7155304 39.6948891,45.688221 40.6066895,45.9559059 41.5233192,45.9445076 
				42.4411163,45.896534 43.361351,45.9262581 44.2678299,45.7163849 45.1907616,45.6997337 46.1041985,45.491291 
				47.0254173,45.6053047 47.9453773,45.5761299 48.861412,45.5871239 49.7782288,45.6729317 50.6970634,45.6563797 
				51.6128616,45.5277252 52.5317802,45.5848389 53.4523926,45.6361198 54.3711166,45.5163765 55.2845306,45.619133 
				56.194973,45.4546585 57.0854225,45.4703026 57.6263123,44.699791 58.033062,43.8347321 58.4362259,42.9656067 
				58.7424049,42.0395775 59.0820732,41.1268234 59.4260292,40.2217789 59.8740463,39.3426857 60.0274277,38.376873 
				60.1537361,37.4057617 60.4916191,36.484169 60.623951,35.5113564 60.8288689,34.5631828 60.9393501,33.5942688 
				60.894249,32.6164322 			"/>
		</g>
	</g>
	<g>
		<g>
			<polygon fill="none" stroke="#FFFFFF" stroke-width="2" stroke-linecap="round" stroke-linejoin="round" points="
				60.8682632,31.6383038 60.7469063,30.7172012 60.908329,29.7937832 60.8598938,28.870676 60.7474556,27.9561291 
				60.6273651,27.0397091 60.5316505,26.1163731 60.2834969,25.2254925 60.1322098,24.314127 59.9237823,23.4085865 
				59.5404701,22.5601692 59.2629623,21.6792316 58.8845825,20.8356934 58.573204,19.9681129 58.1654129,19.14114 
				57.6481743,18.3690968 57.2645111,17.5351048 56.8991013,16.685955 56.3501587,15.9384928 55.8421516,15.1717691 
				55.3393593,14.3959894 54.9102249,13.5793037 54.4336662,12.780961 53.6841354,12.2007017 53.2144356,11.3845005 
				52.4457054,10.8555059 51.9098206,10.0715151 51.1516762,9.5312271 50.4250259,8.9580688 49.7553749,8.3196268 
				49.0423164,7.7416048 48.274498,7.2471175 47.6045723,6.5793376 46.7577629,6.1900091 45.974041,5.70366 45.0774727,5.4374285 
				44.3143463,4.8964939 43.4114723,4.6528478 42.6929398,4.0244865 41.7764931,3.8216987 40.9477501,3.407295 
				40.0235023,3.2910979 39.1824265,2.8702772 38.2425041,2.8593619 37.3834152,2.5019627 36.4783554,2.3391767 
				35.5802612,2.1455455 34.65271,2.1127715 33.7554398,1.904161 32.8405724,1.7777115 31.9090881,1.7681059 30.9995155,1.5394963 
				30.0791473,1.6588308 29.1835842,1.9519917 28.2370014,1.8701435 27.3572884,2.191143 26.4134712,2.0861709 
				25.5181961,2.3148241 24.5976505,2.4031568 23.6957607,2.646245 22.7582741,2.6669807 21.8882294,2.9945292 
				21.0243607,3.3333952 20.1339226,3.5936418 19.2923412,3.9750206 18.4075394,4.2672296 17.5919647,4.7150903 
				16.8532066,5.2888346 15.9316092,5.5368032 15.2119026,6.1387324 14.4483433,6.6564322 13.8301487,7.3620601 
				13.0161285,7.8256006 12.3163338,8.4353418 11.5210705,8.9135342 10.7838211,9.4677477 10.0904112,10.073947 
				9.4884624,10.7809238 8.9027729,11.4931879 8.3002567,12.1829615 7.6321945,12.8343611 7.0885096,13.5834656 
				6.5196619,14.3110142 6.186945,15.1947584 5.5295038,15.8685293 5.0343008,16.6466007 4.5039434,17.4051075 
				4.2035141,18.2945061 3.8585773,19.1399727 3.4824853,19.9888096 3.1143324,20.8403721 2.8720169,21.7254238 
				2.712956,22.6418114 2.426487,23.5099621 2.130327,24.3763523 1.8745676,25.2602158 1.5705659,26.1358376 1.5770893,27.0653648 
				1.2871832,27.9568558 1.4277452,28.896244 1.1991807,29.7986031 1.0812365,30.7137337 1.06812,31.634285 1.1879845,32.4860153 
				1.1900042,33.3354721 1.054678,34.1829605 1.2646466,35.007843 1.4342753,35.8392944 1.5254754,36.6836281 1.6264373,37.526886 
				2.0596316,38.2883759 2.0633757,39.1579475 2.1939716,39.9945793 2.5157695,40.7942238 2.5762289,41.657814 
				3.0627306,42.3863182 3.3367889,43.1912956 3.4822176,44.0582085 4.073565,44.6667099 4.5695019,45.323864 4.9535279,45.9767303 
				5.8003802,46.209404 6.7087688,46.1112137 7.6171045,46.1400223 8.5310593,46.0926781 9.4467955,46.0410004 
				10.3661947,45.9214096 11.284584,46.0187721 12.1948776,46.1746521 13.1116695,46.2914238 14.0293522,46.2285042 
				14.9439907,46.1373444 15.856041,46.0149727 16.7732677,46.0200081 17.687603,46.1469955 18.6077938,46.1451225 
				19.5211697,46.0352554 20.4389,46.1783104 21.3551083,46.1221352 22.270462,46.1232491 23.1877365,46.094101 
				24.101572,45.9971695 25.0176334,45.9706917 25.9415131,45.9809494 26.8510532,45.8194618 27.7642803,45.9294472 
				28.6807766,46.0210533 29.6035252,46.1106987 30.5211086,45.9974632 31.4416485,46.0469513 32.3541374,46.0008507 
				33.2708702,45.8314705 34.1894341,45.845211 35.1065636,45.9923973 36.0197067,45.8702011 36.9360847,45.7850151 
				37.8545761,45.6923485 38.7738533,45.7155304 39.6948891,45.688221 40.6066895,45.9559059 41.5233192,45.9445076 
				42.4411163,45.896534 43.361351,45.9262581 44.2678299,45.7163849 45.1907616,45.6997337 46.1041985,45.491291 
				47.0254173,45.6053047 47.9453773,45.5761299 48.861412,45.5871239 49.7782288,45.6729317 50.6970634,45.6563797 
				51.6128616,45.5277252 52.5317802,45.5848389 53.4523926,45.6361198 54.3711166,45.5163765 55.2845306,45.619133 
				56.194973,45.4546585 57.0854225,45.4703026 57.6263123,44.699791 58.033062,43.8347321 58.4362259,42.9656067 
				58.7424049,42.0395775 59.0820732,41.1268234 59.4260292,40.2217789 59.8740463,39.3426857 60.0274277,38.376873 
				60.1537361,37.4057617 60.4916191,36.484169 60.623951,35.5113564 60.8288689,34.5631828 60.9393501,33.5942688 
				60.894249,32.6164322 			"/>
			<polygon fill="none" stroke="#FFFFFF" stroke-width="2" stroke-linecap="round" stroke-linejoin="round" points="
				60.8682632,31.6383038 60.7469063,30.7172012 60.908329,29.7937832 60.8598938,28.870676 60.7474556,27.9561291 
				60.6273651,27.0397091 60.5316505,26.1163731 60.2834969,25.2254925 60.1322098,24.314127 59.9237823,23.4085865 
				59.5404701,22.5601692 59.2629623,21.6792316 58.8845825,20.8356934 58.573204,19.9681129 58.1654129,19.14114 
				57.6481743,18.3690968 57.2645111,17.5351048 56.8991013,16.685955 56.3501587,15.9384928 55.8421516,15.1717691 
				55.3393593,14.3959894 54.9102249,13.5793037 54.4336662,12.780961 53.6841354,12.2007017 53.2144356,11.3845005 
				52.4457054,10.8555059 51.9098206,10.0715151 51.1516762,9.5312271 50.4250259,8.9580688 49.7553749,8.3196268 
				49.0423164,7.7416048 48.274498,7.2471175 47.6045723,6.5793376 46.7577629,6.1900091 45.974041,5.70366 45.0774727,5.4374285 
				44.3143463,4.8964939 43.4114723,4.6528478 42.6929398,4.0244865 41.7764931,3.8216987 40.9477501,3.407295 
				40.0235023,3.2910979 39.1824265,2.8702772 38.2425041,2.8593619 37.3834152,2.5019627 36.4783554,2.3391767 
				35.5802612,2.1455455 34.65271,2.1127715 33.7554398,1.904161 32.8405724,1.7777115 31.9090881,1.7681059 30.9995155,1.5394963 
				30.0791473,1.6588308 29.1835842,1.9519917 28.2370014,1.8701435 27.3572884,2.191143 26.4134712,2.0861709 
				25.5181961,2.3148241 24.5976505,2.4031568 23.6957607,2.646245 22.7582741,2.6669807 21.8882294,2.9945292 
				21.0243607,3.3333952 20.1339226,3.5936418 19.2923412,3.9750206 18.4075394,4.2672296 17.5919647,4.7150903 
				16.8532066,5.2888346 15.9316092,5.5368032 15.2119026,6.1387324 14.4483433,6.6564322 13.8301487,7.3620601 
				13.0161285,7.8256006 12.3163338,8.4353418 11.5210705,8.9135342 10.7838211,9.4677477 10.0904112,10.073947 
				9.4884624,10.7809238 8.9027729,11.4931879 8.3002567,12.1829615 7.6321945,12.8343611 7.0885096,13.5834656 
				6.5196619,14.3110142 6.186945,15.1947584 5.5295038,15.8685293 5.0343008,16.6466007 4.5039434,17.4051075 
				4.2035141,18.2945061 3.8585773,19.1399727 3.4824853,19.9888096 3.1143324,20.8403721 2.8720169,21.7254238 
				2.712956,22.6418114 2.426487,23.5099621 2.130327,24.3763523 1.8745676,25.2602158 1.5705659,26.1358376 1.5770893,27.0653648 
				1.2871832,27.9568558 1.4277452,28.896244 1.1991807,29.7986031 1.0812365,30.7137337 1.06812,31.634285 1.1879845,32.4860153 
				1.1900042,33.3354721 1.054678,34.1829605 1.2646466,35.007843 1.4342753,35.8392944 1.5254754,36.6836281 1.6264373,37.526886 
				2.0596316,38.2883759 2.0633757,39.1579475 2.1939716,39.9945793 2.5157695,40.7942238 2.5762289,41.657814 
				3.0627306,42.3863182 3.3367889,43.1912956 3.4822176,44.0582085 4.073565,44.6667099 4.5695019,45.323864 4.9535279,45.9767303 
				5.8003802,46.209404 6.7087688,46.1112137 7.6171045,46.1400223 8.5310593,46.0926781 9.4467955,46.0410004 
				10.3661947,45.9214096 11.284584,46.0187721 12.1948776,46.1746521 13.1116695,46.2914238 14.0293522,46.2285042 
				14.9439907,46.1373444 15.856041,46.0149727 16.7732677,46.0200081 17.687603,46.1469955 18.6077938,46.1451225 
				19.5211697,46.0352554 20.4389,46.1783104 21.3551083,46.1221352 22.270462,46.1232491 23.1877365,46.094101 
				24.101572,45.9971695 25.0176334,45.9706917 25.9415131,45.9809494 26.8510532,45.8194618 27.7642803,45.9294472 
				28.6807766,46.0210533 29.6035252,46.1106987 30.5211086,45.9974632 31.4416485,46.0469513 32.3541374,46.0008507 
				33.2708702,45.8314705 34.1894341,45.845211 35.1065636,45.9923973 36.0197067,45.8702011 36.9360847,45.7850151 
				37.8545761,45.6923485 38.7738533,45.7155304 39.6948891,45.688221 40.6066895,45.9559059 41.5233192,45.9445076 
				42.4411163,45.896534 43.361351,45.9262581 44.2678299,45.7163849 45.1907616,45.6997337 46.1041985,45.491291 
				47.0254173,45.6053047 47.9453773,45.5761299 48.861412,45.5871239 49.7782288,45.6729317 50.6970634,45.6563797 
				51.6128616,45.5277252 52.5317802,45.5848389 53.4523926,45.6361198 54.3711166,45.5163765 55.2845306,45.619133 
				56.194973,45.4546585 57.0854225,45.4703026 57.6263123,44.699791 58.033062,43.8347321 58.4362259,42.9656067 
				58.7424049,42.0395775 59.0820732,41.1268234 59.4260292,40.2217789 59.8740463,39.3426857 60.0274277,38.376873 
				60.1537361,37.4057617 60.4916191,36.484169 60.623951,35.5113564 60.8288689,34.5631828 60.9393501,33.5942688 
				60.894249,32.6164322 			"/>
		</g>
	</g>
</g>
<g>
	<polygon fill="none" stroke="#FFFFFF" stroke-width="2" stroke-linecap="round" stroke-linejoin="round" points="
		35.8631363,37.370182 35.6352234,38.3400269 35.2849617,39.2668533 34.8671837,40.160984 34.1682968,40.4197426 
		33.5374146,40.8780327 32.7807045,41.0354614 32.0715179,41.4419823 31.1389122,40.9943924 30.2389355,40.5616722 
		29.3760128,40.0754242 29.0558586,39.1716309 28.7634048,38.2414742 28.2148323,37.3717995 28.5685368,36.4145584 
		29.0188332,35.5235329 29.3197498,34.6109848 30.2385387,34.3689537 31.1562481,34.0192947 32.0805855,33.6433144 
		32.9936485,33.9913177 33.8939514,34.3402786 34.8192024,34.6306229 35.2186737,35.5240097 35.6142006,36.4165726 	"/>
</g>
<g>
	<polyline fill="none" stroke="#FFFFFF" stroke-width="2" stroke-linecap="round" stroke-linejoin="round" points="
		29.2025948,31.0286045 29.0083961,30.1312618 28.5350723,29.362978 28.1801395,28.5370846 27.6271305,27.8183079 
		27.2094078,27.019474 26.6774025,26.2832909 26.400156,25.415041 26.0270958,24.5969715 25.5595627,23.8272591 
		25.2091942,23.0021019 24.8063965,22.1971035 24.5815334,21.3113976 24.182169,20.5046844 23.5892525,19.7958164 
		23.312336,18.9279785 22.7729549,18.1949272 22.4995193,17.3254242 22.1726322,16.4827747 	"/>
</g>
<g>
	<polyline fill="none" stroke="#FFFFFF" stroke-width="2" stroke-linecap="round" stroke-linejoin="round" points="
		29.7847633,6.2525978 29.8793297,7.0222492 29.7825546,7.7871046 29.8359852,8.5588112 29.7219639,9.3252878 	"/>
</g>
<g>
	<polyline fill="none" stroke="#FFFFFF" stroke-width="2" stroke-linecap="round" stroke-linejoin="round" points="
		55.9832191,34.0072556 55.2158051,34.0005875 54.4567299,33.7981606 53.6812897,33.8877563 52.91362,33.8175964 	"/>
</g>
<g>
	<polyline fill="none" stroke="#FFFFFF" stroke-width="2" stroke-linecap="round" stroke-linejoin="round" points="
		9.1477919,33.8034935 8.375658,33.7473145 7.6161695,33.91959 6.8464284,33.9582634 6.0761552,33.9881439 	"/>
</g>
<g>
	<polyline fill="none" stroke="#FFFFFF" stroke-width="2" stroke-linecap="round" stroke-linejoin="round" points="
		12.1215458,15.6011028 12.5014191,16.2952442 13.1970263,16.695858 13.6870432,17.2916107 14.0960112,17.9631271 	"/>
</g>
<g>
	<polyline fill="none" stroke="#FFFFFF" stroke-width="2" stroke-linecap="round" stroke-linejoin="round" points="
		50.7026939,16.7368221 50.2158051,17.3305931 49.7504997,17.945013 49.1775513,18.4671917 48.5970192,18.9826679 	"/>
</g>
<g>
	<polyline fill="none" stroke="#FFFFFF" stroke-width="2" stroke-linecap="round" stroke-linejoin="round" points="
		6.8431077,26.887907 7.5439181,26.9153748 8.2551107,26.8779182 	"/>
</g>
<g>
	<polyline fill="none" stroke="#FFFFFF" stroke-width="2" stroke-linecap="round" stroke-linejoin="round" points="
		8.2659664,20.5092773 8.9114695,21.0440292 9.5776596,21.546648 	"/>
</g>
<g>
	<polyline fill="none" stroke="#FFFFFF" stroke-width="2" stroke-linecap="round" stroke-linejoin="round" points="
		17.3035412,11.0101709 17.5479012,11.7369652 17.7677689,12.4710913 	"/>
</g>
<g>
	
		<line fill="none" stroke="#FFFFFF" stroke-width="2" stroke-linecap="round" stroke-linejoin="round" x1="23.3043938" y1="8.248024" x2="23.5442276" y2="9.3151102"/>
</g>
<g>
	<polyline fill="none" stroke="#FFFFFF" stroke-width="2" stroke-linecap="round" stroke-linejoin="round" points="
		37.8042641,8.2268648 37.5596619,8.9323807 37.5802116,9.6996288 	"/>
</g>
<g>
	
		<line fill="none" stroke="#FFFFFF" stroke-width="2" stroke-linecap="round" stroke-linejoin="round" x1="44.6554604" y1="12.4302578" x2="43.8475609" y2="13.4058056"/>
</g>
<g>
	<polyline fill="none" stroke="#FFFFFF" stroke-width="2" stroke-linecap="round" stroke-linejoin="round" points="
		52.9903259,22.4809742 52.2350655,22.8260365 51.564415,23.3218441 	"/>
</g>
<g>
	<polyline fill="none" stroke="#FFFFFF" stroke-width="2" stroke-linecap="round" stroke-linejoin="round" points="
		52.8994789,28.1574287 53.682045,28.1624298 54.4646873,28.1686211 	"/>
</g>
<g>
	<polyline fill="none" stroke="#FFFFFF" stroke-width="2" stroke-linecap="round" stroke-linejoin="round" points="
		48.4001503,33.893837 48.2686882,33.1362953 48.4060059,32.3839302 48.4751968,31.6278343 48.4887581,30.8617229 
		48.1609383,30.1427517 48.2663727,29.3535099 47.9178047,28.6437683 47.9880104,27.8414879 47.4745712,27.2278671 
		47.1228638,26.5552807 46.7981377,25.8675785 46.6816483,25.0663471 46.2182732,24.4508553 45.7280006,23.8712921 
		45.2443161,23.2840977 44.6637077,22.7699203 	"/>
</g>
<g>
	<polyline fill="none" stroke="#FFFFFF" stroke-width="2" stroke-linecap="round" stroke-linejoin="round" points="
		21.5700893,26.3059959 20.9047203,26.6919117 20.3892097,27.2532692 19.8029747,27.7359257 19.155056,28.1880016 
		18.8648472,28.9287014 18.5680408,29.6377659 18.2205048,30.3237782 17.9034061,31.0213757 17.7207146,31.7636738 
		17.5868454,32.516407 17.5112438,33.2783432 17.4550591,34.0426216 	"/>
</g>
<g>
	<polyline fill="none" stroke="#FFFFFF" stroke-width="2" stroke-linecap="round" stroke-linejoin="round" points="
		19.1014614,22.2530842 18.5490131,22.961998 17.8689766,23.5580292 17.3542023,24.3005161 16.6713638,24.895752 
		16.2528992,25.7028904 15.5914459,26.3289452 15.3256998,27.2147255 14.7583218,27.9294682 14.4557323,28.7735977 
		14.1807423,29.6155567 13.9523029,30.4879951 13.7788877,31.3619194 13.5916243,32.2416115 13.5367193,33.1390457 
		13.6424437,34.04002 	"/>
</g>
<g>
	<polyline fill="none" stroke="#FFFFFF" stroke-width="2" stroke-linecap="round" stroke-linejoin="round" points="
		5.1415372,50.8609161 6.0443387,50.7389603 6.9247236,50.9518318 7.8276415,50.8043709 8.7112398,51.0181313 9.6038761,50.8743172 
		10.4930077,50.868927 11.3889704,50.9709511 12.2713966,50.7685623 13.1648073,50.6473427 14.0548906,50.8480721 
		14.9448996,50.9219551 15.8370571,50.9040184 16.7337627,50.7636986 17.619009,50.9704056 18.5128269,50.9714203 
		19.4014568,51.0341072 20.2943497,50.8928337 21.1843395,50.9098625 22.0729828,50.8753929 22.9670982,50.89571 
		23.8612461,50.9013824 24.7471962,51.0596161 25.6460342,50.8505363 26.5309086,51.0772705 27.4306259,50.93787 
		28.3122749,51.1794319 29.2072964,51.2790794 30.1019306,51.223362 30.9947491,51.2089958 31.884943,50.9916077 32.77248,51 
		33.6660881,51 34.5593987,51.1132584 35.4496002,51.2144737 36.3454132,51.1101646 37.239727,51.3308334 38.1230164,51.1065559 
		39.0206413,51.146347 39.910759,51.0819969 40.7987404,51.13274 41.6921501,51.1227646 42.5850296,51.1044502 
		43.4741821,51.0113602 44.3683014,51.0220528 45.2600098,51.1914558 46.1496315,51.2211914 47.0381889,51.3495445 
		47.9396973,51.3443451 48.8310547,51.2509956 49.7320404,51.2703934 50.6209106,51.1241302 51.5157394,51.1200981 
		52.4024582,51.338871 53.3034019,51.2522049 54.1946869,51.3195381 55.0901604,51.3394547 55.9813766,51.4801216 	"/>
</g>
</svg>
