<?xml version="1.0" encoding="utf-8"?>
<!-- Generator: Adobe Illustrator 19.1.0, SVG Export Plug-In . SVG Version: 6.00 Build 0)  -->
<svg version="1.1" id="Layer_1" xmlns="http://www.w3.org/2000/svg" xmlns:xlink="http://www.w3.org/1999/xlink" x="0px" y="0px"
	 viewBox="0 0 133.2299957 62.3600006" enable-background="new 0 0 133.2299957 62.3600006" xml:space="preserve">
<g>
	<polygon fill="none" stroke="#FFFFFF" stroke-width="2" stroke-linecap="round" stroke-linejoin="round" points="
		82.1037216,19.189127 82.9192047,19.2356892 83.7471924,19.3629074 84.5965652,19.2182636 85.4216003,19.3574142 
		86.2338181,19.6257763 87.0776215,19.5919189 87.9013901,19.7707424 88.7376785,19.77738 89.5681458,19.8704815 
		90.4104309,19.7737007 91.2443237,19.8409519 92.0844955,19.7933216 92.9139938,19.8999081 93.7535248,19.8578281 
		94.5682755,20.0487232 95.1777878,20.7234135 95.9066238,21.2963696 96.6181183,21.901926 96.6078491,22.6744118 
		96.6556702,23.4354877 96.6111755,24.1996899 96.7109756,24.9593658 96.6979752,25.722126 96.8284225,26.4774876 
		96.6764755,27.2577953 96.9777603,28.0055523 96.9753036,28.7714291 96.9532318,29.5345078 97,30.2993946 97,31.0666199 
		96.8959198,31.8283768 96.9197235,32.5928879 96.8202209,33.3561516 96.8536606,34.1472282 96.1175995,34.7599144 
		95.4461365,35.4130707 94.8695221,36.2253609 94.0343323,36.1641235 93.2542572,36.0169601 92.4693985,36.1666603 
		91.6683426,36.1185913 90.8664474,36.2284737 90.0412445,36.1042328 89.7941971,36.8598785 89.6636734,37.6296921 
		89.3684158,38.3609123 89.2467117,39.1316948 89.0780182,39.8874664 88.7642441,40.5949287 88.5935364,41.3571701 
		88.2396622,42.0989647 87.9129868,41.3228455 87.6867142,40.5538788 87.5187073,39.7688713 87.2758484,39.0208778 
		87.1384354,38.2408524 86.8106918,37.5096664 86.5455856,36.7420998 86.4551468,35.9119987 86.1269073,35.1628876 
		85.3491745,35.1322365 84.6000443,34.9082146 83.8336563,34.7691422 83.0641861,34.6345749 82.3700485,34.3208809 
		81.4941483,33.8562965 80.8411407,33.1020203 80.2116928,32.3683243 80.0582581,31.4739704 80.1309204,30.5333614 
		80.0375671,29.6012135 80.0633621,28.6656456 80.1382828,27.7269917 79.8986359,26.7939548 79.7952347,25.8705082 
		79.782692,24.9254398 79.6441422,23.9944668 79.6133652,23.0557995 79.5793304,22.1155415 79.4630737,21.1908665 
		80.0276337,20.5746479 80.7615738,20.1610813 81.4284134,19.6565876 	"/>
</g>
<g>
	<polygon fill="none" stroke="#FFFFFF" stroke-width="2" stroke-linecap="round" stroke-linejoin="round" points="
		103.5787354,59.9870071 102.5823288,59.91222 101.668129,59.7200699 100.7482452,59.6184425 99.8004684,59.6309052 
		98.8477783,59.6841125 97.9011383,59.6206741 96.9551315,59.5755234 96.0277863,59.2931404 95.0776978,59.2608986 
		94.1261215,59.3202629 93.1835327,59.1674385 92.2249756,59.2572746 91.2947464,59.0396423 90.3588028,58.868927 
		89.4074478,58.8217354 88.4767456,58.5816116 87.5196228,58.7279625 86.5806198,58.5201607 85.6309204,58.5589676 
		84.6795502,58.5996971 83.7307663,58.5372238 82.7887955,58.4421959 81.8434753,58.3595505 80.8988495,58.2706947 
		79.9674835,58.0601654 79.0120239,58.0915184 78.056076,58.1002426 77.1357117,57.8051109 76.1714096,57.8295326 
		75.242897,57.5767021 74.2740479,57.6004829 73.3050232,57.5872116 72.3311539,57.5817337 72.4506149,56.6688194 
		72.4603195,55.7536812 72.5450134,54.841362 72.4263763,53.9436684 72.3918457,53.0467415 72.6726913,52.1556702 
		72.563942,51.258667 72.4317017,50.364994 72.3188171,49.4665451 72.5847092,48.5757828 72.4415359,47.6749001 
		72.5279236,46.7803535 72.5157013,45.8867874 72.4224854,44.9899139 72.4362869,44.0927963 72.6959991,43.2073097 
		72.5900116,42.3057137 72.758255,41.4148216 72.6765671,40.516571 72.6923599,39.6193199 72.7575531,38.7240143 
		72.675827,37.822731 72.7792664,36.9304237 72.7889023,36.0337067 72.9972839,35.147316 73.0920258,34.2526894 
		72.9828262,33.3512535 72.9558182,32.4569588 72.9319687,31.5596104 73.0593567,30.659771 72.854187,29.7667503 
		72.9160156,28.8679409 72.9402008,27.9709396 73.0758362,27.083456 73.0293198,26.1706753 73.1377335,25.2844658 
		73.0460892,24.3985882 73.0667038,23.4946651 72.9730453,22.5908775 73.2116089,21.704752 73.1394882,20.7928677 
		73.4561234,19.912756 73.3580856,19.0124569 73.4256134,18.1165257 73.2185135,17.2177105 73.3330383,16.324543 
		73.3801498,15.428299 73.4479904,14.5320024 73.4079361,13.6346617 73.2595062,12.7398863 73.3204269,11.8367805 
		73.2092896,10.937459 73.240242,10.0395575 73.3249664,9.1417675 73.4797745,8.25175 73.5566788,7.3553262 73.6384048,6.457932 
		73.4669189,5.5544052 73.5088348,4.6551013 73.6254959,3.7578135 73.5967484,2.8843567 73.6655273,2.0097704 73.6325684,1.0798501 
		74.5611115,1.1362429 75.4387512,1.1808082 76.3131332,1.3193098 77.2165527,1.291693 78.1179276,1.4037195 79.0271606,1.2990903 
		79.9184799,1.4588226 80.7882767,1.7532581 81.7010193,1.8198811 82.6096344,1.8570141 83.5163574,1.8758252 84.4297485,1.6229298 
		85.3015366,1.9812758 86.2306366,1.863592 87.1087799,2.1368446 88.0169067,2.0047619 88.9173279,2.1513627 89.822464,2.1779771 
		90.7096939,2.3527954 91.6234207,2.3485973 92.4909821,2.6994765 93.4008865,2.6801252 94.3063965,2.7025125 95.2022934,2.8545678 
		96.1069717,2.6782796 97.0150833,2.7123532 97.9239883,2.761975 98.8330536,2.7149165 99.7301636,2.8368061 100.6322479,2.8944824 
		101.5262375,3.0426974 102.4231796,3.1898398 103.3269958,3.2401505 104.2417679,3.2702456 105.1426849,3.4651239 
		105.9909286,3.547797 106.1066132,4.3896594 105.9740372,5.2985196 106.1516647,6.2131424 105.8282013,7.0815892 
		105.8979111,7.9961872 105.762413,8.8834896 105.5588989,9.7686272 105.710083,10.6733847 105.7162399,11.5679808 
		105.6603241,12.4626131 105.5836945,13.364089 105.8062973,14.267643 105.6877213,15.1662922 105.5711365,16.057909 
		105.3210831,16.9336395 105.1930389,17.8227348 105.3647766,18.7319202 105.1574707,19.6188908 105.1935043,20.5164242 
		105.1395721,21.4172955 105.0998993,22.3137894 105.0986557,23.2048855 105.1768112,24.1061268 105.2051163,25.0073586 
		105.0667648,25.8971291 105.050499,26.7983932 104.8793411,27.6851501 104.7387161,28.5760727 104.7229462,29.4735699 
		104.7963333,30.3737793 104.7883377,31.270277 104.8194656,32.1710587 104.5546417,33.0624542 104.8102341,33.9563446 
		104.6934128,34.861866 104.6496658,35.759346 104.6196899,36.6496162 104.585022,37.5475388 104.6840286,38.4563446 
		104.4774551,39.3393478 104.3909378,40.2370262 104.2678757,41.1300049 104.2944565,42.025341 104.1417923,42.9177971 
		104.2874756,43.8153648 104.2705307,44.7120323 104.3331299,45.6116524 104.2751923,46.5149117 104.246109,47.4103661 
		104.1642532,48.3061829 104.2186584,49.2098618 104.0989075,50.1001129 104.0838013,50.9991837 104.1386795,51.9030571 
		103.8158188,52.7820091 103.9995193,53.6969528 103.8512115,54.587841 103.6905823,55.4791832 103.6574173,56.3793373 
		103.8141479,57.2897034 103.5466614,58.1474915 103.5938187,59.0274963 	"/>
</g>
<g>
	<polygon fill="none" stroke="#FFFFFF" stroke-width="2" stroke-linecap="round" stroke-linejoin="round" points="
		105.9114456,9.5416012 105.0667648,9.5241442 104.194397,9.5930233 103.3324814,9.4039173 102.4329605,9.3099632 
		101.5260544,9.3769999 100.6178436,9.4411345 99.7198639,9.3549194 98.8231125,9.2350769 97.9217148,9.1814537 
		97.0162888,9.1978426 96.1199265,9.0763826 95.2349472,8.8557682 94.333046,8.799613 93.4406967,8.6404181 92.5470734,8.449295 
		91.6333466,8.597312 90.7326126,8.2940168 89.8344803,8 88.9328461,8 88.0311737,8.1254435 87.136795,8.0687418 
		86.233551,8.0226536 85.3261337,8.1789408 84.4168015,8.1922703 83.5314713,7.979351 82.6448898,7.7771378 81.7309723,7.7699275 
		80.840683,7.5734396 79.9335175,7.6501842 79.0305023,7.5569692 78.1313858,7.4687605 77.2197952,7.5592585 76.312767,7.5289884 
		75.4288025,7.3185945 74.5368652,7.1745949 73.6944275,7.1167321 73.6832199,6.423068 73.667244,5.6593137 73.5497589,4.8942137 
		73.7017593,4.1266198 73.5758362,3.3488023 73.5875702,2.5680373 73.6778564,1.7838768 73.6206207,1.0816377 74.4748154,1.0985518 
		75.4038544,1.0170009 76.3186493,1.1843898 77.2322388,1.1657156 78.0945206,1.522893 79.008667,1.5376958 79.9118652,1.4531773 
		80.8158875,1.6729174 81.7144699,1.6323726 82.6238556,1.641704 83.4860535,1.9829093 84.4172668,1.8851179 85.2991486,2.0999525 
		86.202095,2.1441023 87.1003036,2.2517128 88.0045166,2.2460537 88.8979492,2.4155684 89.8010788,2.4569473 90.7000351,2.5071421 
		91.6032715,2.5365441 92.5039444,2.5697844 93.4044037,2.7472427 94.3105087,2.7274947 95.22509,2.5069621 96.1192398,2.6923876 
		96.9970779,2.972295 97.9152374,2.8808746 98.8102493,3.0412683 99.7181625,2.9504602 100.6321869,2.9037433 101.525795,3.0994055 
		102.4277267,3.201757 103.3061981,3.4993248 104.2063522,3.4389148 105.1019287,3.4406574 106.0701981,3.4553876 
		106.0446014,4.3001838 105.9067841,5.0609999 106.1114731,5.8200278 106.1429443,6.5838742 105.8767929,7.5696297 
		105.8926544,8.5642233 	"/>
</g>
<g>
	<polygon fill="none" stroke="#FFFFFF" stroke-width="2" stroke-linecap="round" stroke-linejoin="round" points="
		103.4569244,59.8543434 102.5969315,59.7861137 101.6602249,59.9521027 100.7297516,59.91185 99.7921829,59.7457466 
		98.8433304,59.7297859 97.9101639,59.5412483 96.9445496,59.5978889 96.0135651,59.3953476 95.0839767,59.1862831 
		94.1385345,59.1521149 93.1894073,59.1294174 92.2405014,59.0986824 91.3009338,58.9634857 90.3612061,58.7932129 
		89.4170303,58.7292786 88.478096,58.6404381 87.5403061,58.4958916 86.5924911,58.4067802 85.6404037,58.4279823 
		84.690094,58.4339104 83.7324829,58.5089874 82.8072433,58.2361374 81.8485107,58.2541428 80.9118652,58.1314659 
		79.9672928,58.1795578 79.0127182,57.9638405 78.0678864,57.9739151 77.1309204,57.8751831 76.194313,57.6972923 
		75.2295074,57.7414284 74.2730637,57.6804924 73.3063812,57.7365227 72.4057617,57.5109329 72.4365005,56.5998878 
		72.3816833,55.6294632 72.3801193,54.6647415 72.5009537,53.7067871 72.3193588,52.7570915 72.38974,51.797554 
		72.4502487,50.848732 72.2715683,49.8891525 72.358902,48.8977089 73.3374557,48.9935341 74.2642212,49.2352219 
		75.2205048,49.1846313 76.1600494,49.3076439 77.1040726,49.4280663 78.0626678,49.2880325 79.0069427,49.3956375 
		79.9265594,49.6838303 80.8886261,49.6043549 81.8272781,49.6703186 82.7698975,49.8816795 83.7175293,49.9470253 
		84.6706696,49.7953262 85.6177597,49.8733101 86.5652161,49.9443207 87.5071564,50.0211067 88.4606552,49.997673 
		89.3969116,50.1661987 90.3273468,50.3842812 91.2848206,50.3254623 92.2130814,50.5757103 93.1568298,50.6416359 
		94.095665,50.787571 95.060997,50.6856079 95.9978867,50.8237534 96.9518127,50.7664604 97.8839798,51.0763588 
		98.834938,51.0545006 99.7865372,51.0755157 100.7423096,51.0449944 101.6700287,51.3297081 102.6345139,51.1857834 
		103.510498,51.4459229 103.6674347,52.3431244 103.514946,53.2952385 103.5720825,54.2487793 103.4693069,55.2081985 
		103.4984589,56.1651459 103.6428528,57.1152992 103.5608749,58.0460968 103.6930161,58.9970779 	"/>
</g>
<g>
	<polygon fill="none" stroke="#FFFFFF" stroke-width="2" stroke-linecap="round" stroke-linejoin="round" points="
		55.4439545,56.0348434 54.8729744,56.7635803 54.4350777,57.5874214 54.0371361,58.4822922 53.0714951,58.7584381 
		52.1080132,58.9220581 51.1850014,59.2129822 50.2420082,59.3022804 49.2872238,59.1515198 48.3289032,59.1836662 
		47.4089813,59.4758492 46.481636,59.68647 45.5374146,59.7997818 44.5867386,59.8064079 43.6521988,59.988472 
		42.7150993,60.1861343 41.7615814,60.1557579 40.8081741,60.0792923 39.8634377,60.1982727 38.9393311,60.4042702 
		38.0077171,60.5989075 37.0612488,60.7252617 36.1144676,60.8111458 35.1636887,60.8517876 34.2056885,60.8061562 
		33.2648392,60.9185448 32.3176422,60.9986992 31.3739662,61.1436729 30.3913097,61.0449181 29.4655628,60.6903229 
		28.5454559,60.4268188 27.9389362,59.7003975 27.5133419,58.8320084 27.0234013,58.0017433 26.967905,57.0943565 
		27.12883,56.1953773 27.1034203,55.2889671 27.0794315,54.3888588 27.0538216,53.4845123 27.0810356,52.5796394 
		27.0060158,51.6800499 27.0974674,50.7731628 26.9116974,49.874527 26.9493694,48.9706955 26.8738117,48.0679016 
		26.9977531,47.1584511 26.9043884,46.2569923 26.84515,45.3518982 27.0233383,44.446312 26.9163647,43.5439682 
		26.9487209,42.6398354 27.0212421,41.737133 27.1304855,40.8382225 27.0116196,39.9261932 27.1261005,39.0223846 
		27.1291637,38.1181297 27.1714077,37.212307 27.0272255,36.3094025 27.1689777,35.4074516 27.0819206,34.5007172 
		27.0930977,33.5940857 27.1523304,32.6872253 26.9594727,31.7877483 26.8510227,30.8832226 26.9665394,29.9782677 
		26.9612408,29.072567 26.9698963,28.1671581 27.1461353,27.2721119 27.1865692,26.363739 27.0525913,25.4514866 
		27.0431404,24.5521984 27.0087337,23.6427746 27.0216389,22.7357063 27.0536613,21.8352127 27.0487137,20.9225845 
		27.283165,20.0229988 27.2376652,19.1082401 26.9012032,18.2247734 27.010437,17.3067245 27.1381493,16.4122181 
		27.1625519,15.5035725 27.0222359,14.5913191 27.1126137,13.6848974 26.9781418,12.783432 27.0496521,11.8749895 
		27.0862789,10.9743147 26.9508648,10.0517282 27.2636166,9.158082 27.0793858,8.2478838 27.1793003,7.3405666 
		27.1362667,6.4247313 27.7247753,5.6633654 28.1511822,4.8211646 28.560709,4.0253019 29.4364681,3.655031 30.396225,3.4584308 
		31.3657913,3.3027935 32.3084641,3.1896138 33.2611046,3.1421432 34.2099724,3.0704312 35.1380692,2.8825686 36.0783958,2.7635367 
		37.0055809,2.4946589 37.9636421,2.650521 38.9129944,2.4519858 39.8751755,2.7040074 40.805687,2.4590127 41.7392654,2.2767386 
		42.6900978,2.2398241 43.6326981,2.1488321 44.5749397,2.0060272 45.5307388,2.0732605 46.457489,1.8286957 47.4064369,1.7641524 
		48.3518829,1.6725652 49.3096466,1.6985599 50.2477722,1.5428922 51.1823578,1.4389887 52.0889015,1.7299957 53.0308685,1.9336953 
		53.9370804,2.1669421 54.4533043,2.9216185 55.0344658,3.6702299 55.5734711,4.460247 55.6747589,5.3734932 55.5692062,6.2794232 
		55.528511,7.1847239 55.5582771,8.0865374 55.5424576,8.9914827 55.603569,9.8953276 55.59729,10.7966003 55.4791946,11.7010365 
		55.5494308,12.60182 55.5924911,13.5086193 55.4026833,14.4040728 55.3344765,15.3140383 55.3663864,16.2241154 
		55.6205673,17.1175556 55.6167755,18.0272064 55.4907532,18.9304886 55.5692215,19.8345165 55.6295586,20.7389164 
		55.6828346,21.6430588 55.5119553,22.546217 55.6814995,23.4541779 55.521183,24.3545914 55.6013489,25.260664 
		55.4642029,26.1630669 55.4672737,27.0671654 55.4144707,27.9723606 55.5216675,28.8805256 55.3483696,29.7846718 
		55.4599113,30.6875458 55.3605118,31.5936451 55.6018829,32.4977303 55.4169273,33.4010658 55.483654,34.3083076 
		55.4037285,35.2105789 55.3923302,36.1176147 55.324749,37.0230255 55.2828751,37.9302063 55.4949265,38.8293343 
		55.5698624,39.7370872 55.5039711,40.6421051 55.3886719,41.5457878 55.3871307,42.4520073 55.4208336,43.359024 
		55.6415825,44.2537003 55.706459,45.1645584 55.4768181,46.0676727 55.6690369,46.9792252 55.6323242,47.8850937 
		55.6061325,48.7889328 55.5392227,49.6942062 55.4913445,50.5996666 55.4081535,51.5055084 55.5970802,52.4117622 
		55.4966507,53.3205986 55.5890961,54.2270813 55.5876732,55.1364212 	"/>
</g>
<g>
	<polyline fill="none" stroke="#FFFFFF" stroke-width="2" stroke-linecap="round" stroke-linejoin="round" points="
		27.0563431,10.9975996 28.0010834,10.9071722 28.9533978,10.8819332 29.8965702,10.7547617 30.8615723,10.8583174 
		31.7885513,10.5801048 32.7483711,10.6358528 33.6940346,10.5799694 34.6466408,10.5298176 35.5876045,10.3206129 
		36.5467377,10.3370991 37.4991188,10.2544003 38.4131966,9.904767 39.3657875,9.8806467 40.3222427,9.9058552 
		41.2519112,9.6338434 42.190403,9.5027809 43.1564674,9.5531597 44.0897865,9.2717943 45.0517731,9.397439 46.0085945,9.4382648 
		46.9715881,9.5019598 47.9038277,9.2557249 48.8524284,9.1557341 49.7853088,8.9454699 50.7258835,8.7959843 51.684761,8.7446795 
		52.6350632,8.6472025 53.5808983,8.5592775 54.5189209,8.3464336 55.4626579,8.1929302 	"/>
</g>
<g>
	<polyline fill="none" stroke="#FFFFFF" stroke-width="2" stroke-linecap="round" stroke-linejoin="round" points="
		27.0804768,51.6318626 28.0069885,51.403141 28.9542809,51.2766762 29.8893566,51.0349541 30.8533592,51.0844803 
		31.8140259,51.1753159 32.7473259,50.8937988 33.7210274,50.9523277 34.6451378,50.6912193 35.5935745,50.5824356 
		36.5384483,50.5235214 37.4787254,50.3369026 38.4259987,50.2257271 39.3644218,50.0244865 40.3214455,50.0424461 
		41.2872009,50.1152573 42.2026062,49.7768707 43.1787071,49.8386726 44.1055527,49.5965576 45.0438347,49.4076805 
		45.9909439,49.2782173 46.9645882,49.4639931 47.8859215,49.1185455 48.8433952,49.0980072 49.7856712,48.9559021 
		50.7377052,48.8762474 51.6969948,48.8123169 52.6261864,48.5669365 53.5667114,48.3760986 54.5347862,48.4840126 
		55.4776688,48.285984 	"/>
</g>
<g>
	<polygon fill="none" stroke="#FFFFFF" stroke-width="2" stroke-linecap="round" stroke-linejoin="round" points="
		44.4315224,55.0403061 43.7582817,55.5771751 43.1920776,56.1089516 42.4706573,56.4485741 41.8911171,57.0175171 
		41.2455826,56.5256462 40.5898705,56.0955391 39.9804344,55.6026306 39.4879036,55.0404358 40.0497513,54.5523834 
		40.691967,54.0836678 41.3146248,53.5873718 41.890892,52.9566383 42.4822121,53.5518494 43.031353,54.122242 
		43.7108841,54.5383263 	"/>
</g>
<g>
	<polyline fill="none" stroke="#FFFFFF" stroke-width="2" stroke-linecap="round" stroke-linejoin="round" points="
		78.0070801,53.432209 79.0565643,53.4952011 80.1024933,53.5764122 81.1512375,53.6085968 82.1949844,53.7195244 	"/>
</g>
<g>
	<polyline fill="none" stroke="#FFFFFF" stroke-width="2" stroke-linecap="round" stroke-linejoin="round" points="
		43.973774,5.2858591 42.921627,5.2939134 41.8675842,5.3255806 40.8682022,5.7276554 39.7917404,5.6701188 	"/>
</g>
<g>
	<polyline fill="none" stroke="#FFFFFF" stroke-width="2" stroke-linecap="round" stroke-linejoin="round" points="
		93.7051392,55.2419777 94.7585602,55.3226318 95.7868805,55.4879913 96.8252716,55.5942802 97.8740005,55.6765289 	"/>
</g>
<g>
	<polyline fill="none" stroke="#FFFFFF" stroke-width="2" stroke-linecap="round" stroke-linejoin="round" points="
		117.8761978,29.5126762 118.6689072,29.5033035 119.4477615,29.4443436 120.4236603,29.3929424 121.2063217,29.4262524 
		121.9506378,29.4453411 122.5788574,29.9185734 123.3429184,29.8199806 124.0940781,29.7726269 124.7642746,30.0114956 
		125.4400558,30.231081 126.1285934,30.1529427 126.7713623,30.4889297 127.5623932,30.1678944 128.3679047,30.0186996 
		129.2641449,30.0404167 130.1109924,29.7211933 	"/>
</g>
<g>
	<polyline fill="none" stroke="#FFFFFF" stroke-width="2" stroke-linecap="round" stroke-linejoin="round" points="
		118.1988907,21.2305088 118.8182983,21.0147724 119.4149323,20.7415333 120.0533371,20.5405731 120.6972885,20.3525581 
		121.2368317,19.9507027 121.8258667,19.6863365 122.9766006,19.2216034 	"/>
</g>
<g>
	<polyline fill="none" stroke="#FFFFFF" stroke-width="2" stroke-linecap="round" stroke-linejoin="round" points="
		117.3877487,37.4150009 117.8465424,37.9988365 118.4481735,38.3862381 119.0615082,38.3513184 119.4604568,38.8154945 
		120.5283508,39.3767776 121.6382141,40.0184708 	"/>
</g>
<g>
	<polyline fill="none" stroke="#FFFFFF" stroke-width="2" stroke-linecap="round" stroke-linejoin="round" points="
		1.987873,28.9416656 2.7645037,29 3.5475028,29 4.4803228,28.9219036 5.0383868,28.8338242 5.9431958,28.6981297 
		6.8252859,28.8085175 7.5061064,28.8240547 8.2940426,29.0644112 9.1718912,29.0312748 10.0205069,28.7365284 
		10.9036837,28.8592587 11.7197142,28.7088833 12.537571,28.7351017 13.3543434,28.7886982 	"/>
</g>
<g>
	<polyline fill="none" stroke="#FFFFFF" stroke-width="2" stroke-linecap="round" stroke-linejoin="round" points="
		13.0520353,19.5565052 12.42941,19.5660553 11.8191824,19.2075653 11.3907118,18.9104443 10.3314257,18.343977 
		9.3173227,17.6532402 	"/>
</g>
<g>
	<polyline fill="none" stroke="#FFFFFF" stroke-width="2" stroke-linecap="round" stroke-linejoin="round" points="
		14.08885,35.8639183 13.4212828,36.0251083 12.9778814,36.5328369 12.0468035,37.0282326 11.1841593,37.6239204 
		10.1809311,38.3259964 9.4931135,38.4737511 8.9425964,38.8254433 	"/>
</g>
<g>
	<g>
		<g>
			<polyline fill="none" stroke="#248FED" stroke-width="2" stroke-linecap="round" stroke-linejoin="round" points="
				46.595787,34.9794273 46.988327,35.7215881 47.0776443,36.5531311 47.2849541,37.3462067 47.611042,38.1444702 
				47.6845627,39.0241737 48.1291428,39.850029 47.3194618,39.5416565 46.7848587,38.9195023 46.0187912,38.7039986 
				45.5199623,38.0333633 44.4561157,37.8761978 43.7457657,37.1084175 42.8302422,36.6891899 			"/>
		</g>
		<g>
			<polyline fill="none" stroke="#248FED" stroke-width="2" stroke-linecap="round" stroke-linejoin="round" points="
				42.8594131,36.7569008 41.8494797,36.7776489 40.8167229,36.7096901 39.9204369,37.14254 39.2689247,36.7722435 
				38.4841919,36.6562347 37.7773933,36.391674 37.0568886,36.1094475 36.3623047,35.603302 35.7282524,35.0554771 
				34.9239426,34.6542511 34.732048,33.7242279 33.9965286,33.2054596 33.5337753,32.4282913 33.2751617,31.5536137 
				33.3370094,30.6784382 33.5533714,29.8323975 33.2648811,29.017807 33.1642303,28.1491489 33.5105515,27.3692493 
				33.7190285,26.5679016 34.0855484,25.7619019 34.3261604,24.9568729 34.6713104,24.1493702 35.5106163,23.7592049 
				35.8713264,22.9427872 36.6585503,22.6240673 37.4533653,22.2659683 38.0523224,21.645092 38.8014984,21.2666512 
				39.6650581,21.2365494 40.4304276,20.7820034 41.2866173,21.1618671 42.1277313,20.8857613 42.9763298,20.8031502 
				43.865406,20.8983994 44.5932045,21.3883591 45.2857399,21.8591385 46.0790977,22.1973171 46.5797348,22.9416828 
				47.433567,23.2477722 47.9163666,23.9871044 48.1674576,24.8743153 49.0430069,25.3006687 49.0595589,26.1998711 
				49.1047592,27.0681229 49.3273354,27.8825016 49.4616127,28.70821 49.123806,29.506176 49.3187485,30.3474331 
				49.0060768,31.1595745 48.6119957,31.9133244 48.5906296,32.8696709 47.8119698,33.3684387 47.2267075,34.0015144 
				46.6588287,34.6304741 			"/>
		</g>
	</g>
	<g>
		<g>
			<polyline fill="none" stroke="#FFFFFF" stroke-width="2" stroke-linecap="round" stroke-linejoin="round" points="
				46.595787,34.9794273 46.988327,35.7215881 47.0776443,36.5531311 47.2849541,37.3462067 47.611042,38.1444702 
				47.6845627,39.0241737 48.1291428,39.850029 47.3194618,39.5416565 46.7848587,38.9195023 46.0187912,38.7039986 
				45.5199623,38.0333633 44.4561157,37.8761978 43.7457657,37.1084175 42.8302422,36.6891899 			"/>
			<polyline fill="none" stroke="#FFFFFF" stroke-width="2" stroke-linecap="round" stroke-linejoin="round" points="
				46.595787,34.9794273 46.988327,35.7215881 47.0776443,36.5531311 47.2849541,37.3462067 47.611042,38.1444702 
				47.6845627,39.0241737 48.1291428,39.850029 47.3194618,39.5416565 46.7848587,38.9195023 46.0187912,38.7039986 
				45.5199623,38.0333633 44.4561157,37.8761978 43.7457657,37.1084175 42.8302422,36.6891899 			"/>
		</g>
		<g>
			<polyline fill="none" stroke="#FFFFFF" stroke-width="2" stroke-linecap="round" stroke-linejoin="round" points="
				42.8594131,36.7569008 41.8494797,36.7776489 40.8167229,36.7096901 39.9204369,37.14254 39.2689247,36.7722435 
				38.4841919,36.6562347 37.7773933,36.391674 37.0568886,36.1094475 36.3623047,35.603302 35.7282524,35.0554771 
				34.9239426,34.6542511 34.732048,33.7242279 33.9965286,33.2054596 33.5337753,32.4282913 33.2751617,31.5536137 
				33.3370094,30.6784382 33.5533714,29.8323975 33.2648811,29.017807 33.1642303,28.1491489 33.5105515,27.3692493 
				33.7190285,26.5679016 34.0855484,25.7619019 34.3261604,24.9568729 34.6713104,24.1493702 35.5106163,23.7592049 
				35.8713264,22.9427872 36.6585503,22.6240673 37.4533653,22.2659683 38.0523224,21.645092 38.8014984,21.2666512 
				39.6650581,21.2365494 40.4304276,20.7820034 41.2866173,21.1618671 42.1277313,20.8857613 42.9763298,20.8031502 
				43.865406,20.8983994 44.5932045,21.3883591 45.2857399,21.8591385 46.0790977,22.1973171 46.5797348,22.9416828 
				47.433567,23.2477722 47.9163666,23.9871044 48.1674576,24.8743153 49.0430069,25.3006687 49.0595589,26.1998711 
				49.1047592,27.0681229 49.3273354,27.8825016 49.4616127,28.70821 49.123806,29.506176 49.3187485,30.3474331 
				49.0060768,31.1595745 48.6119957,31.9133244 48.5906296,32.8696709 47.8119698,33.3684387 47.2267075,34.0015144 
				46.6588287,34.6304741 			"/>
			<polyline fill="none" stroke="#FFFFFF" stroke-width="2" stroke-linecap="round" stroke-linejoin="round" points="
				42.8594131,36.7569008 41.8494797,36.7776489 40.8167229,36.7096901 39.9204369,37.14254 39.2689247,36.7722435 
				38.4841919,36.6562347 37.7773933,36.391674 37.0568886,36.1094475 36.3623047,35.603302 35.7282524,35.0554771 
				34.9239426,34.6542511 34.732048,33.7242279 33.9965286,33.2054596 33.5337753,32.4282913 33.2751617,31.5536137 
				33.3370094,30.6784382 33.5533714,29.8323975 33.2648811,29.017807 33.1642303,28.1491489 33.5105515,27.3692493 
				33.7190285,26.5679016 34.0855484,25.7619019 34.3261604,24.9568729 34.6713104,24.1493702 35.5106163,23.7592049 
				35.8713264,22.9427872 36.6585503,22.6240673 37.4533653,22.2659683 38.0523224,21.645092 38.8014984,21.2666512 
				39.6650581,21.2365494 40.4304276,20.7820034 41.2866173,21.1618671 42.1277313,20.8857613 42.9763298,20.8031502 
				43.865406,20.8983994 44.5932045,21.3883591 45.2857399,21.8591385 46.0790977,22.1973171 46.5797348,22.9416828 
				47.433567,23.2477722 47.9163666,23.9871044 48.1674576,24.8743153 49.0430069,25.3006687 49.0595589,26.1998711 
				49.1047592,27.0681229 49.3273354,27.8825016 49.4616127,28.70821 49.123806,29.506176 49.3187485,30.3474331 
				49.0060768,31.1595745 48.6119957,31.9133244 48.5906296,32.8696709 47.8119698,33.3684387 47.2267075,34.0015144 
				46.6588287,34.6304741 			"/>
		</g>
	</g>
</g>
</svg>
