<?xml version="1.0" encoding="utf-8"?>
<!-- Generator: Adobe Illustrator 19.1.0, SVG Export Plug-In . SVG Version: 6.00 Build 0)  -->
<svg version="1.1" id="Layer_1" xmlns="http://www.w3.org/2000/svg" xmlns:xlink="http://www.w3.org/1999/xlink" x="0px" y="0px"
	 viewBox="0 0 45.3499985 45.3499985" enable-background="new 0 0 45.3499985 45.3499985" xml:space="preserve">
<g>
	<polyline fill="none" stroke="#FFFFFF" stroke-width="2" stroke-linecap="round" stroke-linejoin="round" points="
		20.0514641,13.7562532 19.3900185,13.5743876 18.7548428,13.7795458 18.1003819,14.012413 17.4396782,14.2551966 
		16.9143314,14.5949001 15.9653425,14.7299528 15.7450752,15.157896 15.004385,15.8282175 14.8244076,16.3886871 
		14.2008724,17.1595383 13.9664068,17.9013386 13.9217491,18.6829891 13.7843666,19.4538708 13.9855547,20.162159 
		13.805788,20.7443714 13.7182779,21.0887089 13.7372942,21.4351788 13.9061613,22.5728264 13.8085899,23.1590843 
		14.1177979,23.7018681 14.6290169,24.8300896 15.2201777,24.9461918 15.3147669,25.4153786 15.7440481,25.5438881 
		16.3014488,25.8177452 16.7874527,26.0255775 17.0762196,26.4804325 17.492836,26.4089737 17.8756256,26.8520641 
		18.4342422,26.9007282 18.8423386,26.7601929 19.1660538,27.0833263 20.089817,26.9732132 20.9866447,26.7458115 
		21.548645,26.683445 22.1793518,26.6817875 23.2798462,26.109869 23.8221455,25.6513824 24.2845726,25.1179581 
		24.6778069,24.8150005 25.3382206,24.3426876 26.1775818,23.4341145 26.2356014,23.0382767 26.400465,22.769371 
		26.8821564,22.3288383 27.0732594,22.075386 27.2351513,21.8317833 27.4410744,21.2688885 27.6703091,20.7258778 
		27.4191914,20.1650352 27.7322693,19.0823956 27.2515297,18.0077534 26.7914028,17.5548439 26.9693222,17.1275787 
		26.8711128,16.8135643 25.8725586,16.1361008 25.2908325,15.6537361 24.8034153,15.0383472 24.2130737,14.5512362 
		23.2657566,13.8516855 22.6233845,13.6378746 21.8954239,13.4488363 21.5441799,13.7061338 21.1817017,13.4889107 
		20.3727951,13.6695747 19.6525383,13.4672422 19.2858696,13.6744862 18.5303288,13.7565241 	"/>
</g>
<g>
	<polyline fill="none" stroke="#FFFFFF" stroke-width="2" stroke-linecap="round" stroke-linejoin="round" points="
		8.7760515,37.890667 9.0620604,37.0077133 9.4304867,36.1390228 10.2046995,35.5370216 10.6593351,35.0229912 
		10.9662628,34.3723412 11.7257996,33.9205933 12.4425182,33.4326553 12.9353676,33.0225754 13.5758362,32.4420013 
		14.6070528,32.2119293 15.0726223,32.1631279 15.7063637,31.7808037 16.5391846,31.1292477 17.6707153,30.942503 
		18.5048199,31.2128334 19.2039604,30.8801479 19.7557182,30.7562027 20.5695457,30.7438202 21.4093208,30.6678448 
		22.3372993,30.7177734 22.7700233,30.5949879 23.419632,30.8695641 23.8721771,30.8000278 24.2517185,31.0142269 
		25.0515633,31.5339088 25.8091812,31.7997055 26.2344875,32.0073128 26.6489086,32.2401009 27.233717,32.8251839 
		27.3686428,33.2192039 27.5943756,33.4477043 28.2896385,33.9068108 28.6177082,34.1454163 28.7094269,34.5763054 
		29.0882587,35.2202034 29.3943558,35.891819 29.7637978,36.5466461 29.9687443,37.124691 30.2964573,37.5936241 
		30.5743732,38.2687798 30.773283,39.3787651 	"/>
</g>
<g>
	<polygon fill="none" stroke="#FFFFFF" stroke-width="2" stroke-linecap="round" stroke-linejoin="round" points="
		38.4144478,19.1562862 38.6158371,20.0306168 38.7129669,20.9278927 39.041275,21.7783947 38.9383507,22.6824512 
		39.103508,23.5707836 39.166626,24.4680576 39.1147499,25.3601189 38.9052544,26.2400303 38.8304787,27.12467 
		38.8195305,28.0235519 38.5818214,28.8927307 38.6068993,29.8208332 38.0113297,30.5490303 37.7977257,31.4362411 
		37.2616043,32.1761093 37.081356,33.0732536 36.5269432,33.8047333 36.209774,34.6347389 35.6862717,35.351078 
		35.1199722,36.0483551 34.6914291,36.8460655 33.9846497,37.4043503 33.4898872,38.1782112 32.8654289,38.8390274 
		32.0381508,39.2274246 31.3320675,39.7794914 30.5661011,40.2425423 29.8132191,40.7184677 29.0159702,41.1270676 
		28.3033695,41.683651 27.4108887,41.8288803 26.5981426,42.2254601 25.7385902,42.4693871 24.876585,42.6904297 
		24.0108624,42.9059792 23.1562004,43.1665802 22.2667217,43.2299995 21.3763599,43.2883682 20.4844017,43.0921936 
		19.5947437,43.2638168 18.7163467,43.0231018 17.8229485,43.1135216 16.9534779,42.9030876 16.0637436,42.810318 
		15.1684208,42.7177582 14.3267498,42.4068451 13.5771284,41.8865738 12.6835566,41.7008171 11.9196815,41.2314911 
		11.1292629,40.8158302 10.3316584,40.4248428 9.5734892,39.9574585 8.9341478,39.3140907 8.0439997,38.9985847 
		7.4974732,38.268322 6.8766317,37.6238136 6.323101,36.9248505 5.7992468,36.2164917 5.1358743,35.5907822 4.7916346,34.7465897 
		4.2403088,34.0424957 3.8545787,33.2278061 3.398134,32.473259 2.8806772,31.7287083 2.5397573,30.8987617 2.2711444,30.0374794 
		2.2088318,29.1343784 1.8536687,28.2920113 1.7854385,27.392004 1.7579479,26.4992428 1.516695,25.6209869 1.6232717,24.7213554 
		1.4769218,23.8200302 1.7232645,22.9446754 1.7251679,22.0429897 2.0195341,21.1918182 2.1696484,20.3114033 2.2476249,19.4119377 
		2.4669468,18.5395851 2.9001977,17.7379227 3.1151659,16.8626518 3.4823616,16.0402603 3.9418814,15.268589 4.5305319,14.5757914 
		4.9067702,13.7526932 5.5820732,13.1331224 5.9733601,12.3047371 6.5732713,11.6337261 7.3265634,11.1110058 7.8689799,10.3838091 
		8.6375246,9.9222221 9.4228954,9.4833145 10.1335526,8.9338064 10.920393,8.5268116 11.6871881,8.0724525 12.4313955,7.5628133 
		13.3196888,7.3709207 14.1800785,7.1199217 14.9362307,6.6125546 15.8364429,6.5214491 16.6895065,6.2464061 17.5322952,5.8709288 
		18.4385529,5.958828 19.3324032,6.0266209 20.2243557,5.9195757 21.122076,6.0282984 22.0196323,6.0340638 22.9155922,5.8568192 
		23.7437878,6.2303958 24.6085167,6.4670658 25.4988251,6.6130052 26.2927055,7.0295482 27.1497841,7.2781754 28.006546,7.5266256 
		28.7602806,8.0203409 29.5991192,8.3407345 30.504631,8.5613823 31.1117592,9.2492571 31.8034592,9.818428 32.5014458,10.3828297 
		33.038208,11.1041527 33.642704,11.7558146 34.390583,12.2601213 34.9615402,12.9413118 35.3629494,13.7549782 
		36.0720444,14.3345633 36.4074287,15.1817741 36.8711853,15.9467278 37.4405708,16.6472569 37.7139702,17.5001068 
		37.9502068,18.3716564 	"/>
</g>
<path fill="#FFFFFF" d="M44.7375679,8.7470474l0.0203552-0.8388171c0.0056801-0.2272186-0.0686417-0.4487572-0.2101784-0.6267457
	l-0.4847336-0.609704l-0.2920723-0.7034321c-0.0246162-0.0596452-0.0549126-0.1155028-0.0908852-0.1694674l-0.4932556-0.7327814
	c-0.0686417-0.1013017-0.1557388-0.1893492-0.2565689-0.2584615l-0.6707687-0.4591718L41.605732,3.7576971l-0.6802368-0.5377517
	c-0.0894661-0.0710058-0.1902962-0.1249704-0.2982254-0.1609468l-0.8170395-0.2679291l-1.6137314-0.5955031
	c-0.1884003-0.0766864-0.3976326-0.0918343-0.596447-0.04071l-0.7360954,0.1846154L36.131176,2.290241
	c-0.0468674-0.0009468-0.092308-0.0018933-0.1386986,0.0009468l-0.8889961,0.0681658
	c-0.2068634,0.0160947-0.4028397,0.0975149-0.5600014,0.2328994l-0.5675735,0.4913611l-0.6726608,0.2783432
	c-0.0392914,0.0160947-0.0771599,0.0340829-0.1136093,0.0558579L32.4303436,3.855212
	c-0.0639038,0.0359762-0.1230736,0.0804732-0.1770401,0.1306508l-0.6494675,0.6049705
	c-0.0440235,0.04071-0.083786,0.0852075-0.1197624,0.134438l-0.4686394,0.6352663l-0.5917168,0.5320711
	c-0.1566868,0.1410651-0.263195,0.3285208-0.3034325,0.5358582l-0.1533718,0.7839055l-0.3114796,0.7318344
	c-0.0449715,0.1050887-0.0705338,0.216805-0.0762138,0.3313613l-0.1069813,1.738225
	c-0.004261,0.0634317-0.00284,0.1268644,0.0052071,0.1893492l0.2068634,1.7466869
	c0.0189342,0.1685209,0.0823669,0.3294678,0.1831951,0.4667454l0.4970417,0.6740236l0.8454437,1.4493494
	c0.0411835,0.0710068,0.0908871,0.1352072,0.1476936,0.1929588l0.60355,0.6111841
	c0.0236683,0.0236683,0.0478115,0.0456209,0.0733738,0.0664492l1.300827,1.1079292
	c0.1121902,0.0994091,0.2461548,0.1672192,0.3905334,0.2060356l0.778698,0.2018337l0.7252083,0.3231964
	c0.0520706,0.0246143,0.1060333,0.0177517,0.1614189,0.0319519l0.8407097,0.1689949
	c0.0728989,0.0198822,0.1476936-0.0728989,0.2234344-0.0710068l0.8814201-0.1855621c0.0075722,0,0.0151443,0,0.0227203,0
	c0.0984612,0,0.1959763,0.1912441,0.2897034,0.1618938l0.7133751-0.0170422l0.7346725,0.010416
	c0.1396446,0.0037861,0.2934914-0.0293503,0.4274559-0.0927811l1.5919533-0.7384624
	c0.0539665-0.0246162,0.1055641-0.0539646,0.1538467-0.088047l0.7266273-0.5084028
	c0.0899391-0.0634317,0.1685219-0.1410656,0.2324257-0.2300596l0.962841-1.3756218l0.5680466-0.5775146
	c0.1188164-0.1202364,0.2035522-0.2698221,0.2466278-0.433609l0.4321899-1.574439l0.3734894-0.7053251
	c0.090416-0.170414,0.1278114-0.3635502,0.1074562-0.5557394L44.7375679,8.7470474z M37.8296356,14.0497704
	c-0.0345573,0.003787-0.0691109,0.0056801-0.1031952,0.0056801c-0.4899406,0-0.9102936-0.3692303-0.9633141-0.867219
	l-0.0724258-0.6863909l-0.175148-0.6475735c-0.0246162-0.090888-0.0359764-0.1846161-0.0331345-0.2783432l0.087101-1.4968052
	l-0.0449715-0.696805c-0.0028419-0.0435505-0.0023689-0.086154,0.000473-0.1297045l0.0099983-0.1440239l-0.1557961,0.1355038
	L36.035553,9.8055086c-0.1827202,0.2991724-0.5013008,0.4639063-0.8279305,0.4639063
	c-0.1723061,0-0.346981-0.0454445-0.5046158-0.1420126c-0.4568024-0.2792892-0.600708-0.8766861-0.3214188-1.3330173
	l0.4213028-0.6892309c0.0515976-0.0842609,0.1159744-0.1609473,0.1907692-0.2262726l0.5453262-0.4743195l0.3436661-0.394793
	l0.182251-0.5765681c0.1614189-0.5112429,0.7086372-0.7971601,1.216568-0.6324263
	c0.1861534,0.0586982,0.3278084,0.1791124,0.4430771,0.3196449c0.0029564,0.0003548,0.0055618-0.0010061,0.0085182-0.0005918
	c0.531601,0.0653253,0.9093513,0.5491123,0.8440247,1.0802369l-0.08284,0.6702962l0.0184631,0.6788163L38.4634819,9.319828
	l0.0459175,0.7100601c0.003315,0.0511236,0.0023689,0.1022482-0.0023651,0.1533728l-0.0833168,1.300828l0.1585808,0.5860357
	c0.0132561,0.0492315,0.0227242,0.0994081,0.0284042,0.1505327l0.0809441,0.7630768
	C38.7479782,13.5158052,38.3621826,13.9939127,37.8296356,14.0497704z"/>
</svg>
