<?xml version="1.0" encoding="utf-8"?>
<!-- Generator: Adobe Illustrator 19.1.0, SVG Export Plug-In . SVG Version: 6.00 Build 0)  -->
<svg version="1.1" id="Layer_1" xmlns="http://www.w3.org/2000/svg" xmlns:xlink="http://www.w3.org/1999/xlink" x="0px" y="0px"
	 viewBox="0 0 85.0400009 59.5299988" enable-background="new 0 0 85.0400009 59.5299988" xml:space="preserve">
<g>
	<polyline fill="none" stroke="#FFFFFF" stroke-width="2" stroke-linecap="round" stroke-linejoin="round" points="
		39.8870926,19.8748264 40.7951241,19.9259548 41.7035141,19.9101601 42.609333,19.8283787 43.5213509,19.7882481 
		44.4147797,20.0483456 45.3324738,19.9408302 46.2352371,20.0107727 47.1427231,20.07757 48.0526276,20.0845451 
		48.9492073,19.8916721 49.8578186,19.8157005 50.7744293,19.9104843 51.6770325,19.863739 52.5917778,19.7883396 
		53.4948273,19.9292393 54.400528,19.9575329 55.3060341,20.0973263 56.2166252,19.9334373 57.1264725,20.0473289 
		58.0281868,19.851984 58.9403114,20.021843 59.8395042,20.0658855 60.748661,20.075573 61.6592789,19.9698467 
		62.5699463,19.981451 63.4721565,19.8289928 64.3850632,19.8095188 65.2904129,19.6496334 66.1982117,19.8338375 
		67.1030731,19.9073029 68.009346,19.9127579 68.9166794,19.9956436 69.8317261,19.9445095 70.738472,19.9180679 
		71.6509018,19.9914455 72.5607376,19.9742088 73.4674301,19.8584099 74.3778915,19.8734207 75.2884827,19.9180527 	"/>
</g>
<g>
	<polyline fill="none" stroke="#FFFFFF" stroke-width="2" stroke-linecap="round" stroke-linejoin="round" points="
		39.8752632,23.9183826 40.8144302,23.8991451 41.7351494,24.1113358 42.67873,24.0782413 43.5979729,23.8846416 
		44.5451355,23.9725075 45.4741287,23.9491291 46.3993912,23.8541222 47.3328781,23.8419037 48.2662277,23.8286228 
		49.1917534,23.9988575 50.1262398,23.9108601 51.0565948,23.9948177 51.9852753,24.0746384 52.9230309,23.8962727 
		53.8528938,24.0264359 54.7853203,24.0985222 55.7134628,23.9387264 56.6464653,23.9356003 57.5767899,23.9300671 
		58.5102234,23.953228 59.4417534,23.9432735 60.3683777,24.0543461 61.3084259,23.8534698 62.238369,23.9896297 
		63.1696815,24.0669498 64.1008301,23.8297348 65.0365143,23.8493557 65.9693756,23.8556976 66.8942566,24.0780659 
		67.8277588,24.0380974 68.7488708,23.8606358 69.6895294,23.8982868 70.6267624,23.9092789 71.5541992,23.7884102 
		72.486496,23.7185841 73.4225769,23.7100487 74.3467941,23.9861641 75.2872543,23.8420734 76.2226257,23.8407307 
		77.15522,23.8918209 78.0827408,24.0827866 79.02034,24.1188583 79.9576263,24.1650772 80.8834534,23.8828812 
		81.8215561,23.9376736 	"/>
</g>
<g>
	<polyline fill="none" stroke="#FFFFFF" stroke-width="2" stroke-linecap="round" stroke-linejoin="round" points="
		39.8811684,27.9899311 40.7683105,28.0456753 41.6656189,27.9376602 42.5526581,27.9103699 43.4370155,27.9390068 
		44.3320084,28.0005131 45.2197609,27.9199409 46.1058578,28.0413094 46.9979935,27.9019814 47.8877411,27.9452648 
		48.7737083,27.8555584 49.6645737,27.8311577 50.5591888,27.9696026 51.4432373,27.8183784 52.3319092,27.7516575 
		53.2206879,27.8488827 54.1109467,27.8761463 55.0016632,27.9302158 55.8859596,28.1437168 56.7753944,27.9946537 
		57.6672134,27.9875793 58.5565491,27.8843098 59.4461861,27.8989449 60.3374176,27.9451809 61.2286224,27.8890629 
		62.1172485,27.9409904 63.0088501,27.9258556 63.8994217,27.9466667 64.786293,27.818491 65.6842575,27.9968109 
		66.5762329,27.8684044 67.4681015,28 68.3632889,28 69.2540894,28.0305061 	"/>
</g>
<g>
	<polyline fill="none" stroke="#FFFFFF" stroke-width="2" stroke-linecap="round" stroke-linejoin="round" points="
		15.9759102,7.9614058 15.0296106,7.9286456 13.917634,8.129055 13.6171093,8.5454063 12.9306135,8.7930517 12.7086096,8.9909735 
		12.103447,9.4808617 11.8989592,9.8870382 11.5012188,10.5417347 11.2357121,11.7311201 11.0711937,12.3161345 
		11.2112999,12.8555908 11.2580099,13.339138 11.010232,13.5853157 10.8671455,13.886137 11.0088997,14.7837105 
		10.9152784,15.2815514 11.4564943,15.5887127 12.0203419,16.3219166 12.104948,16.8006706 12.4042292,16.8535137 
		12.6934004,17.0588341 13.0550251,17.3965855 13.5674009,17.3440933 13.8477411,17.6139603 13.9856787,17.9323177 
		14.4072523,17.6903591 14.8044796,18.0337849 15.090847,17.9155884 15.3230534,18.3189449 16.0704155,18.1963291 
		16.7899303,18.1769772 17.2847881,18.1682644 17.5377464,17.6440849 18.4116764,17.2851715 19.3868847,16.8209324 
		19.7619629,16.6449223 20.259819,16.2110519 20.8986378,15.4856482 20.8737373,15.1366577 20.9590816,14.8725929 
		21.3398724,14.5491829 21.512146,14.37959 21.6714649,14.1812992 21.8304291,13.7414198 21.9440212,13.3227987 
		21.8873653,12.8843508 21.9444275,12.0328112 21.8240376,11.122304 21.5557499,10.709198 21.4280357,10.5058565 
		21.4358807,10.2221365 20.7381287,9.5850916 19.9786663,9.0851469 19.2320499,8.5657854 18.552496,7.9507103 18.0304089,7.821825 
		17.5071487,7.6711245 17.2124062,7.7647543 16.9012241,7.8240547 16.2867336,7.5154014 15.7562008,7.9226894 15.4327259,7.7124968 
		14.8690424,7.9126763 	"/>
</g>
<g>
	<polyline fill="none" stroke="#FFFFFF" stroke-width="2" stroke-linecap="round" stroke-linejoin="round" points="
		7.1831145,26.7548084 7.5443683,26.1215916 7.9177842,25.506176 8.1648636,24.7621441 9.1110888,24.2100849 9.6925192,23.8422318 
		10.127161,23.3319855 10.5228586,23.0222836 10.9634962,22.4855022 11.7935772,22.2907982 12.0932035,22.1332035 
		12.5438175,21.7519131 13.3301182,21.749424 14.132184,21.1962166 14.7930918,21.3444958 15.3242922,21.0759411 
		15.7984352,21.1658821 16.4451733,21.0276375 17.0938911,20.9562378 17.8030357,21.3107395 18.1590481,21.0527954 
		18.687685,21.1952 19.0085869,21.3094158 19.3131485,21.3802261 20.0096359,21.6388779 20.6436348,21.8356056 
		20.7866192,22.2443581 21.1406898,22.5400333 21.8010597,22.6103764 21.9971008,22.9425945 22.0396938,23.2012672 
		22.2737808,23.7735386 22.5557556,23.9339867 22.7090759,24.2460823 23.2709637,25.2455502 23.5926418,25.7015343 
		23.7378941,26.212635 23.987751,26.5565815 24.073103,27.0973759 24.5856113,27.864584 	"/>
</g>
<g>
	<polygon fill="none" stroke="#FFFFFF" stroke-width="2" stroke-linecap="round" stroke-linejoin="round" points="
		30.1106281,12.1798277 30.325243,13.1010952 30.6800957,14.0014086 30.894701,14.9350567 30.8936005,15.898489 
		31.0639324,16.8580246 31.0653667,17.832119 30.8112774,18.7695065 30.4329891,19.6715412 30.431366,20.6733837 
		29.8637218,21.4817638 29.4709873,22.3582535 29.2451954,23.3107338 28.6310158,24.065836 28.0724354,24.8535805 
		27.6348495,25.7070522 26.9816456,26.4052868 26.3393898,27.1293869 25.5839043,27.7312622 24.8043804,28.286274 
		23.9206467,28.6873837 23.1381664,29.2408829 22.2615299,29.6086006 21.3654556,29.9482956 20.4651165,30.2532692 
		19.5737209,30.6156445 18.6006012,30.6415138 17.686058,30.961174 16.7266541,31.0420132 15.7665424,31.1021252 
		14.8100119,30.9048672 13.841629,30.9011288 12.8838892,30.7738914 11.9193907,30.6063309 11.0311184,30.1931076 
		10.1215038,29.8612156 9.2702675,29.3854713 8.4920101,28.8136482 7.6959434,28.2640114 6.7965984,27.8449192 
		6.1527238,27.1086712 5.5951214,26.2985764 4.7585139,25.7572536 4.2096815,24.9527206 3.6427498,24.1670513 3.1738954,23.3114662 
		2.9418411,22.3733768 2.6232543,21.4616966 2.3194947,20.5451698 2.0379741,19.6271744 1.7245606,18.715538 1.661092,17.7490368 
		1.7086513,16.8021317 1.7232339,15.8375406 1.6067163,14.8669167 1.7095176,13.9061604 2.1043372,13.0048265 2.1311738,12.018918 
		2.4958906,11.1233902 3.0816283,10.336051 3.4367442,9.4463263 3.9722185,8.6532125 4.3106718,7.7345839 4.9361787,6.9966908 
		5.5775933,6.2849517 6.2806144,5.6216097 6.8740578,4.8414078 7.7904592,4.4809127 8.4835281,3.7664716 9.3639708,3.3516159 
		10.3207254,3.1855662 11.1522055,2.665808 12.0532732,2.3241651 13.0199795,2.2664831 13.9259481,1.9451771 14.8671122,1.7742714 
		15.8409967,1.8201239 16.7891731,1.5615174 17.7577477,1.5949935 18.6920166,1.8192905 19.6351299,2.0376058 20.5485268,2.3466487 
		21.4293613,2.7070293 22.3006973,3.1132529 23.2721195,3.3161275 24.0034657,3.9671803 24.7673664,4.5546188 25.5926495,5.0391045 
		26.3591919,5.6227479 26.9980984,6.3559432 27.7700386,6.948071 28.2618313,7.7790079 28.7137203,8.6324663 29.1199245,9.5080967 
		29.5447464,10.359992 29.8352165,11.2690859 	"/>
</g>
<g>
	<polygon fill="none" stroke="#FFFFFF" stroke-width="2" stroke-linecap="round" stroke-linejoin="round" points="
		82.6025314,42.5086174 82.1682968,43.088459 81.7210007,43.66782 81.4036179,44.3619843 80.6588974,44.4214745 
		79.9724731,44.68787 79.2469025,44.7637444 78.3099518,44.6456413 77.3961182,44.8982239 76.4655151,44.8575172 
		75.5447845,44.7842827 74.6187668,44.7454414 73.6903,44.6857834 72.7693939,44.9513206 71.8405991,44.8392754 
		70.9174728,44.9504738 69.9870377,44.7825546 69.063858,44.893322 68.1419907,44.8756104 67.2063751,44.9725494 
		66.282753,44.8542099 65.3635178,44.6697769 64.4436569,44.8465347 63.5139694,44.7887497 62.5823021,44.6968231 
		61.6610832,44.8077774 60.7325935,44.81427 59.8104362,44.9840584 58.8902016,44.8408661 57.9549866,44.9307289 
		57.0355797,44.6913872 56.1124001,44.8404808 55.189167,44.9427147 54.2591476,45.0235291 53.3334045,44.9114151 
		52.4163132,44.6903572 51.4851723,44.7295418 50.5582848,44.7140999 49.6361275,44.8144684 48.7129822,44.8901176 
		47.789402,44.9692345 46.8647423,44.880352 45.9395981,44.8254509 45.0148506,44.9421883 44.0881081,44.9698792 
		43.1618958,44.8381081 42.2347755,44.7599297 41.3102074,44.8199692 40.3859291,44.8467026 39.4650574,45.0941887 
		38.5371132,44.9117088 37.6110344,44.8868484 36.6867714,45.0125771 35.7604675,45.0202866 34.8395119,44.8564568 
		33.9045563,44.9195557 32.9752083,44.8580818 32.0568962,44.7079735 31.1398048,44.8397293 30.2037697,44.8346939 
		29.2801762,44.9527054 28.3519421,44.9044914 27.435461,44.707653 26.5038757,44.5560303 25.573555,44.6926384 
		24.6439133,44.725399 23.7240009,44.9122276 22.7985649,44.8139267 21.8704929,44.9650459 20.9428577,44.7496414 
		20.018446,44.799984 19.0936012,44.8867264 18.1660595,44.9742165 17.2401562,44.8813629 16.3071785,44.877037 
		15.3894529,44.6675072 14.4623919,44.6331673 13.5344114,44.6158791 12.6105022,44.8173103 11.6853838,44.8258743 
		10.7579031,44.8520012 9.832263,44.9164162 8.9067669,44.9536209 7.9731131,44.8775826 7.0432463,44.8308029 6.1198916,44.7860565 
		5.1862831,44.996006 4.2686915,44.8028641 3.5836873,44.617569 2.8930082,44.4100876 2.1618633,44.2339783 1.6357402,43.3517799 
		1.0093263,42.5639229 1.0153459,42.4805832 1.6814579,41.7070808 2.2774899,40.9237061 2.847966,40.4920654 3.5476997,40.3160744 
		4.2754211,40.3122063 5.1837692,40.1778221 6.1061711,40.3205719 7.0349488,40.2973137 7.9552002,40.1420135 8.8874741,40.2649536 
		9.8080959,40.069191 10.7323561,40.0639381 11.6633015,40.2133446 12.584444,40.2014885 13.5148945,40.0338478 
		14.4344778,40.2016182 15.3615913,40.2244301 16.2902966,40.2837524 17.2070885,40.0476189 18.1386623,40.117485 
		19.0615807,40.1045609 19.9881535,40.0705948 20.9145546,40.0759621 21.8398876,40.0544281 22.7629852,40.2083168 
		23.6901226,40.2620659 24.6136703,40.1722794 25.5429001,40.2925072 26.4656277,40.1719894 27.3846912,40.2758942 
		28.3182659,40.1931152 29.2434673,40.2291908 30.1636829,40.3679962 31.0903282,40.2786903 32.0153885,40.3156853 
		32.9342232,40.2063789 33.8562355,40.100029 34.7864609,40.0978241 35.7082748,39.9872513 36.6372643,40.1472244 
		37.5609589,40.1515083 38.4886932,40.0178947 39.4083519,40.2428932 40.3402481,40.0964928 41.261013,40.3094635 
		42.1877899,40.0606117 43.1118889,40.1241875 44.037838,40.1851006 44.9634743,40.1246567 45.8905945,40.0520287 
		46.8191261,40.0618591 47.7442589,40.1361084 48.6653938,40.2863808 49.5874863,40.1516724 50.515152,40.1483231 
		51.44104,40.0581017 52.3694344,40.2609825 53.294281,40.1549988 54.2210884,40.1962891 55.145401,40.0223351 
		56.0718002,40.1561317 56.9985008,40.1267853 57.923584,40.1359291 58.8482552,40.0013008 59.7779617,40.0864143 
		60.7028618,40.1529045 61.6302414,40.1434212 62.557209,40 63.4895439,40 64.4180832,40.1018486 65.3342285,40.294384 
		66.258728,40.3437767 67.1846313,40.2736816 68.1120758,40.1999359 69.0396881,40.15765 69.9643173,40.3116837 
		70.8924942,40.3585663 71.8189697,40.3035202 72.7408752,40.153862 73.6742249,40.2182312 74.5994339,40.2701073 
		75.5284424,40.2510262 76.4574661,40.0947762 77.3786163,40.2774124 78.3162003,40.1323547 79.2336349,40.3379784 
		79.9833832,40.2834892 80.7037048,40.4466209 81.3568573,40.7008629 81.8577957,41.5975456 82.3365402,42.5491371 	"/>
</g>
<g>
	<polygon fill="none" stroke="#FFFFFF" stroke-width="2" stroke-linecap="round" stroke-linejoin="round" points="
		82.5014954,55.3956032 81.9240494,56.2693329 81.3939896,57.2008705 80.6671448,57.4229965 79.970108,57.6450539 
		79.2408371,57.7525215 78.3219223,57.6384125 77.3973465,57.5592384 76.4674683,57.5074196 75.5415192,57.586937 
		74.6136169,57.548584 73.6899567,57.7811661 72.7688828,57.5344086 71.8377457,57.7595215 70.915657,57.5608139 
		69.9895706,57.7068405 69.065773,57.5487366 68.141655,57.6173706 67.2023468,57.5244408 66.2968979,57.82584 
		65.3680038,57.9650612 64.4397888,57.793911 63.5114861,57.9396095 62.58498,57.9101982 61.6638069,57.7636719 
		60.7350273,57.8197403 59.8065453,57.8525047 58.8824654,57.8249855 57.9640083,57.5663948 57.0369453,57.7300148 
		56.1218872,57.8334923 55.1870651,57.7925034 54.2593269,57.8889084 53.3265457,57.8634224 52.3991737,57.792942 
		51.4863472,57.4962044 50.565918,57.688652 49.6422043,57.769207 48.717041,57.8687973 47.7915192,57.8929253 
		46.8661346,57.9145584 45.9342422,57.9402466 45.0222168,57.6443405 44.0800514,57.7484207 43.1617203,57.5082016 
		42.2389984,57.6578484 41.3032074,57.6471214 40.388134,57.8386993 39.4592209,57.794445 38.5298767,57.7237358 
		37.6112099,57.5467606 36.6883545,57.662014 35.7614555,57.5926247 34.8324814,57.4747353 33.9077187,57.5415077 
		32.9816284,57.6006355 32.0568237,57.6919937 31.1335888,57.6415558 30.2087135,57.5658798 29.2806091,57.5463562 
		28.3569183,57.6625977 27.4287014,57.5963554 26.4999981,57.5816612 25.5706825,57.5994415 24.6476803,57.7254333 
		23.7232513,57.8995934 22.8005905,58 21.8673038,58 20.9417381,57.7839699 20.020071,57.6637611 19.0946789,57.55159 
		18.1678982,57.6186905 17.2440262,57.6403809 16.3157825,57.6171341 15.3848095,57.5580101 14.4644947,57.711628 
		13.5304918,57.6788673 12.608963,57.8171539 11.6811562,57.8359566 10.7525616,57.806488 9.828846,57.6496582 
		8.8972025,57.6327095 7.9740558,57.7955704 7.0457196,57.7171021 6.1207194,57.7154274 5.1793852,57.7924309 4.2694483,57.5444489 
		3.2293921,57.3216667 2.162266,57.1282158 1.6185691,56.190815 0.9318542,55.3807793 1.1331717,55.3972244 1.5697117,54.4876709 
		2.2584703,53.7707253 2.9320788,53.5864792 3.5346923,53.105751 4.273633,53.0563622 5.1829543,52.9260178 6.1091933,52.8405075 
		7.0367365,52.8711548 7.9609365,52.9355087 8.8891935,52.9124184 9.8115444,53.0074921 10.7322311,52.9515686 
		11.6589098,52.9687386 12.5887032,52.8923492 13.5056305,53.1257515 14.4384556,53.0920868 15.361166,53.1213455 
		16.2819157,53.0813599 17.2073116,52.9946709 18.1395893,53.0958633 19.0557156,53.1322594 19.981926,53.1807976 
		20.916729,53.0224571 21.8373852,53.1134987 22.7638226,53.1026154 23.6902409,53.1364937 24.6136112,53.1743355 
		25.5399075,53.1632195 26.4662895,53.0180092 27.3888912,53.0395546 28.314846,53.0521393 29.2395859,53.0180168 
		30.1639919,53.1053276 31.0870552,52.9626732 32.0184784,53.1706696 32.939827,53.0886345 33.8598328,52.9309845 
		34.7878685,52.9148674 35.7050858,53.1271248 36.6337852,53.1040077 37.5626221,53.0639877 38.4851112,53.1590538 
		39.4120789,53.1251755 40.3384743,53.1128159 41.2569427,52.9854584 42.1808739,52.9066086 43.1123085,53.0821381 
		44.0428925,52.9365349 44.9689407,53.001812 45.8859177,53.2795944 46.8136978,53.0839272 47.7392502,53.2870941 
		48.6656151,53.0756493 49.5897446,53.0860519 50.5167961,53.0951881 51.4436569,53.1961594 52.3674583,53.1816711 
		53.2952499,53.1303787 54.2190094,53.1224289 55.1526718,53.2583885 56.0658531,52.9858894 57.0046654,53.1423111 
		57.9245605,53.0254517 58.8510742,52.9719276 59.7767181,52.9747467 60.7114563,52.9062157 61.6404076,52.9666786 
		62.5548325,53.2311172 63.4815941,53.2285461 64.4063034,53.0904884 65.3327637,53.0957146 66.2578354,53.1323853 
		67.1844635,53.0480576 68.1156921,53.2476501 69.0337677,52.9976082 69.9698334,53.1599731 70.8875427,52.8586388 
		71.8143845,52.8531761 72.7421875,52.8447914 73.6725159,52.8733482 74.6022415,52.8638725 75.5289612,52.9650383 
		76.4567337,53.0354385 77.3836365,52.9870453 78.3124847,53.0274239 79.2451096,53.0305748 79.9315948,53.250679 
		80.5787811,53.583149 81.3136292,53.6922455 81.9393463,54.560421 82.6625061,55.3473091 	"/>
</g>
</svg>
