<?xml version="1.0" encoding="utf-8"?>
<!-- Generator: Adobe Illustrator 19.1.0, SVG Export Plug-In . SVG Version: 6.00 Build 0)  -->
<svg version="1.1" id="Layer_1" xmlns="http://www.w3.org/2000/svg" xmlns:xlink="http://www.w3.org/1999/xlink" x="0px" y="0px"
	 viewBox="0 0 76.5400009 53.8600006" enable-background="new 0 0 76.5400009 53.8600006" xml:space="preserve">
<g>
	<g>
		<g>
			<polyline fill="none" stroke="#248FED" stroke-width="2" stroke-linecap="round" stroke-linejoin="round" points="
				7.6520066,39.5712242 7.1194592,40.1604805 6.5719161,40.7119026 6.140388,41.3883896 5.8793063,42.1652489 
				5.2645926,42.6720467 4.8177514,43.3006783 4.1641378,43.7788429 3.7167358,44.4629402 3.5559156,45.2939873 
				2.8083663,45.6576614 2.66134,46.4952354 2.1938474,46.859127 2.7388079,46.6539536 3.5198028,46.7758827 4.3079696,46.8390656 
				5.0881534,46.7564354 5.8359513,46.4923172 6.6126266,46.3221169 7.4178138,46.3644485 8.196312,46.2214432 8.955986,45.9446449 
				9.7743158,45.92276 10.5585718,46.0111885 11.3013077,45.6455421 			"/>
		</g>
		<g>
			<polyline fill="none" stroke="#248FED" stroke-width="2" stroke-linecap="round" stroke-linejoin="round" points="
				11.4910994,45.7973862 11.8705368,46.542141 12.4171171,47.2130203 12.9204206,47.8915634 13.5587854,48.4164124 
				14.3405933,48.8374634 14.7631531,49.6309319 15.4336185,50.1865158 16.2471924,50.5206871 17.1406765,50.5966492 
				17.8998241,51.0055885 18.6251259,51.4437866 19.387537,51.8406372 20.2389584,52.0370522 21.0990715,52.0125122 
				21.9621124,51.8482666 22.7849064,52.188839 23.607748,52.3509445 24.4678078,52.1924553 25.3867855,52.3504028 
				26.2570362,52.0896339 27.1415863,51.8557854 28.0711174,51.9190559 28.9424686,51.6271019 29.8125305,51.3811417 
				30.706274,51.2019463 31.5520477,50.8172722 32.3541718,50.3528404 33.0274925,49.7635727 33.7681999,49.2345581 
				34.5875359,48.828373 35.2292099,48.1786499 35.6706734,47.3479156 36.412426,46.8020782 37.1268463,46.2508583 
				37.677845,45.53265 38.3518944,44.9116402 38.7967415,44.1003647 39.0875435,43.2178993 39.7825394,42.5835838 
				40.1694374,41.7572632 40.4568443,40.8871346 40.7697716,40.0412865 41.0480881,39.1674728 41.0682755,38.2475967 
				41.278511,37.3562164 41.2886963,36.4490013 41.2386398,35.544342 41.2450409,34.6579819 41.1989479,33.7571106 
				41.2705307,32.8360214 41.4829025,31.9137344 41.0034485,31.0753269 40.9579315,30.1487007 40.9530907,29.2246284 
				40.6966362,28.334095 40.0856018,27.5962753 39.9485054,26.6447067 39.5824471,25.7564144 38.757637,25.2405643 
				38.4550438,24.3467121 38.0011024,23.5408669 37.3846893,22.8849773 36.9184036,22.0671234 36.1430092,21.5539627 
				35.5139771,20.8666153 34.7655869,20.339159 33.9810104,19.8940163 33.1125259,19.5376492 32.4362183,18.9137001 
				31.6196461,18.5528717 30.7607861,18.2453651 29.914257,17.8913116 29.0588722,17.6107159 28.1454697,17.5120716 
				27.2823372,17.2741032 26.381424,17.0661583 25.5212021,16.7501087 24.5997601,16.8680477 23.6382656,16.655098 
				22.7327747,16.9765511 21.8212528,17.1839581 20.901125,17.2027225 19.9952736,17.4225636 19.034729,17.4533005 
				18.2388363,17.9762974 17.3073864,18.1611271 16.4512978,18.5665131 15.5824823,18.9364643 14.9280987,19.6162395 
				14.2163181,20.2263508 13.4439373,20.7103748 12.6484766,21.1783161 12.0462904,21.8821926 11.3791447,22.4782143 
				10.8091393,23.2096558 10.0291805,23.7306614 9.3177147,24.3588066 8.7849302,25.113699 8.3609715,25.9657688 
				8.2764502,26.9398365 7.6140904,27.6615448 7.5777979,28.600071 7.1834683,29.4776478 7.2583642,30.4251804 
				6.8836555,31.3094711 7.1031489,32.2562447 6.8611836,33.1628265 7.0569277,34.0922585 6.8005099,35.0176697 
				6.905714,35.9526825 7.2090888,36.8523827 7.2024393,37.8020859 7.6244473,38.6502991 8.0859957,39.4706459 			"/>
		</g>
	</g>
	<g>
		<g>
			<polyline fill="none" stroke="#FFFFFF" stroke-width="2" stroke-linecap="round" stroke-linejoin="round" points="
				7.6520066,39.5712242 7.1194592,40.1604805 6.5719161,40.7119026 6.140388,41.3883896 5.8793063,42.1652489 
				5.2645926,42.6720467 4.8177514,43.3006783 4.1641378,43.7788429 3.7167358,44.4629402 3.5559156,45.2939873 
				2.8083663,45.6576614 2.66134,46.4952354 2.1938474,46.859127 2.7388079,46.6539536 3.5198028,46.7758827 4.3079696,46.8390656 
				5.0881534,46.7564354 5.8359513,46.4923172 6.6126266,46.3221169 7.4178138,46.3644485 8.196312,46.2214432 8.955986,45.9446449 
				9.7743158,45.92276 10.5585718,46.0111885 11.3013077,45.6455421 			"/>
			<polyline fill="none" stroke="#FFFFFF" stroke-width="2" stroke-linecap="round" stroke-linejoin="round" points="
				7.6520066,39.5712242 7.1194592,40.1604805 6.5719161,40.7119026 6.140388,41.3883896 5.8793063,42.1652489 
				5.2645926,42.6720467 4.8177514,43.3006783 4.1641378,43.7788429 3.7167358,44.4629402 3.5559156,45.2939873 
				2.8083663,45.6576614 2.66134,46.4952354 2.1938474,46.859127 2.7388079,46.6539536 3.5198028,46.7758827 4.3079696,46.8390656 
				5.0881534,46.7564354 5.8359513,46.4923172 6.6126266,46.3221169 7.4178138,46.3644485 8.196312,46.2214432 8.955986,45.9446449 
				9.7743158,45.92276 10.5585718,46.0111885 11.3013077,45.6455421 			"/>
		</g>
		<g>
			<polyline fill="none" stroke="#FFFFFF" stroke-width="2" stroke-linecap="round" stroke-linejoin="round" points="
				11.4910994,45.7973862 11.8705368,46.542141 12.4171171,47.2130203 12.9204206,47.8915634 13.5587854,48.4164124 
				14.3405933,48.8374634 14.7631531,49.6309319 15.4336185,50.1865158 16.2471924,50.5206871 17.1406765,50.5966492 
				17.8998241,51.0055885 18.6251259,51.4437866 19.387537,51.8406372 20.2389584,52.0370522 21.0990715,52.0125122 
				21.9621124,51.8482666 22.7849064,52.188839 23.607748,52.3509445 24.4678078,52.1924553 25.3867855,52.3504028 
				26.2570362,52.0896339 27.1415863,51.8557854 28.0711174,51.9190559 28.9424686,51.6271019 29.8125305,51.3811417 
				30.706274,51.2019463 31.5520477,50.8172722 32.3541718,50.3528404 33.0274925,49.7635727 33.7681999,49.2345581 
				34.5875359,48.828373 35.2292099,48.1786499 35.6706734,47.3479156 36.412426,46.8020782 37.1268463,46.2508583 
				37.677845,45.53265 38.3518944,44.9116402 38.7967415,44.1003647 39.0875435,43.2178993 39.7825394,42.5835838 
				40.1694374,41.7572632 40.4568443,40.8871346 40.7697716,40.0412865 41.0480881,39.1674728 41.0682755,38.2475967 
				41.278511,37.3562164 41.2886963,36.4490013 41.2386398,35.544342 41.2450409,34.6579819 41.1989479,33.7571106 
				41.2705307,32.8360214 41.4829025,31.9137344 41.0034485,31.0753269 40.9579315,30.1487007 40.9530907,29.2246284 
				40.6966362,28.334095 40.0856018,27.5962753 39.9485054,26.6447067 39.5824471,25.7564144 38.757637,25.2405643 
				38.4550438,24.3467121 38.0011024,23.5408669 37.3846893,22.8849773 36.9184036,22.0671234 36.1430092,21.5539627 
				35.5139771,20.8666153 34.7655869,20.339159 33.9810104,19.8940163 33.1125259,19.5376492 32.4362183,18.9137001 
				31.6196461,18.5528717 30.7607861,18.2453651 29.914257,17.8913116 29.0588722,17.6107159 28.1454697,17.5120716 
				27.2823372,17.2741032 26.381424,17.0661583 25.5212021,16.7501087 24.5997601,16.8680477 23.6382656,16.655098 
				22.7327747,16.9765511 21.8212528,17.1839581 20.901125,17.2027225 19.9952736,17.4225636 19.034729,17.4533005 
				18.2388363,17.9762974 17.3073864,18.1611271 16.4512978,18.5665131 15.5824823,18.9364643 14.9280987,19.6162395 
				14.2163181,20.2263508 13.4439373,20.7103748 12.6484766,21.1783161 12.0462904,21.8821926 11.3791447,22.4782143 
				10.8091393,23.2096558 10.0291805,23.7306614 9.3177147,24.3588066 8.7849302,25.113699 8.3609715,25.9657688 
				8.2764502,26.9398365 7.6140904,27.6615448 7.5777979,28.600071 7.1834683,29.4776478 7.2583642,30.4251804 
				6.8836555,31.3094711 7.1031489,32.2562447 6.8611836,33.1628265 7.0569277,34.0922585 6.8005099,35.0176697 
				6.905714,35.9526825 7.2090888,36.8523827 7.2024393,37.8020859 7.6244473,38.6502991 8.0859957,39.4706459 			"/>
			<polyline fill="none" stroke="#FFFFFF" stroke-width="2" stroke-linecap="round" stroke-linejoin="round" points="
				11.4910994,45.7973862 11.8705368,46.542141 12.4171171,47.2130203 12.9204206,47.8915634 13.5587854,48.4164124 
				14.3405933,48.8374634 14.7631531,49.6309319 15.4336185,50.1865158 16.2471924,50.5206871 17.1406765,50.5966492 
				17.8998241,51.0055885 18.6251259,51.4437866 19.387537,51.8406372 20.2389584,52.0370522 21.0990715,52.0125122 
				21.9621124,51.8482666 22.7849064,52.188839 23.607748,52.3509445 24.4678078,52.1924553 25.3867855,52.3504028 
				26.2570362,52.0896339 27.1415863,51.8557854 28.0711174,51.9190559 28.9424686,51.6271019 29.8125305,51.3811417 
				30.706274,51.2019463 31.5520477,50.8172722 32.3541718,50.3528404 33.0274925,49.7635727 33.7681999,49.2345581 
				34.5875359,48.828373 35.2292099,48.1786499 35.6706734,47.3479156 36.412426,46.8020782 37.1268463,46.2508583 
				37.677845,45.53265 38.3518944,44.9116402 38.7967415,44.1003647 39.0875435,43.2178993 39.7825394,42.5835838 
				40.1694374,41.7572632 40.4568443,40.8871346 40.7697716,40.0412865 41.0480881,39.1674728 41.0682755,38.2475967 
				41.278511,37.3562164 41.2886963,36.4490013 41.2386398,35.544342 41.2450409,34.6579819 41.1989479,33.7571106 
				41.2705307,32.8360214 41.4829025,31.9137344 41.0034485,31.0753269 40.9579315,30.1487007 40.9530907,29.2246284 
				40.6966362,28.334095 40.0856018,27.5962753 39.9485054,26.6447067 39.5824471,25.7564144 38.757637,25.2405643 
				38.4550438,24.3467121 38.0011024,23.5408669 37.3846893,22.8849773 36.9184036,22.0671234 36.1430092,21.5539627 
				35.5139771,20.8666153 34.7655869,20.339159 33.9810104,19.8940163 33.1125259,19.5376492 32.4362183,18.9137001 
				31.6196461,18.5528717 30.7607861,18.2453651 29.914257,17.8913116 29.0588722,17.6107159 28.1454697,17.5120716 
				27.2823372,17.2741032 26.381424,17.0661583 25.5212021,16.7501087 24.5997601,16.8680477 23.6382656,16.655098 
				22.7327747,16.9765511 21.8212528,17.1839581 20.901125,17.2027225 19.9952736,17.4225636 19.034729,17.4533005 
				18.2388363,17.9762974 17.3073864,18.1611271 16.4512978,18.5665131 15.5824823,18.9364643 14.9280987,19.6162395 
				14.2163181,20.2263508 13.4439373,20.7103748 12.6484766,21.1783161 12.0462904,21.8821926 11.3791447,22.4782143 
				10.8091393,23.2096558 10.0291805,23.7306614 9.3177147,24.3588066 8.7849302,25.113699 8.3609715,25.9657688 
				8.2764502,26.9398365 7.6140904,27.6615448 7.5777979,28.600071 7.1834683,29.4776478 7.2583642,30.4251804 
				6.8836555,31.3094711 7.1031489,32.2562447 6.8611836,33.1628265 7.0569277,34.0922585 6.8005099,35.0176697 
				6.905714,35.9526825 7.2090888,36.8523827 7.2024393,37.8020859 7.6244473,38.6502991 8.0859957,39.4706459 			"/>
		</g>
	</g>
</g>
<g>
	<polygon fill="none" stroke="#FFFFFF" stroke-width="2" stroke-linecap="round" stroke-linejoin="round" points="
		66.5798798,1.8391277 65.6795654,1.6143179 64.7694397,1.6523867 63.8568726,1.8475289 62.9441795,1.8278375 62.0499992,1.5184722 
		61.1296959,1.720071 60.2222824,1.5278603 59.3129311,1.6450142 58.401104,1.6747501 57.4911079,1.7043668 56.5843811,1.4922558 
		55.6706085,1.6499869 54.763813,1.5359975 53.8538055,1.5493737 52.9416237,1.6352611 52.0287971,1.5958301 51.1238022,1.4604584 
		50.2135696,1.3191848 49.3051109,1 48.393177,1 47.4839211,1.2212889 46.5752525,1.2180793 45.6640358,1.3046851 
		44.7574997,1.2905644 43.8365707,1.433712 42.9345474,1.2428246 42.0200958,1.2044946 41.1109467,1.1451004 40.1956482,1.2569852 
		39.2866478,1.1631807 38.5679207,1.4319998 37.7980156,1.5434071 37.0213509,1.7145073 36.4470558,2.2422872 36.0610123,2.9369059 
		35.4701805,3.394568 35.118309,4.0618272 35.0054436,4.8125648 34.9507599,5.5638151 34.6887703,6.425138 34.8393936,7.3250771 
		34.6021957,8.205966 34.8002243,9.0916328 34.7200508,9.9846401 34.8528786,10.8766203 34.7043114,11.7624893 
		34.6385765,12.651207 34.4733162,13.5380802 34.6759338,14.4242344 34.5295105,15.3167896 34.6369705,16.2030964 
		34.5966187,17.0899601 34.5017319,17.9760952 34.521637,18.8676758 34.5365639,19.7540131 34.5667191,20.6443272 
		34.4109879,21.5363579 34.5018044,22.4237404 34.3850021,23.3153572 34.5061951,24.2047729 34.3643875,25.0891972 
		34.4355049,25.982172 34.3564034,26.8725433 34.5000191,27.7631989 34.4118538,28.6557789 34.5470505,29.5508556 
		34.5292206,30.4465351 34.3814659,31.3317089 34.2049484,32.2254524 34.5497589,32.9310074 34.8348885,33.6459236 
		35.0375862,34.3797035 35.485199,34.9872513 36.0064735,35.5411072 36.5683022,36.0454102 37.2886887,36.2451172 
		38.0081825,36.5036697 38.770771,36.5765762 39.6302223,36.4760361 40.4858742,36.4563103 41.3373375,36.669857 
		42.1924286,36.5059357 43.0462952,36.6498909 43.9031372,36.5659142 44.7540016,36.6814232 45.6129341,36.6633453 
		46.4663734,36.7737961 47.3217964,36.7638474 48.181797,36.6464844 49.0320663,36.9175758 49.8866005,36.8467903 
		50.7397156,36.8883209 51.5954323,36.9208832 52.4864464,36.8013954 53.0673409,37.6462555 53.7513008,38.3742561 
		54.3308525,39.1880531 54.823658,39.7567215 55.3525238,40.2984085 55.8155937,40.8953323 56.2777443,41.4937019 
		56.6626511,42.1483307 57.216507,42.6744041 57.5044594,43.4066734 58.0277557,43.9578667 58.4258995,44.5988159 
		58.8738708,45.2061424 59.3132019,45.8223267 59.8291817,46.3544388 59.6874962,45.5895958 59.875946,44.7886887 60,43.9957848 
		60,43.1880035 59.4798279,42.4249611 59.2640038,41.6314545 59.1990013,40.8150063 58.9693642,40.0372353 58.6919556,39.273056 
		58.5030098,38.4585724 58.4592628,37.6181602 58.2183685,36.7589149 59.1479378,36.8937263 60.0339012,37.0020485 
		60.9347839,36.829834 61.7887383,36.911377 62.6440849,37.0351753 63.5031281,36.9870224 64.3610916,36.9994354 
		65.2240677,36.9925995 66.0948257,37.0348434 66.8282471,36.7394867 67.5919876,36.6828117 68.3888321,36.6582184 
		68.8699951,36.0310402 69.4352188,35.5112801 69.7908249,34.8259811 70.0632935,34.1449356 70.4111557,33.4746742 
		70.4669342,32.7205505 70.7132797,31.8596592 70.7311478,30.9690571 70.8490372,30.0841599 70.86866,29.195507 
		70.9035721,28.3057041 70.9102097,27.4149857 70.9144592,26.5237217 71.1439209,25.649271 71.1642151,24.7537861 
		71.1128387,23.8633766 71.1432724,22.9721107 71.1311111,22.0824013 71.2440338,21.1990662 71.1566391,20.3052616 
		71.1945648,19.41679 71.2931519,18.5313263 71.4382401,17.648777 71.4784927,16.7552071 71.6320572,15.8741961 
		71.6082001,14.9815445 71.5027237,14.0857 71.6356888,13.2007923 71.5889816,12.3065739 71.6695938,11.415123 
		71.7883072,10.5285225 71.9519653,9.6470356 71.9710846,8.7536612 71.9562073,7.8659725 71.9659805,6.9708877 
		72.0767899,6.0605717 71.5885239,5.3703666 71.2876511,4.6131177 71.1360321,3.7594481 70.358284,3.3227503 69.6876984,2.8000722 
		69.0441437,2.2970486 68.2799454,1.9389969 67.4119339,2.0040753 	"/>
</g>
<g>
	<polyline fill="none" stroke="#FFFFFF" stroke-width="2" stroke-linecap="round" stroke-linejoin="round" points="
		16.2331867,41.9207687 17.2121067,41.800293 17.7191887,42.1390038 18.442955,41.909359 19.6197605,42.3681679 
		20.293581,42.0797043 20.5031147,41.9250641 20.7013683,41.8246536 	"/>
</g>
<g>
	<polyline fill="none" stroke="#FFFFFF" stroke-width="2" stroke-linecap="round" stroke-linejoin="round" points="
		18.3206558,41.5452805 18.628933,40.3462105 18.9654331,39.5335007 19.4967899,38.7282867 19.7581978,37.9128723 
		20.043417,36.8859406 20.4511013,35.8168182 20.8777676,34.6998863 21.2129993,33.7316055 21.5055447,32.6006126 
		21.9339085,31.449873 22.2026081,30.9320717 22.4410858,30.3535862 22.5936203,29.47645 22.9926376,28.4918156 
		23.0079327,27.5665874 23.6610851,26.9228973 23.54632,26.7221565 	"/>
</g>
<g>
	<polyline fill="none" stroke="#FFFFFF" stroke-width="2" stroke-linecap="round" stroke-linejoin="round" points="
		24.0211449,26.6474037 24.1893768,26.4512539 24.2189732,26.9543457 24.688673,27.794838 24.9579029,28.4499321 
		25.1294098,29.6565189 25.7245369,30.2956715 26.1594219,31.3967648 26.4688129,32.4961243 26.5440102,33.1673088 
		26.5816555,33.8265038 26.8162537,34.7279205 27.0258732,35.6421013 27.2280636,36.5599289 27.2812576,37.3432541 
		27.4802418,38.1046638 27.636198,38.8592262 27.9931412,39.8929443 28.1707268,40.8785591 28.4142838,41.428894 
		28.7047043,41.7209396 	"/>
</g>
<g>
	<polyline fill="none" stroke="#FFFFFF" stroke-width="2" stroke-linecap="round" stroke-linejoin="round" points="
		26.0541172,41.7796288 26.6325626,41.8171501 27.4426308,41.6394615 28.2410355,41.6017342 28.9705029,41.7121735 
		29.6464672,41.8387642 30.3560219,42.0568085 31.180994,41.6432724 31.6669044,41.6066093 	"/>
</g>
<g>
	<polyline fill="none" stroke="#FFFFFF" stroke-width="2" stroke-linecap="round" stroke-linejoin="round" points="
		20.9161892,35.2310104 20.6727695,35.2783394 21.2491055,35.3323669 21.9957008,35.1268845 22.3351727,35.3878937 
		22.7348747,35.4430923 23.6115093,35.4715996 24.3342361,35.600193 25.2809258,35.5665474 26.2389698,35.4488297 
		26.8395596,35.1356506 26.6405334,34.9424438 	"/>
</g>
<g>
	<polyline fill="none" stroke="#FFFFFF" stroke-width="2" stroke-linecap="round" stroke-linejoin="round" points="
		21.5846825,26.1789513 21.7487583,26.0227585 22.1480484,26.2870235 22.8839474,26.1128349 23.1978512,26.2230911 
		23.6699772,26.3061333 24.3160725,26.4318829 24.1588821,26.2511482 	"/>
</g>
<g>
	<polyline fill="none" stroke="#FFFFFF" stroke-width="2" stroke-linecap="round" stroke-linejoin="round" points="
		45.0948372,13.6046066 46.0482063,13.6008902 47.0059319,13.6483755 47.9552116,13.4981661 48.9160461,13.5400438 
		49.6695518,13.4182205 50.41045,13.2147446 51.1582603,13.0413485 51.9446487,13.0894289 52.6730919,12.7506323 
		53.4292259,12.4981976 54.1579933,12.1642876 55.0036011,12.0141773 55.8022652,11.7202482 56.5910988,11.3895292 
		57.4311028,11.2112246 	"/>
</g>
<g>
	<polyline fill="none" stroke="#FFFFFF" stroke-width="2" stroke-linecap="round" stroke-linejoin="round" points="
		52.2696075,26.1573715 51.9219017,25.2419014 51.9307976,24.2630482 51.6953621,23.4379368 51.598671,22.5873566 
		51.347168,21.7587795 51.4211082,20.7982674 51.2359543,19.8665085 51.1966057,18.9203777 51.19207,18.2285328 
		51.0331879,17.5451488 51.0630302,16.7296028 51.0497932,15.8981085 50.8812447,14.9966507 50.8875885,14.0938625 
		50.9358635,13.1882954 51.1735687,12.1590157 51.2853088,11.1225967 51.1339874,10.1540899 51.1829071,9.522934 
		51.5687065,8.9520016 51.7112122,8.5466633 51.6580811,8.5554342 	"/>
</g>
<g>
	<polyline fill="none" stroke="#FFFFFF" stroke-width="2" stroke-linecap="round" stroke-linejoin="round" points="
		58.1576042,16.2484722 58.2020912,16.3661137 58.2162819,16.5878544 57.9553528,16.9112206 57.6682587,17.5027885 
		57.2964973,18.070385 57.2534866,18.8905087 56.9351196,19.3900642 56.7811127,20.0727787 56.4505348,20.6421566 
		56.0258331,21.305027 55.4756813,21.8418808 55.172554,22.7267857 54.7131653,23.5530663 54.1740036,24.0892868 
		53.6447906,24.6316452 53.2083282,25.1900024 52.8537712,25.8229084 52.1361694,26.2425785 51.6144524,26.8539257 
		51.125248,27.5011158 50.4437332,27.9326649 49.7803955,28.3705177 49.0205154,28.6573257 48.4259224,29.1822796 
		47.4095726,29.3588295 46.5393639,29.3121471 45.6817627,29.1011906 44.8024445,29.1321564 44.037075,28.2013855 
		43.7900925,27.3873272 43.6431122,26.5460606 44.0777817,25.3364105 44.4694252,24.1735001 44.9843445,23.4693584 
		45.4868126,22.7569027 46.0356636,22.0760384 46.7674217,21.2543621 47.2927094,20.9002209 47.8909569,20.4031696 
		48.6996078,19.9312477 49.0193596,19.4889832 49.6943245,18.9256821 50.7005463,18.7161312 51.6306458,18.3284588 
		52.1766663,18.1927757 52.8545685,17.9331303 53.5437202,17.9099178 54.193943,17.8008556 54.7115402,17.7560234 
		55.2189331,17.9745617 56.0195961,17.7654324 56.3777275,17.7804089 56.6988678,18.0291462 57.9734993,17.8245106 
		58.9239731,18.1453018 59.6622314,18.6030159 60.3469849,19.0397186 61.1245537,19.6735668 61.6302338,20.2764893 
		62.1292496,20.8791142 62.3335724,21.5612984 62.6468544,22.1994247 62.8580666,22.8822136 63.0763664,23.5893574 
		62.7774887,24.722744 62.3739433,25.8214989 61.991539,26.292593 61.4002342,26.6668663 60.9941902,27.1667004 
		60.2990685,27.3737926 59.7549553,27.7370377 59.2171593,28.0837822 57.9766884,28.3013096 57.3494072,28.6437664 
		56.8067932,28.6573906 56.6808624,28.4753227 	"/>
</g>
</svg>
