<?xml version="1.0" encoding="utf-8"?>
<!-- Generator: Adobe Illustrator 19.1.0, SVG Export Plug-In . SVG Version: 6.00 Build 0)  -->
<svg version="1.1" id="Layer_1" xmlns="http://www.w3.org/2000/svg" xmlns:xlink="http://www.w3.org/1999/xlink" x="0px" y="0px"
	 viewBox="0 0 51.0200005 59.5299988" enable-background="new 0 0 51.0200005 59.5299988" xml:space="preserve">
<g>
	<polygon fill="#FFFFFF" points="37.2089767,12.6487637 37.8048859,12.0579824 38.3839722,11.5445986 38.9203568,12.0537748 
		39.534481,12.6109257 39.5040092,13.3901739 39.4983826,14.1436005 39.5871162,14.8989162 39.5178909,15.6542244 
		39.5988312,16.4047928 39.5075226,17.1604977 39.4307823,17.9180183 39.4265862,18.6749039 39.5686684,19.4250259 
		39.5906143,20.179821 39.4946327,20.9410496 39.5538826,21.6974239 39.6265488,22.4498329 39.6194191,23.2068844 
		39.7800217,23.9570274 39.82938,24.7226524 39.1942291,25.3246861 38.5083466,25.9068947 37.9924774,25.2145557 
		37.2380943,24.7758808 37.1636238,23.9880981 37.3092651,23.2292767 37.2639999,22.4746208 37.1369324,21.7206612 
		37.3473358,20.9687061 37.1132164,20.2118587 37.242363,19.4575806 37.380722,18.6993599 37.2973785,17.9442215 
		37.1435547,17.1959705 37.1769981,16.4350338 37.0090523,15.6812201 37.1341438,14.9271631 37.0424614,14.1664925 
		37.3212891,13.4186373 	"/>
</g>
<g>
	<polygon fill="#FFFFFF" points="30.5529327,9.6752977 31.3005085,9.0661583 31.9198742,8.3848038 32.4772758,9.0348482 
		33.1600533,9.6411505 33.0057144,10.5405102 32.904068,11.4004068 32.9475784,12.2650299 33.0608788,13.1240616 
		33.2225304,13.9774275 33.1235199,14.847415 33.2735214,15.7020025 33.3321838,16.56464 33.1471024,17.4228973 
		33.1645508,18.2863197 33.0167465,19.143261 32.9961586,20.0130711 33.1700668,20.8713264 32.9952736,21.7408333 
		33.0652809,22.6024513 33.1404266,23.4626999 33.2802773,24.3220577 33.2087288,25.1910992 33.3547859,26.0474186 
		33.3688202,26.9128799 33.4483643,27.8038578 32.6808395,28.2352715 32.0971146,28.8516541 31.4938946,28.2673645 
		30.8592377,27.7736645 30.7019386,26.9441509 30.8756542,26.0804863 30.8654652,25.221241 30.8749504,24.3632202 
		30.6883011,23.5012226 30.6368046,22.6395855 30.8124371,21.7798004 30.8381138,20.9173145 30.7802162,20.0545235 
		30.8475685,19.192152 30.6804848,18.3332806 30.7719212,17.4691334 30.5891838,16.6084557 30.7025814,15.746274 
		30.6417313,14.8818455 30.8287888,14.0237894 30.868515,13.1593828 30.8396587,12.2910528 30.8806915,11.4212666 
		30.6110764,10.5756512 	"/>
</g>
<g>
	<polygon fill="#FFFFFF" points="24.0324421,8.7071238 24.6678486,8.2009153 25.1925163,7.6041555 25.7437477,8.151309 
		26.2165298,8.7331266 26.4004936,9.6488914 26.3386497,10.6187925 26.5961876,11.5719776 26.5124321,12.5333395 
		26.4322624,13.4935007 26.4709625,14.455657 26.3407307,15.4176741 26.4438286,16.3781204 26.5586166,17.339262 
		26.3605385,18.2978725 26.3993607,19.2610817 26.4557629,20.2248383 26.6285095,21.1787128 26.6506538,22.1422367 
		26.5841618,23.1093636 26.5060616,24.0695267 26.5314426,25.0344334 26.4677677,25.9995346 26.7009754,26.9593124 
		26.5535717,27.9257412 26.7354259,28.9397469 26.0118961,29.4434681 25.3855553,29.8953075 24.8710136,29.3648643 
		24.3253994,28.8697872 24.151762,27.9510002 24.2378178,26.9877205 24.2194901,26.0251369 24.0908489,25.0700836 
		24.235321,24.1019974 24.1972218,23.1413193 24.1792393,22.181675 23.9939442,21.2248459 23.9549942,20.2612972 
		23.9336319,19.2903881 24.2046623,18.3432407 24.2596722,17.3748608 24.2542534,16.4040546 24.0552845,15.4523811 
		23.8253231,14.4938116 23.9937897,13.5287886 23.9837284,12.5589876 24.213665,11.6015902 24.0205784,10.6418695 
		24.2096691,9.66961 	"/>
</g>
<g>
	<polygon fill="#FFFFFF" points="17.0867081,9.782136 17.8064957,9.1783772 18.4788837,8.6176653 19.1145554,9.1170702 
		19.5035114,9.8299685 19.4890461,10.6598759 19.5170994,11.5199089 19.6024113,12.3775101 19.5694046,13.2354908 
		19.7270374,14.1016445 19.605341,14.9594307 19.5640926,15.8288383 19.7137871,16.6841946 19.8981934,17.5420818 
		19.8079319,18.4062634 19.7739735,19.2705326 19.7432518,20.1288414 19.6478271,20.9992676 19.8078671,21.8539867 
		19.935461,22.7133026 19.8185177,23.5743618 19.9471798,24.4427376 19.9014473,25.3057632 19.8081837,26.1669178 
		19.8056564,27.0311546 19.8281479,27.8875313 19.2467327,28.4979801 18.6575108,29.244688 18.0361671,28.5632477 
		17.5781155,27.8916626 17.3544178,27.0643272 17.5504074,26.1915398 17.357254,25.3389339 17.3890991,24.4784317 
		17.299139,23.6186066 17.2194519,22.7578182 17.2550201,21.8966904 17.2822323,21.0339546 17.2927303,20.1708145 
		17.2766056,19.3046665 17.4597244,18.4499035 17.4472027,17.584259 17.457777,16.7219582 17.3514729,15.8628588 
		17.3297081,14.9992228 17.2257519,14.133728 17.2345085,13.268239 17.4905987,12.4048662 17.3387604,11.5450459 
		17.2226906,10.68717 	"/>
</g>
<g>
	<polygon fill="#FFFFFF" points="11.0364103,12.8851814 11.4957275,12.1807442 12.0686169,11.5587835 12.567174,12.2582264 
		13.2587337,12.8277035 13.1095152,13.6224232 13.1542482,14.3751545 13.3875427,15.1206856 13.3358097,15.881216 
		13.3178167,16.6356659 13.3003817,17.3903942 13.0788116,18.1377888 13.1255274,18.9013138 13.18466,19.6594734 
		13.1978054,20.4195881 13.333189,21.1698933 13.4925461,21.9193192 13.4074631,22.6724377 13.5066242,23.4337978 
		13.4135284,24.188364 13.419302,24.9825993 12.8538342,25.6216469 12.1945906,26.1057491 11.6645002,25.4962444 
		11.0387573,24.9626751 10.9598455,24.211731 10.9932308,23.4580231 10.9077873,22.7032108 11.1472216,21.9435844 
		10.8567514,21.1994305 10.8441906,20.4454288 11.0459394,19.6810303 11.0304451,18.9262257 10.8921852,18.1759224 
		10.9901981,17.4183369 10.7399073,16.6658688 10.7711859,15.9048834 10.959115,15.1578236 10.8159924,14.3901491 
		10.9416037,13.6382351 	"/>
</g>
<g>
	<polyline fill="#FFFFFF" points="39.5696831,33.170433 38.70158,33.6651611 37.8197899,34.1440392 37.003624,34.7178955 
		36.0638008,35.0452881 35.1744194,35.516304 34.2438316,35.8847733 33.5262947,36.1013947 32.8358269,36.3953934 
		32.1554718,36.7242088 31.4077053,36.8689003 30.6606121,36.9393883 29.933403,37.1526909 29.1651573,37.0737572 
		28.4250431,37.1973152 27.4414024,37.3628387 26.4397011,37.3703957 25.4503918,37.4985962 24.4508476,37.5470047 
		23.4574108,37.4306564 22.4583054,37.3829727 21.7107601,37.3164597 20.972599,37.1788673 20.2463417,36.9268875 
		19.4618778,37.0650253 18.7907925,36.679718 18.0473289,36.5400352 17.3515053,36.2510986 16.6771641,35.9183617 
		15.7599392,35.546051 14.7852249,35.2796211 13.9821596,34.6507759 13.1167088,34.1722107 12.1502295,33.868454 
		11.3882637,33.2751617 11.0870152,32.5928726 11.0233631,31.8324547 11.8059273,31.5790882 12.5965309,31.3907089 
		13.3107004,31.8979321 14.1635408,32.2637978 14.8843269,32.8100662 15.7297316,33.1229401 16.6248798,33.3137321 
		17.4988232,33.5805206 18.261034,34.1375885 19.1372719,34.3950806 20.0059013,34.6731071 20.9252777,34.6852264 
		21.819849,34.8629379 22.6952076,35.1981316 23.609705,35.1564026 24.5210667,35.0257034 25.4296188,35.1114845 
		26.3366299,35.1254196 27.2484303,35.1759567 28.1699772,35.146122 29.0581341,34.9098206 29.9284382,34.6472626 
		30.7921829,34.3630905 31.669487,34.1257324 32.5907097,34.0824852 33.4437141,33.7395439 34.2183647,33.2756042 
		35.0138168,32.8323822 35.7916946,32.3518715 36.6001396,31.9373817 37.5180435,31.7442665 38.2971954,31.32127 
		39.0261307,31.4214821 39.8608551,31.5270367 39.6877747,32.3619499 39.6098328,33.1341782 	"/>
</g>
<g>
	<polygon fill="none" stroke="#FFFFFF" stroke-width="2" stroke-linecap="round" stroke-linejoin="round" points="
		40.7141762,2.8457711 39.8389587,2.7355139 38.9554405,2.8143964 38.0731239,2.9101985 37.1914558,2.943913 36.2996025,2.7841079 
		35.4184608,3.0401561 34.5372009,2.8345993 33.653183,2.7958956 32.7654495,2.8879154 31.8804379,2.8750694 30.9987564,2.771605 
		30.1153393,2.6838429 29.2279663,2.6650441 28.3519688,2.8963029 27.4601192,2.801697 26.5807915,2.748394 25.6979561,2.6858578 
		24.8132229,2.6791382 23.9299927,2.7183626 23.0459042,2.7982948 22.1652164,2.7406876 21.2887268,2.6407695 20.392271,2.678489 
		19.5101643,2.5324116 18.6248055,2.5946758 17.7391529,2.6240284 16.8531284,2.6354954 15.9679193,2.6647696 15.0800638,2.699661 
		14.1979637,2.5657172 13.3133307,2.5835695 12.4240398,2.5064769 11.5381861,2.6161528 10.6520824,2.5312407 9.7650509,2.5833597 
		8.8815794,2.657685 8.0312862,2.8850868 7.1734366,3.1061943 6.3207755,3.3050661 5.6321807,3.8514605 4.9920077,4.4683342 
		4.4564133,5.1478324 4.2057719,5.954742 3.9574337,6.7994647 3.8358643,7.6680336 3.6600909,8.5978317 3.644562,9.5425415 
		3.7591143,10.4922791 3.6728477,11.4289026 3.6299536,12.3709354 3.5757649,13.3127146 3.5609121,14.2532797 3.4356229,15.1936512 
		3.6172643,16.1372166 3.64151,17.0753956 3.6624229,18.0211334 3.7633069,18.9653587 3.7578831,19.9092865 3.539551,20.8514385 
		3.616899,21.7946072 3.553143,22.7327347 3.5814238,23.6797733 3.6017125,24.6209183 3.4363496,25.5627728 3.4864972,26.5057926 
		3.511724,27.4469414 3.6157231,28.3935013 3.5302539,29.3349743 3.3944421,30.2754097 3.4994011,31.2173386 3.7151673,32.1497498 
		3.6021006,33.1080971 3.522115,34.0440407 3.5692675,34.9914246 3.6070545,35.9385071 3.691855,36.8829308 3.6854997,37.8283997 
		3.6253464,38.7637329 3.7948291,39.6148453 4.0219326,40.4645386 4.2688165,41.282299 4.8561425,41.9189606 5.4425678,42.5957146 
		5.9944282,43.3295746 6.9317703,43.3735008 7.7833972,43.6831512 8.6369257,44.0159607 9.3826561,43.8424339 
		10.1323385,43.8167114 10.8882647,43.8410835 11.6332502,43.6098099 12.386755,43.7027435 13.1370068,43.7397766 
		13.8743916,43.9218063 14.6187334,44.0746841 15.6114979,43.8816338 16.6183376,44.0080185 17.6143799,43.8743629 
		18.5964279,43.8612938 19.5804443,43.8477707 20.6195145,43.8982391 20.9379654,44.7703857 21.1525517,45.6186409 
		21.4604244,46.428978 21.9337101,47.1832161 22.2528706,48.0093498 22.5728397,48.828968 23.0848103,49.5759392 
		23.2538662,50.4537964 23.5887413,51.2726097 23.7908649,52.1367531 24.0894928,52.9708214 24.3389797,53.8261414 
		24.8623123,54.6010628 25.0661774,55.5157661 25.54562,56.3819084 25.937706,55.4706879 26.2640324,54.6027794 
		26.6075268,53.7447929 26.8576298,52.8734322 27.4735966,52.1856422 27.6785812,51.292881 28.1628056,50.5291939 
		28.4049606,49.6646729 28.6321468,48.7899513 29.1337051,48.0355682 29.5077248,47.2229156 29.8423767,46.3917274 
		30.1596489,45.5582619 30.6227665,44.7901764 31.0111752,43.9932709 31.7913933,43.9337234 32.5790062,43.8965607 
		33.3683243,43.9609222 34.15662,43.9370613 34.9468269,43.9617233 35.7377892,43.9401474 36.5277596,43.8414268 
		37.3251038,43.7380714 38.1068535,43.991478 38.9052048,43.9393349 39.6946907,44.0346985 40.4848137,44.0955925 
		41.3084068,43.7710075 42.1572838,43.5159836 43.0807495,43.4336624 43.7687683,42.8437538 44.3056641,42.1097527 
		44.9756889,41.5631485 45.1535416,40.7264709 45.4067345,39.8784256 45.6325836,39.0209465 45.6506844,38.0694237 
		45.7301865,37.1259537 45.8827324,36.1888084 45.810833,35.2444267 45.9650803,34.3029175 46.0127449,33.3644447 
		46.0271912,32.4240112 46.1542931,31.4868298 46.2329521,30.540905 46.2678871,29.5924053 46.1834412,28.6474152 
		46.1482964,27.704155 46.3485031,26.7798805 46.2596054,25.8151913 46.4620132,24.8851967 46.3887558,23.9423141 
		46.3753052,22.9948864 46.423214,22.0495644 46.2613792,21.1012783 46.4101715,20.1641026 46.4962463,19.2231255 
		46.5026703,18.2766151 46.7198486,17.3474598 46.7343483,16.3992367 46.7745514,15.4565706 47.0343513,14.5301208 
		46.8775978,13.5701761 47.1193848,12.6397314 47.1427727,11.6935606 47.093647,10.745409 47.1362762,9.8016233 
		47.1807747,8.8536558 47.1717987,7.8968101 46.8183861,6.9861908 46.4412117,6.0921783 46.0717659,5.1761913 45.2533188,4.6016593 
		44.3691216,4.1511765 43.5694351,3.5769856 42.6177635,3.3342273 41.6980324,2.9477065 	"/>
</g>
</svg>
