<?xml version="1.0" encoding="utf-8"?>
<!-- Generator: Adobe Illustrator 19.1.0, SVG Export Plug-In . SVG Version: 6.00 Build 0)  -->
<svg version="1.1" id="Layer_1" xmlns="http://www.w3.org/2000/svg" xmlns:xlink="http://www.w3.org/1999/xlink" x="0px" y="0px"
	 viewBox="0 0 85.0400009 56.6899986" enable-background="new 0 0 85.0400009 56.6899986" xml:space="preserve">
<g>
	<polyline fill="none" stroke="#FFFFFF" stroke-width="2" stroke-linecap="round" stroke-linejoin="round" points="
		71.6417389,7.4853187 70.7656097,7.1688466 69.9228134,7.6022692 69.5452576,7.7309942 69.0172958,8.0768003 68.9438782,8.3701668 
		68.4563904,8.7670107 68.2108307,9.0553474 67.8687134,9.5785055 67.7495804,10.5805473 67.682785,11.0707216 
		67.7291794,11.5239038 67.687439,11.9073591 67.7062683,12.1447296 67.6591721,12.3471279 67.7262192,13.0889988 
		67.4512253,13.4953594 67.6558151,13.9276581 68.2491837,14.4504652 68.4006042,14.781251 68.7337875,14.7747984 
		68.8271484,15.1158571 69.2888565,14.9754753 69.5765991,15.2834568 69.7016144,15.6661491 70.0471878,15.4467793 
		70.3087845,15.6299953 70.6816635,15.5714264 70.8765106,15.7195568 71.1334991,15.7779913 72.2498856,15.636939 
		72.6410141,15.8545313 73.0119171,15.7019224 73.7161865,15.3253736 74.4624176,14.8226013 74.6729736,14.587224 
		75.1542053,14.2806129 75.6539459,13.6577396 75.6878281,13.3774853 75.9631348,13.4169874 76.148941,12.9739885 
		76.1956024,12.7644415 76.2190781,12.5795498 76.2268448,12.1735802 76.4294434,11.8932343 76.2748032,11.5506735 
		76.4574432,10.8384981 76.2083588,10.1699495 76.1710129,9.7697868 75.9975891,9.6193876 75.94561,9.468379 75.4361343,8.8798571 
		74.7890854,8.4760218 74.3312836,7.9040356 73.7195892,7.5027356 73.2751541,7.4452171 72.8322449,7.3852763 72.6138306,7.3961792 
		72.3536758,7.3829517 71.866066,7.1979394 71.4102554,7.4026942 71.1504211,7.1958475 70.7675171,7.5934639 	"/>
</g>
<g>
	<polyline fill="none" stroke="#FFFFFF" stroke-width="2" stroke-linecap="round" stroke-linejoin="round" points="
		64.5798645,23.0392418 64.9484482,21.893837 65.3238525,21.4345627 65.7486267,20.6116276 66.8213654,20.1572418 
		67.0487442,19.7661362 67.5740967,19.59198 68.0562286,19.1062851 68.3334045,18.9315872 68.8344803,18.9744606 
		69.4367447,18.6826134 70.1180801,18.4283638 70.615303,18.3897991 71.0707169,18.2852554 71.4589462,18.4523067 
		72.5259857,18.1560707 73.1167679,18.4010048 73.3924332,18.361227 73.8315125,18.4464226 74.1321945,18.3250408 
		74.3317337,18.5734501 74.8633423,18.8720093 75.3217468,19.0478821 75.4717484,19.3571968 75.9471893,19.209137 
		76.2889786,19.6831856 76.5024872,19.7750473 76.5936813,20.0107574 76.9387741,20.3744125 77.0224991,20.623312 
		77.1359634,20.8950596 77.6744537,21.6492043 77.8870544,22.0949211 78.1408691,22.3993492 78.4223099,22.6972256 
		78.4014053,23.1922436 78.58078,23.8891506 	"/>
</g>
<g>
	<polygon fill="none" stroke="#FFFFFF" stroke-width="2" stroke-linecap="round" stroke-linejoin="round" points="
		83.6689758,10.821394 83.8423843,11.7201395 83.7590103,12.6508389 83.9017563,13.5590954 83.9639359,14.4668818 
		84.0751343,15.3787003 84.0217209,16.2984676 83.7565002,17.1791134 83.546402,18.0718403 83.2254105,18.9335442 
		82.8845215,19.7869606 82.2916336,20.502882 81.9942474,21.3923264 81.2426224,21.9848442 80.8444748,22.8390255 
		80.1985703,23.4966602 79.3952484,23.9282532 78.6761627,24.5188541 77.8286819,24.8893547 77.0825119,25.4313965 
		76.1905212,25.67976 75.4275436,26.229084 74.5200119,26.4449158 73.5720825,26.4395542 72.6973038,26.7612991 
		71.7682953,26.7924023 70.8552017,26.650835 69.961792,26.3801079 69.0400238,26.3236046 68.1712112,25.9875488 
		67.229805,25.9336643 66.4416199,25.4343853 65.5916061,25.0607986 64.8632355,24.4898434 64.0589981,24.0177593 
		63.534008,23.2377834 62.8263588,22.6424541 62.2321968,21.9459896 61.7123642,21.1907101 61.2572365,20.4012432 
		60.8614388,19.5875092 60.5091362,18.7389355 60.067482,17.9281197 59.9263039,17.0251579 59.8039551,16.118145 
		59.9012108,15.2008877 60,14.3013973 60,13.3909578 59.9573021,12.48946 59.9937744,11.5769796 60.2773819,10.7063875 
		60.4292068,9.8031216 60.8640556,9.0016241 61.5040359,8.3263884 61.9356422,7.5203404 62.4543419,6.778161 62.9993553,6.0502257 
		63.6196518,5.3856778 64.3350601,4.8159833 65.0045624,4.1823692 65.6798096,3.5311155 66.5944595,3.2817378 67.4448853,2.9183302 
		68.2803116,2.5243752 69.1790619,2.3063061 70.1114426,2.3609824 71.0216599,2.1817305 71.9232635,2.3198581 72.8342972,2.313848 
		73.7425308,2.3762987 74.6371841,2.5702586 75.5550079,2.649091 76.4207077,2.9671316 77.2518539,3.3487594 78.0915375,3.7308581 
		78.8654099,4.2428632 79.503479,4.9018202 80.2055054,5.4899926 80.8111267,6.1784096 81.3914566,6.8802705 82.0367813,7.5326214 
		82.5618896,8.2892714 82.8142242,9.1935062 83.3937378,9.9405212 	"/>
</g>
<g>
	<polygon fill="none" stroke="#FFFFFF" stroke-width="2" stroke-linecap="round" stroke-linejoin="round" points="
		42.1695671,53.7466202 41.2823372,54.2888794 40.5353432,54.870182 39.6739273,54.9163666 38.7729721,55.0050201 
		37.8788795,54.9570503 36.9838943,54.9424744 36.0915909,55.0846825 35.1954498,55.1564789 34.2973595,55.1279526 
		33.3978462,55.1181145 32.5004311,55.0830727 31.6007977,55.1940002 30.7064342,55.0332909 29.8056526,55.0001373 
		28.9085979,54.9622345 28.012907,55.1841164 27.1129322,55.0592117 26.2146893,55.1164207 25.3166828,55.193943 
		24.4253063,55.3255119 23.5313759,55.4420013 22.6309147,55.292942 21.7320786,55.3214455 20.8374767,55.3314476 
		19.9398003,55.3017235 19.0458241,55.4407921 18.1536121,55.3048897 17.2536774,55.2772026 16.3507061,55.3552284 
		15.4565048,55.3816147 14.5581913,55.4208641 13.6562843,55.3448181 12.7605295,55.3331833 11.8628798,55.4826851 
		10.9659376,55.5007362 10.0607605,55.4425278 9.1759739,55.6705589 8.2683268,55.5747643 7.3730369,55.6908951 
		6.4716635,55.6809387 5.5700068,55.5248604 4.6720567,55.6395416 3.7743218,55.7628479 2.8924925,55.6584473 2.1493101,55.1468544 
		1.352605,54.5793991 1.4599153,53.6306534 1.3967285,52.7381554 1.3128078,51.8473587 1.459965,50.9526062 1.3810228,50.0613327 
		1.3826855,49.1688271 1.4968473,48.2840347 1.4215641,47.379837 1.6793854,46.4940033 1.5022169,45.603653 1.3010695,44.7217293 
		1.2600589,43.821991 1.2965608,42.9272308 1.4166044,42.0339203 1.3460368,41.1398392 1.4813312,40.2532806 1.3791761,39.3556099 
		1.3659475,38.4602203 1.623675,37.5802727 1.4180999,36.670784 1.5308794,35.7828445 1.6365292,34.894413 1.7277895,34.0011482 
		1.6622503,33.1052246 1.5802816,32.2104874 1.3857423,31.326807 1.226368,30.4306049 1.5118678,29.5429058 1.3422531,28.6379471 
		1.5090274,27.75033 1.5748793,26.8595524 1.5252038,25.9638004 1.4351109,25.0721397 1.6264611,24.1698151 1.5380524,23.2774067 
		1.3960992,22.3887367 1.2715408,21.4985161 1.4418294,20.6067638 1.4943451,19.7132359 1.3212451,18.8239861 1.320056,17.9299107 
		1.2244443,17.0350838 1.3117448,16.1418076 1.4897971,15.2510481 1.3310385,14.3500481 1.4062903,13.4571133 1.4935478,12.5640955 
		1.4544857,11.6680098 1.5448511,10.7795153 1.5078984,9.8847666 1.4482859,8.9886408 1.6235809,8.0958958 1.4727947,7.1962814 
		1.5377705,6.3028855 1.4793315,5.4118438 1.4452012,4.5148654 1.5840665,3.6631165 2.1688554,3.0087938 2.9090502,2.5086434 
		3.765569,2.2875998 4.6645613,2.3998299 5.5608706,2.4335353 6.4535623,2.4865565 7.3523607,2.5043936 8.2491541,2.5853026 
		9.1464949,2.5147099 10.0450039,2.4480658 10.9420176,2.5418923 11.8321705,2.6754029 12.7266169,2.7854288 13.6308956,2.7247953 
		14.5253401,2.7501864 15.4202785,2.6239171 16.3230076,2.5328703 17.221365,2.6424246 18.1136227,2.8284385 19.0155964,2.7255383 
		19.9132843,2.8482513 20.8096676,2.625988 21.7101688,2.816504 22.6061993,2.6264298 23.5001659,2.8117456 24.3989983,2.7273889 
		25.288456,2.8941505 26.1916695,2.8109994 27.0813942,2.9745753 27.9835854,2.956182 28.8676147,3.1851344 29.7795124,3.0696719 
		30.67383,3.1040714 31.5739727,3.1239486 32.4729156,3.0274372 33.3705101,3.0168648 34.2700119,3.0542486 35.1685371,3.1499629 
		36.0720978,2.999939 36.9644241,3.2511327 37.8667221,3.2827475 38.7675209,3.3085568 39.6665878,3.0773947 40.5206947,3.3011127 
		41.2550888,3.8966169 42.0057793,4.4776578 42.1471672,5.3459353 42.0136986,6.2554765 41.9248352,7.1636186 41.9011269,8.0724936 
		41.9861717,8.9937105 41.8489304,9.8998461 41.8910713,10.8094606 41.9910431,11.7186565 41.9767532,12.6337194 
		42.0253792,13.543395 42.1654778,14.4526405 42.0204048,15.3692331 42.0737267,16.2798347 42.07687,17.1933937 
		41.9366951,18.1026096 42.0034714,19.0132809 42.0404472,19.9260941 42.1924019,20.8363762 42.0555458,21.7494774 
		42.1660309,22.66078 42.1772995,23.576601 41.9893684,24.4817905 42.0723076,25.4063892 41.8999481,26.3117847 
		41.9936981,27.2199593 41.9349785,28.1424942 42.2191124,29.0493488 42.0894547,29.9668598 41.819725,30.8618679 
		41.7557144,31.7844257 41.7920456,32.7053719 41.9867096,33.6089745 42.1410217,34.523159 42.0600204,35.4408569 
		41.781311,36.3376884 41.9031601,37.2631645 41.8803253,38.1715736 41.8050575,39.0895729 41.9694557,39.9965363 
		42.109272,40.9029732 42.0801239,41.8201485 42.0318565,42.7364082 41.9976578,43.6454582 42.1419792,44.5616264 
		42.1694298,45.4772758 41.9631538,46.3837318 41.9855003,47.2997093 41.8862648,48.2114716 41.9480896,49.1279488 
		41.7853355,50.0398636 41.9535828,50.9574013 41.8013992,51.8812027 42.0343361,52.7819862 	"/>
</g>
<g>
	<polygon fill="#FFFFFF" points="31.4816208,6.4574752 30.6509323,6.5563774 29.7621098,6.4579439 28.866972,6.5844636 
		28.0185299,6.3949857 27.1674099,6.2475905 26.3036671,6.4296432 25.4488945,6.3239188 24.5970287,6.5085983 23.7341461,6.3762012 
		22.8920574,6.606566 22.0258694,6.561698 21.1702003,6.7040076 20.3090973,6.6833539 19.4506645,6.659492 18.5947227,6.6399732 
		17.7429447,6.3669119 16.8836231,6.4369159 16.0247192,6.419528 15.1852512,6.5369997 14.3438349,6.4648743 13.5802755,6.4073715 
		13.3808517,5.5812316 13.3409643,4.6685934 13.2518225,3.7568061 13.3933487,2.820457 13.287055,1.87482 13.4167385,0.9475413 
		14.2656641,1.1018093 15.1488123,1.0121561 16.0081902,1.2227535 16.8639069,1.0962764 17.7223625,1.2850473 18.5789089,1.0257984 
		19.4276562,1.3009045 20.2880878,1.2168611 21.1472702,1.3261598 21.998827,1.1255661 22.8534431,1.0080506 23.7213268,1.1688684 
		24.5719757,1.1328037 25.4290009,1.1625103 26.2865944,1.1853544 27.1423435,1.2544873 28.0035858,1.1274235 28.8576221,1.2693465 
		29.7210579,1.1527898 30.5719986,1.2924147 31.4406643,1.3332009 31.4005642,2.1895354 31.4234829,3.0339379 31.5718193,3.8727148 
		31.471117,4.7526498 31.4241142,5.6306782 	"/>
	<polygon fill="none" stroke="#FFFFFF" stroke-width="2" stroke-linecap="round" stroke-linejoin="round" points="
		31.4816208,6.4574752 30.6509323,6.5563774 29.7621098,6.4579439 28.866972,6.5844636 28.0185299,6.3949857 27.1674099,6.2475905 
		26.3036671,6.4296432 25.4488945,6.3239188 24.5970287,6.5085983 23.7341461,6.3762012 22.8920574,6.606566 22.0258694,6.561698 
		21.1702003,6.7040076 20.3090973,6.6833539 19.4506645,6.659492 18.5947227,6.6399732 17.7429447,6.3669119 16.8836231,6.4369159 
		16.0247192,6.419528 15.1852512,6.5369997 14.3438349,6.4648743 13.5802755,6.4073715 13.3808517,5.5812316 13.3409643,4.6685934 
		13.2518225,3.7568061 13.3933487,2.820457 13.287055,1.87482 13.4167385,0.9475413 14.2656641,1.1018093 15.1488123,1.0121561 
		16.0081902,1.2227535 16.8639069,1.0962764 17.7223625,1.2850473 18.5789089,1.0257984 19.4276562,1.3009045 20.2880878,1.2168611 
		21.1472702,1.3261598 21.998827,1.1255661 22.8534431,1.0080506 23.7213268,1.1688684 24.5719757,1.1328037 25.4290009,1.1625103 
		26.2865944,1.1853544 27.1423435,1.2544873 28.0035858,1.1274235 28.8576221,1.2693465 29.7210579,1.1527898 30.5719986,1.2924147 
		31.4406643,1.3332009 31.4005642,2.1895354 31.4234829,3.0339379 31.5718193,3.8727148 31.471117,4.7526498 31.4241142,5.6306782 	
		"/>
</g>
<g>
	<polyline fill="none" stroke="#FFFFFF" stroke-width="2" stroke-linecap="round" stroke-linejoin="round" points="
		8.6077471,18.7157955 9.5106087,18.9420624 10.430335,18.9354057 11.3465509,19 12.2589922,19 13.1714029,19.1130619 
		14.0877972,18.9928837 15.0045595,18.9962177 15.9193335,18.9297256 16.8310661,18.7960186 17.7389355,18.9466381 
		18.6654263,18.8505058 19.5752258,18.9650574 20.4903107,19.0294094 21.3987942,18.8146038 22.3181438,18.8379269 
		23.2334518,18.9200439 24.1506863,18.9102612 25.0668507,18.7831955 25.9835873,18.9430752 26.900423,18.9096355 
		27.817461,18.8851624 	"/>
</g>
<g>
	<polyline fill="none" stroke="#FFFFFF" stroke-width="2" stroke-linecap="round" stroke-linejoin="round" points="
		8.6043253,28.8019924 9.5286427,28.8172855 10.4557266,28.8561401 11.3830023,28.6864071 12.3025188,28.8690853 
		13.2320509,28.8543415 14.160718,28.7847328 15.0811911,28.7355919 16.0089645,28.7339554 16.9377594,28.7718716 
		17.8674412,29.0162468 18.7915878,29 19.7219124,29 20.6455612,28.9680061 21.5797329,28.7615509 22.502058,28.9375057 	"/>
</g>
<g>
	<polyline fill="none" stroke="#FFFFFF" stroke-width="2" stroke-linecap="round" stroke-linejoin="round" points="
		8.6040335,23.7609406 9.5622711,23.8047867 10.52285,23.6833782 11.4827843,23.9165001 12.4436989,23.7341766 
		13.4017906,23.9203701 14.3644018,23.8004417 15.3234968,23.7886219 16.2852669,23.751379 17.2456322,23.6770439 
		18.203907,23.5748882 19.1637211,23.6636734 20.1236954,23.6912689 21.0816097,23.609396 22.0432625,23.6636105 
		23.0005054,23.779665 23.9522476,23.891571 24.9311371,23.7954121 25.885994,23.9623661 26.8442688,23.8644218 
		27.8153496,23.8920174 28.7680435,23.7593975 29.7360802,23.7070103 30.6841164,23.9627361 31.6564388,23.8668499 
		32.6193085,23.9816837 33.57444,23.7840252 34.5392456,23.7603664 	"/>
</g>
<g>
	<polyline fill="none" stroke="#FFFFFF" stroke-width="2" stroke-linecap="round" stroke-linejoin="round" points="
		8.6000757,33.847496 9.5186701,33.8108139 10.4335985,33.7131119 11.3473921,33.6533165 12.2523956,33.7661209 
		13.1624451,33.9031754 14.090291,33.8453178 15.0011377,33.9782867 15.9156275,33.8736458 16.8305187,33.7432823 
		17.7437267,33.9825592 18.6593094,33.8297081 19.573555,33.8454132 20.4835472,33.7543907 21.4028282,33.7436638 
		22.3187351,33.7652016 23.2285538,33.824646 24.1607189,33.7013702 25.0683365,33.9913864 25.9848499,33.848175 
		26.9013672,33.7601242 27.8145294,33.6341782 	"/>
</g>
<g>
	<polyline fill="none" stroke="#FFFFFF" stroke-width="2" stroke-linecap="round" stroke-linejoin="round" points="
		8.6013536,43.7213631 9.5274248,43.6966476 10.4536352,43.7443695 11.3807364,43.6347694 12.3077374,43.7149849 
		13.2363939,43.6963463 14.1601534,43.5395775 15.0777397,43.7428284 16.0145893,43.6659622 16.9384251,43.8792725 
		17.8702278,43.7997856 18.7876682,43.5679855 19.7232685,43.6812592 20.6464634,43.6664734 21.5735073,43.7444077 
		22.5037327,43.7286568 	"/>
</g>
<g>
	<polyline fill="none" stroke="#FFFFFF" stroke-width="2" stroke-linecap="round" stroke-linejoin="round" points="
		8.6010599,38.6925926 9.5662889,38.7800331 10.5276098,38.7397385 11.4835472,38.5708809 12.4458876,38.5133858 
		13.4018478,38.7218552 14.361124,38.8182449 15.3257914,38.6356926 16.2823009,38.8272705 17.2485199,38.6843605 
		18.204771,38.7539101 19.1630192,38.8460274 20.1235771,38.7291336 21.0840569,38.8818779 22.0446815,38.8326416 
		23.0082588,38.8523178 23.9579296,38.6063881 24.9217701,38.6101608 25.8834763,38.5318031 26.8440952,38.5010834 
		27.8067265,38.637413 28.7688522,38.5159302 29.7263832,38.7135239 30.6921997,38.6284294 31.6547012,38.6484718 
		32.6162872,38.6652756 33.5742264,38.4869843 34.5373154,38.4504128 	"/>
</g>
<g>
	<polyline fill="none" stroke="#FFFFFF" stroke-width="2" stroke-linecap="round" stroke-linejoin="round" points="
		36.5238419,30.2722054 37.3621063,30.0303268 38.1053238,29.5700245 38.9283829,29.2794495 39.6536446,28.7968216 
		40.4322243,28.4033298 41.1013641,27.8243866 41.9568253,27.6154652 42.692585,27.1293583 43.5716667,26.9621563 
		44.22575,26.3484554 45.0505524,26.0511436 45.8439484,25.7007122 46.4913902,25.0777588 47.2678909,24.6940727 
		48.1146927,24.4518661 48.9148369,24.1269283 49.6420326,23.6116543 50.4706955,23.3445244 51.3307686,23.1478386 
		52.1218987,22.7922039 52.8444061,22.2897511 53.6560898,21.9664764 54.3133125,21.3665047 55.0862274,20.9678879 
		55.8639526,20.580822 56.6590538,20.2198067 57.41222,19.7944984 58.2301369,19.5114784 59.0213013,19.1397762 
		59.8522224,18.8701839 	"/>
</g>
</svg>
