<?xml version="1.0" encoding="utf-8"?>
<!-- Generator: Adobe Illustrator 19.1.0, SVG Export Plug-In . SVG Version: 6.00 Build 0)  -->
<svg version="1.1" id="Layer_1" xmlns="http://www.w3.org/2000/svg" xmlns:xlink="http://www.w3.org/1999/xlink" x="0px" y="0px"
	 viewBox="0 0 90.7099991 59.5299988" enable-background="new 0 0 90.7099991 59.5299988" xml:space="preserve">
<g>
	<polyline fill="none" stroke="#FFFFFF" stroke-width="2" stroke-linecap="round" stroke-linejoin="round" points="
		87.2169952,1.2080554 86.7625809,1.8137792 86.150383,2.2610605 85.5958862,2.7698824 85.0258942,3.2553217 84.512207,3.8199532 
		83.8629532,4.2112598 83.178566,4.5583701 82.5676117,5.0067506 82.0456085,5.6326008 81.3315735,6.0101914 80.6737747,6.6592188 
		79.9912643,7.2794385 79.440155,8.0399151 78.7385635,8.6441765 78.1322479,9.2172747 77.4582596,9.7209969 76.8833542,10.3322182 
		76.2267151,10.855876 75.6039047,11.3780499 75.1466293,12.0881805 74.5161438,12.6159849 73.6759262,13.0969658 
		74.2522278,13.4915876 75.052742,13.5619116 75.8765945,13.5787315 76.6562042,13.7978401 77.4435425,13.9218264 
		78.3012924,13.9582739 79.2117844,14.2841349 80.1729889,14.6048365 79.6409225,15.3678093 79.2865677,16.1269779 
		78.5476532,16.9151325 77.8624344,17.7394619 77.4599915,18.4567509 77.1258011,19.2178745 76.5113602,19.7958431 
		76.2412262,20.5987511 75.7122879,21.2161484 75.3091278,21.9144344 74.9299927,22.6303806 74.2341614,23.2434368 
		73.5974884,23.9170952 73.1835632,24.8980656 72.5972748,25.7537956 72.2449417,26.6244354 71.6933517,27.5053406 
		72.4032745,26.8480625 72.9628296,26.4678917 73.1607208,25.9716835 74.1021194,25.3190384 75.0709839,24.504427 
		75.7820892,23.9054813 76.1887512,23.3318825 76.7411194,22.8978157 77.7068787,22.3571835 78.7658081,21.666111 
		79.3762741,20.783659 79.8620605,20.3943157 80.1755447,19.9177628 80.9798813,19.3114605 81.1471863,18.5640831 
		81.8255005,17.9693089 82.6087875,17.3067551 82.8467026,16.7429371 83.2881775,16.4419708 83.963829,15.7723656 
		84.6629333,15.1209221 85.0320511,14.4874868 85.4942398,13.9306259 85.813324,13.2614031 86.4779129,12.4801111 
		87.2773743,11.7568426 86.316391,11.7800837 85.8033524,11.6623077 85.5608826,11.3798695 85.006485,11.7119541 
		84.7391891,11.1435919 84.2474442,11.2342196 83.793251,10.9182959 82.7957993,10.9718256 81.8428726,11.0284977 
		81.3814087,10.7060623 81.9022369,9.8437338 82.4265747,9.0691595 82.9625854,8.294939 83.4036179,7.4466867 84.1612244,6.8265862 
		84.39785,6.0182018 84.970787,5.4083352 85.2218704,4.7463126 85.4539948,4.4630823 85.5036087,3.8227549 86.2098083,3.4856319 
		86.5527267,2.6986523 86.94104,1.8125654 87.2403641,1.3186188 87.4290924,1.653758 	"/>
</g>
<g>
	<polygon fill="none" stroke="#FFFFFF" stroke-width="2" stroke-linecap="round" stroke-linejoin="round" points="
		15.3235836,21.6565914 16.2592773,21.8435802 17.1592369,21.5609932 18.0791435,21.6065159 18.9918995,21.667202 
		19.9076538,21.5491199 20.8251305,21.7786331 21.7265625,21.487772 22.6468716,21.5576382 23.5591698,21.519722 
		24.4834042,21.4656944 25.3936367,21.6087971 26.303978,21.7049751 27.2123985,21.6406746 28.1274395,21.5732479 
		29.0444221,21.5535564 29.9559689,21.4449139 30.869379,21.6548023 31.7850971,21.4537983 32.6976433,21.4964294 
		33.6163406,21.6007977 34.5267982,21.438982 35.4391556,21.4857559 36.3566475,21.4152145 37.2702446,21.5257473 
		38.1816139,21.4233971 39.098011,21.4484367 40.0163574,21.5428791 40.930481,21.5449314 41.8449364,21.4883938 
		42.7571983,21.4029293 43.6660194,21.4929848 44.5852394,21.4036617 45.496418,21.5645695 46.4134293,21.3900433 
		47.3278999,21.4802608 48.2428551,21.3953743 49.1543045,21.4036198 50.074707,21.5825424 50.9864006,21.362608 
		51.9005394,21.445507 52.8166962,21.3720837 53.7347679,21.5189018 54.6543808,21.4925804 55.5648346,21.3374157 
		56.4791107,21.1622639 57.3985291,21.2243519 58.3139458,21.3165359 59.2501869,21.2919998 60.1471138,21.7271042 
		60.9904709,22.2581787 61.9466515,22.5243225 62.4116135,23.3895588 62.7317276,24.3287125 63.1981354,25.1824226 
		63.2066994,26.0882702 63.2652702,27.0099907 63.2440453,27.9308491 63.3063927,28.8485813 63.2416153,29.7680779 
		63.3161011,30.6862431 63.3002701,31.6032104 63.3788948,32.5218849 63.2954445,33.4459724 63.4019012,34.3625755 
		63.2050438,35.2867241 63.2611504,36.2100334 63.4329453,37.1223068 63.6378136,38.0305481 63.5668297,38.9627686 
		63.5813065,39.8827591 63.4617729,40.8026047 63.4458389,41.7293587 63.6045761,42.6445923 63.6913681,43.5643845 
		63.6597672,44.4956131 63.4647827,45.2380447 62.9847603,45.8576622 62.8438759,46.6193886 62.5206223,47.3287582 
		61.8247528,47.6751671 61.0898972,47.8743935 60.3894615,48.162693 59.7041969,48.5698547 58.7386818,48.2999458 
		57.7831459,48.2818031 56.8266907,48.3482094 55.8741302,48.3906555 54.9146729,48.4225922 53.9661484,48.5546989 
		53.0201378,48.4173126 52.0532188,48.5208817 51.1043396,48.4781456 50.1581993,49 49.2002525,49 48.2448654,48.8690262 
		47.2912903,48.6687546 46.3368187,48.6528168 45.3849144,48.4653893 44.4308319,48.5951271 43.4786606,48.3564377 
		42.5228386,48.4394913 41.5677376,48.5384674 40.6138077,48.468792 39.6611443,48.4526978 38.7067871,48.4671745 
		37.7483406,48.4962921 36.7936707,48.5034866 35.8447037,48.5404205 34.8859863,48.7455444 33.9277115,48.7229919 
		32.9742317,48.6175766 32.0183983,48.548542 31.0618591,48.4387627 30.1885834,48.4692154 29.5632267,49.1968613 
		28.8207874,49.7754211 28.2542515,50.5324707 27.6275082,51.2237625 26.9396114,51.8509865 26.1128273,52.3333168 
		25.563694,53.0964699 24.9159584,53.7715797 24.3004417,54.46875 23.6730576,55.166008 22.8602314,55.6506958 
		22.1844482,56.3002167 21.4816227,56.861721 20.8413849,57.4896431 20.2854481,58.1856232 20.4030609,57.4185638 
		20.6749725,56.6714973 20.7680836,55.8807144 21.0336552,55.0927582 21.3600235,54.3253593 21.6599293,53.5469666 
		21.8275108,52.7331047 22.0908337,51.9430504 22.2202263,51.1191406 22.333437,50.2602539 22.7535725,49.4717674 
		22.8775539,48.7175293 22.0221786,49 21.2156181,49 20.4137325,48.9698296 19.6437206,48.8580399 18.8739452,48.8454132 
		18.1030674,48.715641 17.3339443,48.6260376 16.5676632,48.8841782 15.7847624,48.8479309 15.0638428,48.5582848 
		14.3385754,48.3178139 13.6383619,47.9964676 12.8532953,47.844223 12.6495247,47.0682869 12.298336,46.3820457 
		12.0501299,45.650032 11.7185564,44.9572411 11.7064896,44.0401726 11.766799,43.1160545 11.6425171,42.1957245 
		11.6622648,41.2672653 11.4188232,40.3678627 11.3700476,39.4458847 11.1724396,38.5405159 11.2793112,37.6067352 
		11.0539894,36.6985703 11.1903534,35.7746277 11.0136871,34.8526878 11.121417,33.924015 10.8291912,33.0301704 
		10.9124041,32.0845871 10.594079,31.1896591 10.6796818,30.2603474 10.7760401,29.3343849 10.8079357,28.403738 
		10.5390997,27.4947433 10.5926285,26.5650921 10.6124887,25.6584682 10.8175936,24.9592857 10.9460745,24.2064819 
		11.1103458,23.4267807 11.8660421,23.1301823 12.5571337,22.7915382 13.1512051,22.2779236 13.8957071,22.1622047 
		14.6199617,21.9762001 	"/>
</g>
<g>
	<polyline fill="none" stroke="#FFFFFF" stroke-width="2" stroke-linecap="round" stroke-linejoin="round" points="
		18.1888714,29.9496536 19.1305065,30.1431961 20.0598068,30.0268192 20.9892426,29.8943558 21.9215221,29.8993759 
		22.8512745,30.0335693 23.7869968,30.1002769 24.7167511,29.9622574 25.649107,29.9002113 26.5831795,29.8375092 
		27.5140686,29.8954487 28.4415207,30.0298271 29.3781242,29.9368305 30.3070621,30.0025501 31.2373409,29.8614349 
		32.1707726,30.0960445 33.0968094,30.1343956 34.0426674,29.9909668 34.9701309,30.1735229 35.9067879,30.2200375 
		36.8330078,30.0129623 37.7676048,29.9804325 38.7004929,30.1215553 39.6357727,29.9489632 40.5704842,30.0668259 
		41.5032692,29.9685402 42.4384422,29.9351311 43.37323,29.9797287 	"/>
</g>
<g>
	<polyline fill="none" stroke="#FFFFFF" stroke-width="2" stroke-linecap="round" stroke-linejoin="round" points="
		18.1939945,39.5141029 19.0569572,39.6070862 19.9225235,39.67733 20.7895031,39.5606194 21.6526318,39.6358719 
		22.5178032,39.7215462 23.3889217,39.6603355 24.2508736,39.7961273 25.1271973,39.6053276 25.9909306,39.7392044 
		26.8560047,39.7049561 27.7229366,39.635376 28.5935173,39.6828308 29.4562931,39.7931595 30.3322163,39.5870285 
		31.196846,39.7704086 32.0659561,39.7413788 32.9390488,39.7659378 33.8070221,39.7218132 34.6704559,39.5173645 
		35.5401649,39.487339 36.4127846,39.712677 	"/>
</g>
<g>
	<polyline fill="none" stroke="#FFFFFF" stroke-width="2" stroke-linecap="round" stroke-linejoin="round" points="
		18.1928444,34.9257088 19.1401405,35.0106888 20.0768661,34.813076 21.022728,34.7967567 21.9614677,34.9608994 
		22.9107647,34.8386765 23.8545361,34.9872513 24.7924747,34.7398643 25.7421741,34.9077148 26.6854382,34.9215202 
		27.627512,34.7660637 28.5719166,34.8007278 29.5164337,34.8081818 30.4587231,34.7835083 31.4039497,34.7399063 
		32.348587,34.810276 33.2918053,34.9311218 34.2365417,34.8786659 35.1804237,34.7566872 36.1208076,34.6972466 
		37.0676384,34.87006 38.0100403,34.8803787 38.9548264,34.7752533 39.8989182,34.8360558 40.8436012,34.9378014 
		41.791317,34.9705505 42.7295189,34.7695847 43.6763,34.7257195 44.6158333,34.8763161 45.5698662,34.7340698 
		46.5097961,34.9711723 47.4545441,34.8608627 48.3961601,34.6954651 49.352108,34.8894539 50.2907906,34.6809196 
		51.2379951,34.667347 52.1855927,34.6698608 	"/>
</g>
<g>
	<polyline fill="none" stroke="#FFFFFF" stroke-width="2" stroke-linecap="round" stroke-linejoin="round" points="
		6.7252259,39.3677216 5.832274,38.9779396 4.9264355,38.6169167 4.0443864,38.3309059 3.8438208,37.6597137 3.7544329,36.9053345 
		3.4947686,36.1800079 3.2914414,35.4281387 3.374121,34.5151711 3.3871756,33.6099129 3.4195926,32.7111969 3.6415246,31.8044281 
		3.5661395,30.9025364 3.4588978,30.0013294 3.36321,29.1019764 3.398629,28.1892605 3.1522772,27.2995186 3.1951718,26.3941193 
		3.1234536,25.4865437 3.1745117,24.5816498 3.2092042,23.6775532 3.2154303,22.7707691 3.1547148,21.865799 2.9508739,21.064579 
		3.122628,20.2331161 2.8617628,19.4345417 2.7774482,18.6250401 2.6970427,17.8129253 2.8038125,16.9992542 3.0952456,16.0527992 
		3.5875645,15.1770267 3.9002805,14.215229 4.5746608,13.8501472 5.3079605,13.6465473 5.96067,13.254426 6.6639109,12.9047623 
		7.5910082,13.1389122 8.5130978,13.002923 9.4229612,13.1556253 10.3323088,13.0468588 11.2518444,13.0572004 
		12.1613503,12.8931627 13.0749102,12.8758373 13.988142,13.0366735 14.9021311,12.9792471 15.8149338,12.9753838 
		16.7323799,12.8742476 17.6455727,12.9235439 18.5566273,12.9976006 19.4711437,13.0174074 20.385458,12.9787254 
		21.2972145,13.1077747 22.2129955,13.0715494 23.1261997,12.958972 24.049242,13.0474682 24.9579601,12.9062614 
		25.871582,12.8531818 26.7806053,12.6516533 27.6960526,12.7399235 28.612587,12.8615847 29.5218639,12.6661339 
		30.442564,12.8455162 31.3538094,12.6110897 32.2677422,12.7415695 33.1831093,12.8019447 34.096962,12.7871389 
		35.0095711,12.7970514 35.9269409,12.7998943 36.8385658,12.9972372 37.7533951,12.8105421 38.6700172,12.8729544 
		39.5854759,12.844492 40.4968948,12.7654219 41.4171562,12.8652792 42.3260536,12.6555996 43.2387733,12.6136189 
		44.1529884,12.5421648 45.0724487,12.6043186 45.9873924,12.5270205 46.904789,12.638133 47.822422,12.5970917 
		48.7387085,12.6029701 49.6549187,12.6755657 50.5719147,12.7129784 51.4261703,13.2089033 52.3517342,13.5465755 
		53.2588882,13.8966961 53.615036,14.7867584 54.2114983,15.5812302 54.5945892,16.4573326 54.7205238,16.5894222 	"/>
</g>
<g>
	<polyline fill="none" stroke="#FFFFFF" stroke-width="2" stroke-linecap="round" stroke-linejoin="round" points="
		10.5760956,44.0668907 9.7078037,43.7343178 8.8243694,43.435318 7.8928671,43.1739426 7.8057861,42.1381226 7.3561912,41.2216148 
		7.1335545,40.2362671 7.1485357,39.3215332 7.4107485,38.4305077 7.4939246,37.5224571 7.3093581,36.6219063 7.2750993,35.7179108 
		7.1999545,34.8160667 7.1743431,33.9141273 7.2294741,33.005867 7.0107789,32.110424 6.9643426,31.2079315 6.9908566,30.2999821 
		7.0247788,29.3937416 7.0046873,28.4886646 6.9816294,27.5789108 6.9706802,26.6777782 7.0491652,25.8500423 6.8731661,25.0482826 
		6.7691641,24.2407627 6.7134838,23.4289436 6.8330536,22.6121025 6.8575459,21.8177242 7.149157,20.9090672 7.3426375,19.9382687 
		7.7612534,19.0370007 8.6947803,18.6463451 9.5765486,18.1707268 10.52388,17.8279629 11.443656,17.9740028 12.3550892,17.7179871 
		13.2676201,17.7662735 14.1791029,17.7348824 15.1014071,17.8124981 16.0103855,17.7005615 16.9332066,17.6182442 
		17.8276176,17.9368038 18.7537479,17.8117886 19.66078,17.7756653 20.5777512,17.8253422 21.4886723,17.7106457 
		22.4038715,17.7581844 23.3178062,17.7091274 24.2314453,17.6053734 25.1438522,17.7618141 26.0609016,17.7079639 
		26.9760475,17.6159477 27.8895969,17.7718658 28.800127,17.5854111 29.7145042,17.5726566 30.6316872,17.7037582 
		31.5401077,17.4734879 32.4616318,17.6923714 33.3718605,17.5003853 34.2879295,17.576992 35.2015076,17.6762314 
		36.1154366,17.6269283 37.0336876,17.6006775 37.9482536,17.6696815 38.8579559,17.8001499 39.7727776,17.8123302 
		40.6902428,17.6724129 41.6024895,17.6565552 42.5183334,17.7887363 43.4300804,17.6260853 44.338028,17.5418243 
		45.2557678,17.5094471 46.1815414,17.6230965 47.0918465,17.6005859 48.0063782,17.5257092 48.9187698,17.3589001 
		49.8328094,17.3190193 50.7537079,17.4474716 51.6712036,17.3414536 52.5898323,17.3979225 53.4945335,17.644413 
		54.4146919,17.6235085 55.3709068,17.8530502 56.2971153,18.1818504 57.2238998,18.5829315 57.5427132,19.5461121 
		57.9157295,20.4591484 58.2975273,21.3563366 58.2800674,21.2757092 	"/>
</g>
<g>
	<polygon fill="#FFFFFF" points="20.4022865,12.7283211 20.5400639,11.8328972 20.9089203,11.0443678 20.9640827,10.1803675 
		21.1917152,9.3185854 22.0364017,9.4898996 22.8521633,9.2934084 23.6607761,9.3983603 24.489357,9.4331799 25.3150043,9.3689032 
		26.1387787,9.2773952 26.9918461,9.1369553 27.8496017,9.0994263 28.6729507,9.2683086 28.9519005,10.1403675 
		29.4160004,10.9751463 29.7013092,11.8868294 30.2381592,12.7656431 29.3275528,12.8487701 28.4928398,12.7171125 
		27.6569099,12.7494659 26.8561153,12.6754751 26.0570774,12.8117886 25.255209,12.6665068 24.4574776,12.6181726 
		23.6386833,12.7599277 22.8460655,12.5511599 22.0442276,12.4730053 21.2605419,12.7344265 	"/>
	<polygon fill="none" stroke="#FFFFFF" stroke-width="2" stroke-linecap="round" stroke-linejoin="round" points="
		20.4022865,12.7283211 20.5400639,11.8328972 20.9089203,11.0443678 20.9640827,10.1803675 21.1917152,9.3185854 
		22.0364017,9.4898996 22.8521633,9.2934084 23.6607761,9.3983603 24.489357,9.4331799 25.3150043,9.3689032 26.1387787,9.2773952 
		26.9918461,9.1369553 27.8496017,9.0994263 28.6729507,9.2683086 28.9519005,10.1403675 29.4160004,10.9751463 
		29.7013092,11.8868294 30.2381592,12.7656431 29.3275528,12.8487701 28.4928398,12.7171125 27.6569099,12.7494659 
		26.8561153,12.6754751 26.0570774,12.8117886 25.255209,12.6665068 24.4574776,12.6181726 23.6386833,12.7599277 
		22.8460655,12.5511599 22.0442276,12.4730053 21.2605419,12.7344265 	"/>
</g>
<g>
	<polygon fill="#FFFFFF" points="42.5729942,20.3631535 42.682373,19.6516266 42.8603363,18.88764 42.8676453,18.0914974 
		43.0842705,17.3310471 43.2091293,16.5469227 44.0739784,16.4647369 44.9305763,16.5579109 45.7877007,16.6498909 
		46.6115112,16.7029591 47.4389191,17 48.2650909,17 49.0939064,16.6858845 49.9233856,16.627861 50.7627602,16.6601849 
		51.1093292,17.3623829 51.1663971,18.1717472 51.4532547,18.9061909 51.9292831,19.5784264 52.1760254,20.4316921 
		51.314373,20.4102077 50.5539551,20.2247257 49.7822838,20.2299271 48.9933586,20.4365368 48.1975784,20.5830879 
		47.3765717,20.4422932 46.5814972,20.453371 45.7746162,20.4836826 44.9740257,20.3665905 44.1553841,20.3760185 
		43.3362961,20.396986 	"/>
	<polygon fill="none" stroke="#FFFFFF" stroke-width="2" stroke-linecap="round" stroke-linejoin="round" points="
		42.5729942,20.3631535 42.682373,19.6516266 42.8603363,18.88764 42.8676453,18.0914974 43.0842705,17.3310471 
		43.2091293,16.5469227 44.0739784,16.4647369 44.9305763,16.5579109 45.7877007,16.6498909 46.6115112,16.7029591 47.4389191,17 
		48.2650909,17 49.0939064,16.6858845 49.9233856,16.627861 50.7627602,16.6601849 51.1093292,17.3623829 51.1663971,18.1717472 
		51.4532547,18.9061909 51.9292831,19.5784264 52.1760254,20.4316921 51.314373,20.4102077 50.5539551,20.2247257 
		49.7822838,20.2299271 48.9933586,20.4365368 48.1975784,20.5830879 47.3765717,20.4422932 46.5814972,20.453371 
		45.7746162,20.4836826 44.9740257,20.3665905 44.1553841,20.3760185 43.3362961,20.396986 	"/>
</g>
</svg>
