<svg version="1.1" id="Layer_1" xmlns="http://www.w3.org/2000/svg" xmlns:xlink="http://www.w3.org/1999/xlink" x="0px" y="0px"
	 viewBox="0 0 24 16" enable-background="new 0 0 24 16" xml:space="preserve">
<g>
	<g>
		<polyline fill="none" stroke="white" stroke-width="2" stroke-linecap="round" stroke-linejoin="round" points="1.7008,11.6327
			2.5864,11.7317 3.4689,11.6853 4.3539,11.6387 5.2392,11.5998 		"/>
	</g>
	<g>
		<polyline fill="none" stroke="white" stroke-width="2" stroke-linecap="round" stroke-linejoin="round" points="3.4325,9.0618
			3.4742,9.9438 3.3426,10.8335 3.4381,11.7162 3.5779,12.5952 3.6433,13.4789 3.4528,14.3703 		"/>
	</g>
</g>
<g>
	<polygon fill="none" stroke="white" stroke-width="2" stroke-linecap="round" stroke-linejoin="round" points="9.1413,1.9171
		8.2606,2.6473 7.4494,1.9171 8.2606,1.0595 	"/>
</g>
<g>
	<polygon fill="white" points="21.8033,8.8007 21.3574,9.5637 21.1054,10.4513 20.635,11.2347 21.1781,11.7558 21.7977,12.1884
		22.3223,12.6826 21.5227,12.6727 20.6985,12.5891 19.8663,12.4409 19.5064,13.2942 19.0606,14.0942 18.6989,14.8348
		18.5352,14.0172 18.4113,13.1038 18.4136,12.2164 17.7622,11.9056 17.0549,11.6256 16.2989,11.4947 15.5777,11.2745
		16.445,10.9899 17.3518,10.8534 18.3039,10.7481 18.3131,9.8342 18.2627,8.956 18.3385,8.2059 18.7563,8.958 19.3279,9.7999
		20.2186,9.5258 20.9822,9.0515 	"/>
	<polygon fill="none" stroke="white" stroke-width="2" stroke-linecap="round" stroke-linejoin="round" points="21.8033,8.8007
		21.3574,9.5637 21.1054,10.4513 20.635,11.2347 21.1781,11.7558 21.7977,12.1884 22.3223,12.6826 21.5227,12.6727 20.6985,12.5891
		19.8663,12.4409 19.5064,13.2942 19.0606,14.0942 18.6989,14.8348 18.5352,14.0172 18.4113,13.1038 18.4136,12.2164
		17.7622,11.9056 17.0549,11.6256 16.2989,11.4947 15.5777,11.2745 16.445,10.9899 17.3518,10.8534 18.3039,10.7481 18.3131,9.8342
		18.2627,8.956 18.3385,8.2059 18.7563,8.958 19.3279,9.7999 20.2186,9.5258 20.9822,9.0515 	"/>
</g>
</svg>
