<svg version="1.1" id="Layer_1" xmlns="http://www.w3.org/2000/svg" xmlns:xlink="http://www.w3.org/1999/xlink" x="0px" y="0px"
	 viewBox="0 0 22 26" enable-background="new 0 0 22 26" xml:space="preserve">
<g>
	<g>
		<polyline fill="none" stroke="white" stroke-width="2" stroke-linecap="round" stroke-linejoin="round" points="9.5381,18.4006
			10.381,18.3957 11.2147,18.3683 11.9283,18.3431 12.6454,18.4291 13.3633,18.3657 13.6991,18.17 		"/>
	</g>
	<g>
		<polyline fill="none" stroke="white" stroke-width="2" stroke-linecap="round" stroke-linejoin="round" points="11.623,21.3714
			11.5713,20.7085 11.4777,20.0463 11.6007,19.2087 11.6471,18.3629 11.513,17.5334 11.6273,16.7086 11.6324,15.4346
			11.4956,15.3754 		"/>
	</g>
</g>
<g>
	<polygon fill="none" stroke="white" stroke-width="2" stroke-linecap="round" stroke-linejoin="round" points="20.5759,24.3433
		20.1039,24.8284 19.3885,24.3433 20.1039,23.7279 	"/>
</g>
<g>
	<polygon fill="none" stroke="white" stroke-width="2" stroke-linecap="round" stroke-linejoin="round" points="1.8391,17.3918
		1.6173,17.5764 1.2413,17.3918 1.6173,17.0542 	"/>
</g>
<g>
	<polygon fill="white" points="19.1003,1.8392 18.6406,2.6325 18.3749,3.5504 17.8909,4.3642 18.4544,4.9039 19.0945,5.3554
		19.6396,5.8682 18.8079,5.8533 17.9517,5.7647 17.0876,5.6114 16.714,6.4954 16.2544,7.3263 15.8785,8.0976 15.7118,7.2482
		15.5844,6.3028 15.5832,5.3832 14.9066,5.0635 14.1741,4.7746 13.3926,4.6346 12.6461,4.4054 13.5445,4.1134 14.4825,3.9696
		15.4659,3.8568 15.4765,2.911 15.4274,2.0006 15.5042,1.2185 15.9414,2.0022 16.5322,2.8757 17.4538,2.5892 18.2482,2.1024 	"/>
	<polygon fill="none" stroke="white" stroke-width="2" stroke-linecap="round" stroke-linejoin="round" points="19.1003,1.8392
		18.6406,2.6325 18.3749,3.5504 17.8909,4.3642 18.4544,4.9039 19.0945,5.3554 19.6396,5.8682 18.8079,5.8533 17.9517,5.7647
		17.0876,5.6114 16.714,6.4954 16.2544,7.3263 15.8785,8.0976 15.7118,7.2482 15.5844,6.3028 15.5832,5.3832 14.9066,5.0635
		14.1741,4.7746 13.3926,4.6346 12.6461,4.4054 13.5445,4.1134 14.4825,3.9696 15.4659,3.8568 15.4765,2.911 15.4274,2.0006
		15.5042,1.2185 15.9414,2.0022 16.5322,2.8757 17.4538,2.5892 18.2482,2.1024 	"/>
</g>
</svg>
