<?xml version="1.0" encoding="utf-8"?>
<!-- Generator: Adobe Illustrator 19.1.0, SVG Export Plug-In . SVG Version: 6.00 Build 0)  -->
<svg version="1.1" id="Layer_1" xmlns="http://www.w3.org/2000/svg" xmlns:xlink="http://www.w3.org/1999/xlink" x="0px" y="0px"
	 viewBox="0 0 70.8700027 73.6999969" enable-background="new 0 0 70.8700027 73.6999969" xml:space="preserve">
<g>
	<polygon fill="none" stroke="#FFFFFF" stroke-width="2" stroke-linecap="round" stroke-linejoin="round" points="
		31.1658154,16.0584564 30.8660316,16.9290867 30.7770748,17.8435898 30.604948,18.765377 29.9440212,19.4341526 
		29.2558498,20.0422993 28.6292191,20.759676 27.7031097,20.9818401 26.7850037,21.1263351 25.9138584,21.4164848 
		25.009697,21.2460194 24.1804142,20.8012733 23.3266125,20.5421753 22.6862202,19.9361572 22.0001926,19.3300438 
		21.382906,18.6740341 21.0576687,17.8345394 20.9701481,16.9180698 20.6850433,16.0576305 20.7751808,15.1464663 
		20.9938774,14.2571621 21.3003387,13.394104 21.9935951,12.8099241 22.6811428,12.2072525 23.3642445,11.6377831 
		24.1528149,11.1805925 25.0327835,10.9015121 25.9149055,10.6581717 26.8501377,10.7447147 27.7264023,11.0949059 
		28.6328621,11.3485022 29.2585106,12.0514812 30.0476055,12.5874147 30.615118,13.3430347 30.8496075,14.2325172 
		31.0733757,15.1279078 	"/>
</g>
<g>
	<polygon fill="none" stroke="#FFFFFF" stroke-width="2" stroke-linecap="round" stroke-linejoin="round" points="
		33.6109467,37.2517967 33.4724388,36.2419853 33.5916367,35.3117332 33.5614738,34.3847084 33.6411095,33.4410515 
		33.6207161,32.4904823 33.634243,31.5331249 33.3594131,30.6542816 33.0851784,29.7809772 32.9385719,28.8779945 
		32.501297,28.0649452 32.1140747,27.2192497 31.6136436,26.4151993 30.7152386,26.0535202 30.0155125,25.410717 
		29.1884689,24.9631195 28.2817497,24.7630558 27.3725357,24.5839195 26.4341908,24.5717964 26.4565086,24.5677605 
		25.541666,24.6672783 24.6301003,24.8110752 23.7838364,25.177063 22.9375515,25.5250015 22.2741165,26.194025 
		21.3876038,26.5325642 21.044302,27.4042625 20.4358482,28.10079 19.9519157,28.8806343 19.7365761,29.7710209 
		19.6451263,30.6916409 19.3496704,31.5460777 19.4096661,32.4813499 19.4492149,33.4314384 19.3937035,34.3844299 
		19.2825775,35.3199539 19.2730618,36.265419 19.2169952,37.3074303 20.260004,37.2702751 21.2068691,37.2251358 
		22.1532612,37.0466156 23.1061878,37.0821419 24.0513039,37.3366661 25.004797,37.3569527 25.9615726,37.188343 
		26.9095383,37.382103 27.8662701,37.4287682 28.8179188,37.2982445 29.774107,37.2791557 30.7265587,37.2054787 
		31.6573467,37.1386032 32.5949974,37.0916061 	"/>
</g>
<g>
	<polygon fill="none" stroke="#FFFFFF" stroke-width="2" stroke-linecap="round" stroke-linejoin="round" points="
		65.9435959,16.0580387 65.8354111,16.9588242 65.6872482,17.85499 65.37146,18.7159672 64.7289124,19.3641109 
		64.1396866,20.0686398 63.470192,20.7341862 62.5623169,21.0182381 61.6447105,21.1827374 60.7702141,21.5469303 
		59.8879929,21.1412678 58.9878197,20.8762989 57.9893608,20.8708439 57.4214706,20.072464 56.7032471,19.4623318 
		56.1292839,18.7389984 55.9533997,17.8578739 55.6389694,16.9787388 55.5731544,16.0590553 55.897831,15.2247562 
		56.0510216,14.3325825 56.223217,13.4338427 56.8182602,12.7433386 57.6186562,12.26723 58.1049576,11.446804 
		59.0321999,11.3130102 59.9068413,11.076622 60.7689209,10.8206434 61.6904411,10.8805866 62.5589561,11.2304726 
		63.4564362,11.4005251 64.1120834,12.0298901 64.5680695,12.8418036 65.2105179,13.4922218 65.5780258,14.3086538 
		65.7895432,15.1764126 	"/>
</g>
<g>
	<polygon fill="none" stroke="#FFFFFF" stroke-width="2" stroke-linecap="round" stroke-linejoin="round" points="
		68.4518509,37.2319107 68.4855576,36.3411903 68.6463394,35.3647461 68.7008591,34.3819504 68.5184479,33.4383163 
		68.495903,32.4872055 68.5437088,31.522501 68.2697601,30.6380081 68.0420914,29.750927 67.8598938,28.8492317 
		67.3285599,28.0999584 66.715538,27.4082432 66.3497543,26.5351734 65.565773,26.023983 64.8126602,25.4854603 
		64.053299,24.9376564 63.1321793,24.794342 62.1990128,24.7852573 61.3048782,24.4408512 61.3022804,24.6683464 
		60.4006462,24.7686882 59.5442581,25.103178 58.6427727,25.1901054 57.8583565,25.6373463 57.0424957,26.0463181 
		56.3594856,26.6522789 55.8531342,27.3941269 55.263607,28.0914307 54.883709,28.9159546 54.5171928,29.7534733 
		54.4498596,30.6889381 53.9879913,31.5282822 54.08461,32.4861946 54.0180969,33.4378738 54.2722282,34.383667 
		54.1871796,35.3489265 54.0721169,36.3136673 54.1250801,37.2569351 55.0635185,37.4358521 56.039669,37.2403679 
		57.0057716,37.4743881 57.9577293,37.4487305 58.9104614,37.4267235 59.8623924,37.3320732 60.8114891,37.256916 
		61.7741089,37.3468132 62.718071,37.1300011 63.6732025,37.2460861 64.6273727,37.1632195 65.5855255,36.9961433 
		66.557724,37.270092 67.5472031,37.2444687 	"/>
</g>
<g>
	<polygon fill="none" stroke="#FFFFFF" stroke-width="2" stroke-linecap="round" stroke-linejoin="round" points="
		48.504734,6.3756223 48.3677101,7.2513719 48.0562592,8.1068401 47.7994308,8.9486599 47.182663,9.5606432 46.5352783,10.1842365 
		45.9246559,10.8514853 45.1001396,11.2617073 44.2249451,11.5319891 43.3391037,11.7252645 42.4788322,11.4184723 
		41.5698509,11.2154732 40.6374588,11.0581074 40.0489693,10.3222046 39.3335075,9.7256908 38.5959625,9.1123571 
		38.5808105,8.1579018 38.2509232,7.29003 38.1542397,6.3759356 38.3196564,5.496645 38.746685,4.6887293 38.9643745,3.8459873 
		39.5025902,3.1410973 40.1211815,2.4734561 40.6227112,1.6734099 41.5193596,1.3653041 42.4576378,1.2843009 43.3388214,1.0865066 
		44.2418442,1.184839 45.058754,1.6225201 45.8878937,1.9616978 46.6656761,2.4220498 47.3039017,3.0648255 47.8825417,3.7545695 
		48.192318,4.6003819 48.3773804,5.4930143 	"/>
</g>
<g>
	<polygon fill="none" stroke="#FFFFFF" stroke-width="2" stroke-linecap="round" stroke-linejoin="round" points="
		50.9470978,27.4769535 51.0946198,26.600481 51.1255989,25.6523418 50.9943695,24.7015095 51.184082,23.7558765 
		51.0674553,22.806633 50.9769859,21.8668766 50.778759,20.9706478 50.8485909,20.0090218 50.5588684,19.1127758 
		49.9164391,18.4303398 49.4647903,17.6117668 48.9027481,16.8714085 48.1228676,16.3758411 47.4328728,15.7451153 
		46.5516815,15.4365816 45.7057915,15.0591936 44.7789001,14.9626827 43.868412,14.7934246 43.8479881,14.8062944 
		42.9600906,15.042388 42.0376434,15.1264448 41.1039314,15.2314291 40.3717995,15.8318853 39.5482445,16.2749119 
		38.8841705,16.9159508 38.3474274,17.6363201 37.8175468,18.390667 37.2468834,19.145216 37.2780266,20.1029301 
		36.9533844,20.9631157 36.8944893,21.8680859 36.6746254,22.8061314 36.7452812,23.7544136 36.8901558,24.7022858 
		36.7235947,25.6238308 36.9402504,26.5522823 36.8451538,27.429512 37.7232132,27.5031662 38.6541138,27.5147953 
		39.5802994,27.5379047 40.5273666,27.5193501 41.4867172,27.6324959 42.4372177,27.5667019 43.386467,27.5893154 
		44.3392258,27.506094 45.292244,27.5036411 46.2443924,27.4428024 47.1987343,27.5067635 48.1536751,27.4703598 
		49.1032257,27.6010189 50.057476,27.4964161 	"/>
</g>
<g>
	<polygon fill="#FFFFFF" points="13.7379036,39.2924156 13.5486288,40.2014847 13.3843565,41.1055336 13.167613,41.9973869 
		12.4368429,42.5824471 11.8736219,43.3415565 11.1458931,43.8982468 10.3038645,44.2443161 9.3712893,44.3441391 
		8.4887571,44.5833321 7.5954127,44.4411316 6.7900023,43.9651985 5.8276768,43.8955841 5.2464933,43.1680946 4.5311699,42.6096802 
		3.9081211,41.9393997 3.6527023,41.0424271 3.3906991,40.1577644 3.104557,39.2940788 3.3738461,38.4280663 3.6030889,37.5326996 
		3.8545687,36.6171494 4.6424499,36.0742836 5.2126465,35.3606224 5.8410339,34.7112999 6.7080584,34.4671783 7.6275787,34.4105034 
		8.4874372,34.142067 9.3846865,34.2616043 10.2715206,34.5045929 11.2240057,34.5519409 11.7522621,35.3454933 
		12.3966665,36.0027275 13.0243006,36.6741905 13.1590366,37.5662498 13.3687801,38.4459648 	"/>
	<polygon fill="none" stroke="#FFFFFF" stroke-width="2" stroke-linecap="round" stroke-linejoin="round" points="
		13.7379036,39.2924156 13.5486288,40.2014847 13.3843565,41.1055336 13.167613,41.9973869 12.4368429,42.5824471 
		11.8736219,43.3415565 11.1458931,43.8982468 10.3038645,44.2443161 9.3712893,44.3441391 8.4887571,44.5833321 
		7.5954127,44.4411316 6.7900023,43.9651985 5.8276768,43.8955841 5.2464933,43.1680946 4.5311699,42.6096802 3.9081211,41.9393997 
		3.6527023,41.0424271 3.3906991,40.1577644 3.104557,39.2940788 3.3738461,38.4280663 3.6030889,37.5326996 3.8545687,36.6171494 
		4.6424499,36.0742836 5.2126465,35.3606224 5.8410339,34.7112999 6.7080584,34.4671783 7.6275787,34.4105034 8.4874372,34.142067 
		9.3846865,34.2616043 10.2715206,34.5045929 11.2240057,34.5519409 11.7522621,35.3454933 12.3966665,36.0027275 
		13.0243006,36.6741905 13.1590366,37.5662498 13.3687801,38.4459648 	"/>
</g>
<g>
	<polygon fill="#FFFFFF" points="16.0018864,60.3055801 16.2055016,59.4527779 16.1257191,58.5357552 16.0183754,57.6202354 
		16.1254635,56.6731873 16.0207157,55.7256927 15.992136,54.7829628 15.9256954,53.8807564 15.7051153,53.0018082 
		15.5755281,52.088707 15.0482998,51.3249855 14.5555077,50.5537567 14.0223246,49.8152084 13.2426748,49.3348389 
		12.5131674,48.7629089 11.724021,48.2930489 10.8335762,48.1014709 9.9340239,47.9075546 9.0315485,47.7671127 
		9.0029593,47.6297951 8.1052284,47.9136238 7.2010589,48.1137428 6.2881012,48.2463036 5.5000386,48.7206497 4.8502865,49.3965225 
		4.0983524,49.9093628 3.3782461,50.5014534 2.816797,51.2339439 2.3538327,52.042923 2.1315434,52.939415 2.2127724,53.8827057 
		1.8162178,54.7646751 2.0357616,55.7229004 1.9500451,56.6712799 2.0142326,57.6229591 1.7960281,58.5910416 1.9269397,59.5761986 
		1.7358316,60.597435 2.7651134,60.4608994 3.7446847,60.6447868 4.7258697,60.7008781 5.6754208,60.5086594 6.6287251,60.5567093 
		7.5820599,60.5709839 8.5355434,60.6374588 9.4883661,60.6010818 10.4389162,60.4968719 11.3894835,60.4326935 
		12.3455811,60.5364647 13.2988234,60.4500618 14.2162552,60.3887863 15.1402216,60.4396019 	"/>
	<polygon fill="none" stroke="#FFFFFF" stroke-width="2" stroke-linecap="round" stroke-linejoin="round" points="
		16.0018864,60.3055801 16.2055016,59.4527779 16.1257191,58.5357552 16.0183754,57.6202354 16.1254635,56.6731873 
		16.0207157,55.7256927 15.992136,54.7829628 15.9256954,53.8807564 15.7051153,53.0018082 15.5755281,52.088707 
		15.0482998,51.3249855 14.5555077,50.5537567 14.0223246,49.8152084 13.2426748,49.3348389 12.5131674,48.7629089 
		11.724021,48.2930489 10.8335762,48.1014709 9.9340239,47.9075546 9.0315485,47.7671127 9.0029593,47.6297951 
		8.1052284,47.9136238 7.2010589,48.1137428 6.2881012,48.2463036 5.5000386,48.7206497 4.8502865,49.3965225 4.0983524,49.9093628 
		3.3782461,50.5014534 2.816797,51.2339439 2.3538327,52.042923 2.1315434,52.939415 2.2127724,53.8827057 1.8162178,54.7646751 
		2.0357616,55.7229004 1.9500451,56.6712799 2.0142326,57.6229591 1.7960281,58.5910416 1.9269397,59.5761986 1.7358316,60.597435 
		2.7651134,60.4608994 3.7446847,60.6447868 4.7258697,60.7008781 5.6754208,60.5086594 6.6287251,60.5567093 7.5820599,60.5709839 
		8.5355434,60.6374588 9.4883661,60.6010818 10.4389162,60.4968719 11.3894835,60.4326935 12.3455811,60.5364647 
		13.2988234,60.4500618 14.2162552,60.3887863 15.1402216,60.4396019 	"/>
</g>
<g>
	<polygon fill="#FFFFFF" points="48.4610405,39.2944069 48.2732468,40.1751289 48.1120453,41.0711403 47.9814339,41.9735756 
		47.3676605,42.6734505 46.6637955,43.2909889 46.0552406,43.995903 45.1792145,44.3349419 44.2337151,44.431015 
		43.3412437,44.7194214 42.4908829,44.382164 41.6257477,44.0719604 40.7260284,43.8200684 40.0893555,43.1646004 
		39.4859695,42.4875069 38.7648201,41.9359741 38.5926361,41.0424042 38.4024506,40.15242 38.2140884,39.2940712 
		38.3635902,38.428627 38.6753654,37.5704041 38.8822174,36.71838 39.3618507,35.958271 39.9935417,35.2985535 
		40.7122841,34.7388496 41.5693741,34.4231377 42.4493294,34.137989 43.3403435,33.8437195 44.2517395,34.0819359 
		45.1659012,34.2703667 45.9731216,34.7311211 46.5923157,35.3687935 47.2643585,36.0029793 47.8698387,36.6765556 
		48.1812897,37.5134697 48.3096581,38.4102783 	"/>
	<polygon fill="none" stroke="#FFFFFF" stroke-width="2" stroke-linecap="round" stroke-linejoin="round" points="
		48.4610405,39.2944069 48.2732468,40.1751289 48.1120453,41.0711403 47.9814339,41.9735756 47.3676605,42.6734505 
		46.6637955,43.2909889 46.0552406,43.995903 45.1792145,44.3349419 44.2337151,44.431015 43.3412437,44.7194214 
		42.4908829,44.382164 41.6257477,44.0719604 40.7260284,43.8200684 40.0893555,43.1646004 39.4859695,42.4875069 
		38.7648201,41.9359741 38.5926361,41.0424042 38.4024506,40.15242 38.2140884,39.2940712 38.3635902,38.428627 
		38.6753654,37.5704041 38.8822174,36.71838 39.3618507,35.958271 39.9935417,35.2985535 40.7122841,34.7388496 
		41.5693741,34.4231377 42.4493294,34.137989 43.3403435,33.8437195 44.2517395,34.0819359 45.1659012,34.2703667 
		45.9731216,34.7311211 46.5923157,35.3687935 47.2643585,36.0029793 47.8698387,36.6765556 48.1812897,37.5134697 
		48.3096581,38.4102783 	"/>
</g>
<g>
	<polygon fill="#FFFFFF" points="51.0680504,60.518959 51.1323357,59.5465546 51.0241623,58.5840073 50.8437157,57.6212959 
		51.0961876,56.6765175 50.9411469,55.7235832 51.0441437,54.7719612 50.7123947,53.8981667 50.6861382,52.9652061 
		50.4056358,52.0978889 49.9084244,51.3480453 49.3256416,50.6409378 48.8275909,49.8669243 48.0448914,49.3832626 
		47.2529106,48.9122505 46.5548172,48.3436508 45.6916885,48.0483398 44.7773361,47.9020576 43.8686829,47.6403008 
		43.9059296,48.0260582 42.9512939,47.9498596 42.0369453,48.0446053 41.086071,48.1075249 40.4619331,48.8549995 
		39.7006836,49.3745728 38.9194527,49.8747635 38.2678871,50.5370407 37.7167854,51.2820816 37.24757,52.0625687 
		37.1128006,52.9558983 36.8899918,53.8630104 36.7102737,54.7764015 36.6209869,55.7209129 36.7269211,56.6719246 
		36.5338898,57.6217804 36.9873352,58.5470085 37,59.4891777 37,60.5135117 37.861599,60.5557213 38.7243271,60.4409561 
		39.6212273,60.4439201 40.5506401,60.5373878 41.4924355,60.4568558 42.4396858,60.4173355 43.3883705,60.4526939 
		44.3422241,60.5457802 45.2925568,60.2967606 46.2434235,60.5213013 47.1972008,60.5818939 48.1537476,60.4478111 
		49.1198845,60.5839386 50.0935669,60.4073639 	"/>
	<polygon fill="none" stroke="#FFFFFF" stroke-width="2" stroke-linecap="round" stroke-linejoin="round" points="
		51.0680504,60.518959 51.1323357,59.5465546 51.0241623,58.5840073 50.8437157,57.6212959 51.0961876,56.6765175 
		50.9411469,55.7235832 51.0441437,54.7719612 50.7123947,53.8981667 50.6861382,52.9652061 50.4056358,52.0978889 
		49.9084244,51.3480453 49.3256416,50.6409378 48.8275909,49.8669243 48.0448914,49.3832626 47.2529106,48.9122505 
		46.5548172,48.3436508 45.6916885,48.0483398 44.7773361,47.9020576 43.8686829,47.6403008 43.9059296,48.0260582 
		42.9512939,47.9498596 42.0369453,48.0446053 41.086071,48.1075249 40.4619331,48.8549995 39.7006836,49.3745728 
		38.9194527,49.8747635 38.2678871,50.5370407 37.7167854,51.2820816 37.24757,52.0625687 37.1128006,52.9558983 
		36.8899918,53.8630104 36.7102737,54.7764015 36.6209869,55.7209129 36.7269211,56.6719246 36.5338898,57.6217804 
		36.9873352,58.5470085 37,59.4891777 37,60.5135117 37.861599,60.5557213 38.7243271,60.4409561 39.6212273,60.4439201 
		40.5506401,60.5373878 41.4924355,60.4568558 42.4396858,60.4173355 43.3883705,60.4526939 44.3422241,60.5457802 
		45.2925568,60.2967606 46.2434235,60.5213013 47.1972008,60.5818939 48.1537476,60.4478111 49.1198845,60.5839386 
		50.0935669,60.4073639 	"/>
</g>
<g>
	<polygon fill="#FFFFFF" points="31.1560535,50.9122047 30.8874493,51.7692337 30.721096,52.6624603 30.3871536,53.4954071 
		29.7776432,54.1476097 29.2477703,54.8959351 28.5740967,55.5183792 27.6626816,55.7246132 26.8196487,56.1282806 
		25.9131794,56.441082 25.0016117,56.1602859 24.1472816,55.8045082 23.3346615,55.3824768 22.5522747,54.91259 
		22.0068665,54.1655769 21.2468014,53.6066093 21.2288971,52.6492081 20.8996067,51.7920456 20.6047592,50.9113007 
		20.8637009,50.0325775 21.0497761,49.1458855 21.3057518,48.2493591 22.1058884,47.7536583 22.6620808,47.04002 
		23.36623,46.498867 24.1685028,46.1072807 25.0698433,46.0034332 25.9134674,45.5785713 26.7380848,46.0697021 
		27.6594429,46.1051559 28.4543266,46.5106659 29.1696701,47.0253601 29.6808376,47.7787056 30.4715347,48.2792244 
		30.5902805,49.2038841 30.8927917,50.0542793 	"/>
	<polygon fill="none" stroke="#FFFFFF" stroke-width="2" stroke-linecap="round" stroke-linejoin="round" points="
		31.1560535,50.9122047 30.8874493,51.7692337 30.721096,52.6624603 30.3871536,53.4954071 29.7776432,54.1476097 
		29.2477703,54.8959351 28.5740967,55.5183792 27.6626816,55.7246132 26.8196487,56.1282806 25.9131794,56.441082 
		25.0016117,56.1602859 24.1472816,55.8045082 23.3346615,55.3824768 22.5522747,54.91259 22.0068665,54.1655769 
		21.2468014,53.6066093 21.2288971,52.6492081 20.8996067,51.7920456 20.6047592,50.9113007 20.8637009,50.0325775 
		21.0497761,49.1458855 21.3057518,48.2493591 22.1058884,47.7536583 22.6620808,47.04002 23.36623,46.498867 
		24.1685028,46.1072807 25.0698433,46.0034332 25.9134674,45.5785713 26.7380848,46.0697021 27.6594429,46.1051559 
		28.4543266,46.5106659 29.1696701,47.0253601 29.6808376,47.7787056 30.4715347,48.2792244 30.5902805,49.2038841 
		30.8927917,50.0542793 	"/>
</g>
<g>
	<polygon fill="#FFFFFF" points="33.4455147,71.9450684 33.4891701,71.086113 33.3468475,70.1651917 33.320446,69.2339783 
		33.4893684,68.2876968 33.7580872,67.3554001 33.6267319,66.3988876 33.4030418,65.5102768 33.4196663,64.5492859 
		33.2030029,63.6146736 32.616951,62.870163 32.0671768,62.1292763 31.3607426,61.5283051 30.7352314,60.8499146 
		29.9582748,60.3654747 29.1455479,59.922966 28.2315769,59.8101578 27.3577461,59.5157547 26.4046307,59.5460396 
		26.4508152,59.4037094 25.5525208,59.5520782 24.6591015,59.7948837 23.769268,59.9960136 22.9084015,60.3313255 
		22.1793327,60.906086 21.4583817,61.4588776 20.7883263,62.0957985 20.2436104,62.8437195 19.9354248,63.7252121 
		19.7391644,64.5963593 19.6251049,65.5078735 19.2294884,66.381134 19.3999596,67.3406525 19.2482471,68.2879181 
		19.2247105,69.2360229 19.2125187,70.2068405 19.3620262,71.1867828 19.1737061,72.2050934 20.1983929,72.1672287 
		21.1745472,72.2745209 22.1517448,72.125145 23.1055031,72.2043152 24.0604744,72.2104111 25.0089645,71.9814606 
		25.9585228,72.1217728 26.9145775,72.1170959 27.865675,72.1752625 28.8155556,72.1233368 29.7701283,72.0873413 
		30.7260475,72.1129456 31.6509495,72.0401611 32.5923691,72.1660233 	"/>
	<polygon fill="none" stroke="#FFFFFF" stroke-width="2" stroke-linecap="round" stroke-linejoin="round" points="
		33.4455147,71.9450684 33.4891701,71.086113 33.3468475,70.1651917 33.320446,69.2339783 33.4893684,68.2876968 
		33.7580872,67.3554001 33.6267319,66.3988876 33.4030418,65.5102768 33.4196663,64.5492859 33.2030029,63.6146736 
		32.616951,62.870163 32.0671768,62.1292763 31.3607426,61.5283051 30.7352314,60.8499146 29.9582748,60.3654747 
		29.1455479,59.922966 28.2315769,59.8101578 27.3577461,59.5157547 26.4046307,59.5460396 26.4508152,59.4037094 
		25.5525208,59.5520782 24.6591015,59.7948837 23.769268,59.9960136 22.9084015,60.3313255 22.1793327,60.906086 
		21.4583817,61.4588776 20.7883263,62.0957985 20.2436104,62.8437195 19.9354248,63.7252121 19.7391644,64.5963593 
		19.6251049,65.5078735 19.2294884,66.381134 19.3999596,67.3406525 19.2482471,68.2879181 19.2247105,69.2360229 
		19.2125187,70.2068405 19.3620262,71.1867828 19.1737061,72.2050934 20.1983929,72.1672287 21.1745472,72.2745209 
		22.1517448,72.125145 23.1055031,72.2043152 24.0604744,72.2104111 25.0089645,71.9814606 25.9585228,72.1217728 
		26.9145775,72.1170959 27.865675,72.1752625 28.8155556,72.1233368 29.7701283,72.0873413 30.7260475,72.1129456 
		31.6509495,72.0401611 32.5923691,72.1660233 	"/>
</g>
</svg>
