<?xml version="1.0" encoding="utf-8"?>
<!-- Generator: Adobe Illustrator 19.1.0, SVG Export Plug-In . SVG Version: 6.00 Build 0)  -->
<svg version="1.1" id="Layer_1" xmlns="http://www.w3.org/2000/svg" xmlns:xlink="http://www.w3.org/1999/xlink" x="0px" y="0px"
	 viewBox="0 0 45.3499985 59.5299988" enable-background="new 0 0 45.3499985 59.5299988" xml:space="preserve">
<g>
	<g>
		<g>
			<polyline fill="none" stroke="#248FED" stroke-width="2" stroke-linecap="round" stroke-linejoin="round" points="
				29.0431957,48.0288544 28.9915562,47.7011757 29.9909019,47.7273064 30.9782848,47.7323074 31.9639015,47.9548187 
				32.9432411,47.7126617 33.9368782,47.7568321 34.9269066,47.7600861 35.9113808,47.6612892 36.9023933,47.7064056 
				37.8919411,47.5718956 38.6641197,47.5952911 39.4290085,47.8052139 40.2079506,47.6746445 41.0407944,47.7700195 
				40.5083542,46.8887901 40.0490532,46.0203743 39.6418915,45.1247787 39.0519104,44.3746681 38.79179,43.4532051 
				38.2401886,42.6770363 37.9379768,41.7834663 37.5056763,40.945488 37.2982101,40.0083199 36.9032669,39.1543617 
				36.3003235,38.3997002 36.0220566,37.4893303 35.4883804,36.6937103 35.2156258,35.7681351 34.689827,35.0051155 
				33.8473625,34.8770485 32.9720345,34.9120445 32.1031494,35.0774879 31.2396832,35.1356239 30.3803368,34.9314194 
				29.5139179,35.0503654 28.6516094,34.948494 27.794405,35.1408195 26.930706,35.0455589 26.0744762,34.9488182 
				25.2086525,34.9438133 24.3457699,34.80233 23.4798794,34.8711891 22.6167812,34.9555244 21.7527618,34.9343452 
				20.8902149,35.0008926 20.0261307,34.9730682 19.1636887,35.0492363 18.3007851,34.9861679 17.4333134,34.9528847 
				16.5743942,35.176815 15.7066994,34.9332848 14.8406715,34.9255943 13.9729414,35.1638718 13.0913773,35.0599365 
				12.2058983,35.0346489 11.3644295,34.9729576 10.7108021,35.6634674 10.0379629,36.3899879 9.4655991,37.1915131 
				8.9171991,37.9927025 8.2958612,38.7383499 7.7102218,39.5107307 7.1393943,40.2902069 6.4207649,40.9684982 
				5.8413382,41.7467461 5.3660703,42.6018448 4.7827926,43.379818 4.1534638,44.1218872 3.7020602,44.7185478 3.14291,45.225399 
				2.7544839,45.8817101 2.1214862,46.4570885 2.9733813,46.5783081 3.7470939,46.4354439 4.512908,46.4441948 
				5.2695789,46.5757065 6.2571816,46.6292801 7.2485471,46.6733665 8.2375994,46.7563362 9.2239351,46.8320541 
				10.2264223,46.7094765 11.2205219,46.7458611 12.1956406,46.9975739 13.1892958,47.0390739 14.1812181,47.1021652 			"/>
		</g>
	</g>
	<g>
		<g>
			<polygon fill="none" stroke="#FFFFFF" stroke-width="2" stroke-linecap="round" stroke-linejoin="round" points="
				29.0026684,47.733387 29.974514,47.9128151 30.9563866,47.9927864 31.9486809,47.8590355 32.9340248,47.9422531 
				33.9136772,47.7640152 34.9027786,47.8024979 35.8889275,47.851799 36.8701935,47.9837151 37.8590736,47.9974594 
				38.623764,48.0698471 39.3958206,47.9963722 40.1702652,48.07267 40.9719963,48.0540199 40.1751862,48.2039871 
				39.4031754,48.031868 38.6299973,48.0615463 37.8591194,48.0390129 36.8749771,48.0773315 35.8949089,47.9586639 
				34.9107666,47.9124603 33.9258766,47.8992424 32.9339943,47.9592285 31.954607,47.8422318 30.9697037,47.6636658 
				29.9839764,47.7700768 28.9927883,47.8838425 			"/>
			<polygon fill="none" stroke="#FFFFFF" stroke-width="2" stroke-linecap="round" stroke-linejoin="round" points="
				29.0026684,47.733387 29.974514,47.9128151 30.9563866,47.9927864 31.9486809,47.8590355 32.9340248,47.9422531 
				33.9136772,47.7640152 34.9027786,47.8024979 35.8889275,47.851799 36.8701935,47.9837151 37.8590736,47.9974594 
				38.623764,48.0698471 39.3958206,47.9963722 40.1702652,48.07267 40.9719963,48.0540199 40.1751862,48.2039871 
				39.4031754,48.031868 38.6299973,48.0615463 37.8591194,48.0390129 36.8749771,48.0773315 35.8949089,47.9586639 
				34.9107666,47.9124603 33.9258766,47.8992424 32.9339943,47.9592285 31.954607,47.8422318 30.9697037,47.6636658 
				29.9839764,47.7700768 28.9927883,47.8838425 			"/>
		</g>
		<g>
			<polyline fill="none" stroke="#FFFFFF" stroke-width="2" stroke-linecap="round" stroke-linejoin="round" points="
				29.0431957,48.0288544 28.9915562,47.7011757 29.9909019,47.7273064 30.9782848,47.7323074 31.9639015,47.9548187 
				32.9432411,47.7126617 33.9368782,47.7568321 34.9269066,47.7600861 35.9113808,47.6612892 36.9023933,47.7064056 
				37.8919411,47.5718956 38.6641197,47.5952911 39.4290085,47.8052139 40.2079506,47.6746445 41.0407944,47.7700195 
				40.5083542,46.8887901 40.0490532,46.0203743 39.6418915,45.1247787 39.0519104,44.3746681 38.79179,43.4532051 
				38.2401886,42.6770363 37.9379768,41.7834663 37.5056763,40.945488 37.2982101,40.0083199 36.9032669,39.1543617 
				36.3003235,38.3997002 36.0220566,37.4893303 35.4883804,36.6937103 35.2156258,35.7681351 34.689827,35.0051155 
				33.8473625,34.8770485 32.9720345,34.9120445 32.1031494,35.0774879 31.2396832,35.1356239 30.3803368,34.9314194 
				29.5139179,35.0503654 28.6516094,34.948494 27.794405,35.1408195 26.930706,35.0455589 26.0744762,34.9488182 
				25.2086525,34.9438133 24.3457699,34.80233 23.4798794,34.8711891 22.6167812,34.9555244 21.7527618,34.9343452 
				20.8902149,35.0008926 20.0261307,34.9730682 19.1636887,35.0492363 18.3007851,34.9861679 17.4333134,34.9528847 
				16.5743942,35.176815 15.7066994,34.9332848 14.8406715,34.9255943 13.9729414,35.1638718 13.0913773,35.0599365 
				12.2058983,35.0346489 11.3644295,34.9729576 10.7108021,35.6634674 10.0379629,36.3899879 9.4655991,37.1915131 
				8.9171991,37.9927025 8.2958612,38.7383499 7.7102218,39.5107307 7.1393943,40.2902069 6.4207649,40.9684982 
				5.8413382,41.7467461 5.3660703,42.6018448 4.7827926,43.379818 4.1534638,44.1218872 3.7020602,44.7185478 3.14291,45.225399 
				2.7544839,45.8817101 2.1214862,46.4570885 2.9733813,46.5783081 3.7470939,46.4354439 4.512908,46.4441948 
				5.2695789,46.5757065 6.2571816,46.6292801 7.2485471,46.6733665 8.2375994,46.7563362 9.2239351,46.8320541 
				10.2264223,46.7094765 11.2205219,46.7458611 12.1956406,46.9975739 13.1892958,47.0390739 14.1812181,47.1021652 			"/>
			<polyline fill="none" stroke="#FFFFFF" stroke-width="2" stroke-linecap="round" stroke-linejoin="round" points="
				29.0431957,48.0288544 28.9915562,47.7011757 29.9909019,47.7273064 30.9782848,47.7323074 31.9639015,47.9548187 
				32.9432411,47.7126617 33.9368782,47.7568321 34.9269066,47.7600861 35.9113808,47.6612892 36.9023933,47.7064056 
				37.8919411,47.5718956 38.6641197,47.5952911 39.4290085,47.8052139 40.2079506,47.6746445 41.0407944,47.7700195 
				40.5083542,46.8887901 40.0490532,46.0203743 39.6418915,45.1247787 39.0519104,44.3746681 38.79179,43.4532051 
				38.2401886,42.6770363 37.9379768,41.7834663 37.5056763,40.945488 37.2982101,40.0083199 36.9032669,39.1543617 
				36.3003235,38.3997002 36.0220566,37.4893303 35.4883804,36.6937103 35.2156258,35.7681351 34.689827,35.0051155 
				33.8473625,34.8770485 32.9720345,34.9120445 32.1031494,35.0774879 31.2396832,35.1356239 30.3803368,34.9314194 
				29.5139179,35.0503654 28.6516094,34.948494 27.794405,35.1408195 26.930706,35.0455589 26.0744762,34.9488182 
				25.2086525,34.9438133 24.3457699,34.80233 23.4798794,34.8711891 22.6167812,34.9555244 21.7527618,34.9343452 
				20.8902149,35.0008926 20.0261307,34.9730682 19.1636887,35.0492363 18.3007851,34.9861679 17.4333134,34.9528847 
				16.5743942,35.176815 15.7066994,34.9332848 14.8406715,34.9255943 13.9729414,35.1638718 13.0913773,35.0599365 
				12.2058983,35.0346489 11.3644295,34.9729576 10.7108021,35.6634674 10.0379629,36.3899879 9.4655991,37.1915131 
				8.9171991,37.9927025 8.2958612,38.7383499 7.7102218,39.5107307 7.1393943,40.2902069 6.4207649,40.9684982 
				5.8413382,41.7467461 5.3660703,42.6018448 4.7827926,43.379818 4.1534638,44.1218872 3.7020602,44.7185478 3.14291,45.225399 
				2.7544839,45.8817101 2.1214862,46.4570885 2.9733813,46.5783081 3.7470939,46.4354439 4.512908,46.4441948 
				5.2695789,46.5757065 6.2571816,46.6292801 7.2485471,46.6733665 8.2375994,46.7563362 9.2239351,46.8320541 
				10.2264223,46.7094765 11.2205219,46.7458611 12.1956406,46.9975739 13.1892958,47.0390739 14.1812181,47.1021652 			"/>
		</g>
		<g>
			<polygon fill="none" stroke="#FFFFFF" stroke-width="2" stroke-linecap="round" stroke-linejoin="round" points="
				28.9733238,47.7261009 29.2260342,48.1393051 28.6679935,48.7766914 28.4177341,49.5446091 28.0775738,50.2692719 
				27.6594772,50.9504433 26.9155197,51.231144 26.1558685,51.481308 25.417675,51.7989693 24.6481819,52.0314102 
				23.9017677,52.188488 23.146513,52.1314697 22.3854523,51.9855652 21.6371613,52.1446686 20.8873215,52.0991554 
				20.1356201,52.0965881 19.3813057,52.1301956 18.635994,52.0657692 17.8800869,51.7434235 17.0711784,51.5374031 
				16.2707005,51.3026199 15.4712381,50.9900513 15.1051445,50.2276459 14.6493206,49.5482521 14.2722826,48.8197517 
				13.7362213,48.1332664 14.0531921,47.6773376 14.1696663,47.2236938 13.1348095,47.2133331 12.1265192,47.2947159 
				11.1402893,47.0377502 10.3911924,47.1478386 9.6364164,47.018959 8.8903074,47.2082138 8.1376152,47.3276253 
				7.3920279,47.0944061 6.6433372,47.0591812 5.8873453,47.1901512 5.1347547,47.1517715 4.3612266,47.0573158 
				3.5844252,46.9985504 2.8048751,46.9447823 2.0419328,46.7670403 2.1657381,47.6102066 2.4214227,48.418808 
				2.7177541,49.2175903 3.1211367,49.9230309 3.2537262,50.7343636 3.7477789,51.4062157 3.8439682,52.2232094 
				4.0605431,52.9990158 4.4956322,53.6983452 4.8003402,54.4079971 5.0158706,55.1567421 5.2639861,55.9264526 
				6.2112064,55.9608612 7.1305723,56.0773926 8.0575485,56.0597 9.0047789,56.0383148 9.9532833,55.9529724 10.9021044,56.0306587 
				11.8484983,55.9677734 12.7972488,55.9429436 13.7417831,55.9509163 14.6957483,56.0643654 15.6337824,55.8410988 
				16.587532,55.9465904 17.5342464,55.9157791 18.4873505,55.9206924 19.4345665,55.9847832 20.3779144,56.1447945 
				21.3274879,56.0897446 22.2778473,56.1905251 23.2230568,56.0829391 24.172102,56.1004677 25.1180973,55.9676933 
				26.063942,56.0429802 27.0117683,56.1148338 27.9617786,56.0410385 28.9104233,56.0141525 29.8556328,55.8889122 
				30.8081055,55.8947525 31.7574768,55.8364716 32.7003441,56.0112915 33.6531677,55.9962311 34.5984192,56.110405 
				35.5483856,56.17313 36.5047989,56.0202789 37.4767876,56.1727982 38.4516678,56.0140953 39.3519669,56.0024605 
				39.5149841,55.1571121 39.6628799,54.2276649 39.9618187,53.3252563 40.0377617,52.4111443 40.3499146,51.542038 
				40.3596039,50.6064987 40.6359444,49.7079086 40.7754173,48.7807922 41.0115776,47.7956886 40.1643677,47.952652 
				39.4114037,47.8131828 38.6536827,47.8959579 37.8981972,47.8065453 36.9159851,47.6917915 35.9237595,47.754364 
				34.9343872,47.6036873 33.9431686,47.708622 32.9567833,47.8387833 31.97089,48.0667305 30.9801712,47.9819756 
				29.9911842,47.9131432 			"/>
			<polygon fill="none" stroke="#FFFFFF" stroke-width="2" stroke-linecap="round" stroke-linejoin="round" points="
				28.9733238,47.7261009 29.2260342,48.1393051 28.6679935,48.7766914 28.4177341,49.5446091 28.0775738,50.2692719 
				27.6594772,50.9504433 26.9155197,51.231144 26.1558685,51.481308 25.417675,51.7989693 24.6481819,52.0314102 
				23.9017677,52.188488 23.146513,52.1314697 22.3854523,51.9855652 21.6371613,52.1446686 20.8873215,52.0991554 
				20.1356201,52.0965881 19.3813057,52.1301956 18.635994,52.0657692 17.8800869,51.7434235 17.0711784,51.5374031 
				16.2707005,51.3026199 15.4712381,50.9900513 15.1051445,50.2276459 14.6493206,49.5482521 14.2722826,48.8197517 
				13.7362213,48.1332664 14.0531921,47.6773376 14.1696663,47.2236938 13.1348095,47.2133331 12.1265192,47.2947159 
				11.1402893,47.0377502 10.3911924,47.1478386 9.6364164,47.018959 8.8903074,47.2082138 8.1376152,47.3276253 
				7.3920279,47.0944061 6.6433372,47.0591812 5.8873453,47.1901512 5.1347547,47.1517715 4.3612266,47.0573158 
				3.5844252,46.9985504 2.8048751,46.9447823 2.0419328,46.7670403 2.1657381,47.6102066 2.4214227,48.418808 
				2.7177541,49.2175903 3.1211367,49.9230309 3.2537262,50.7343636 3.7477789,51.4062157 3.8439682,52.2232094 
				4.0605431,52.9990158 4.4956322,53.6983452 4.8003402,54.4079971 5.0158706,55.1567421 5.2639861,55.9264526 
				6.2112064,55.9608612 7.1305723,56.0773926 8.0575485,56.0597 9.0047789,56.0383148 9.9532833,55.9529724 10.9021044,56.0306587 
				11.8484983,55.9677734 12.7972488,55.9429436 13.7417831,55.9509163 14.6957483,56.0643654 15.6337824,55.8410988 
				16.587532,55.9465904 17.5342464,55.9157791 18.4873505,55.9206924 19.4345665,55.9847832 20.3779144,56.1447945 
				21.3274879,56.0897446 22.2778473,56.1905251 23.2230568,56.0829391 24.172102,56.1004677 25.1180973,55.9676933 
				26.063942,56.0429802 27.0117683,56.1148338 27.9617786,56.0410385 28.9104233,56.0141525 29.8556328,55.8889122 
				30.8081055,55.8947525 31.7574768,55.8364716 32.7003441,56.0112915 33.6531677,55.9962311 34.5984192,56.110405 
				35.5483856,56.17313 36.5047989,56.0202789 37.4767876,56.1727982 38.4516678,56.0140953 39.3519669,56.0024605 
				39.5149841,55.1571121 39.6628799,54.2276649 39.9618187,53.3252563 40.0377617,52.4111443 40.3499146,51.542038 
				40.3596039,50.6064987 40.6359444,49.7079086 40.7754173,48.7807922 41.0115776,47.7956886 40.1643677,47.952652 
				39.4114037,47.8131828 38.6536827,47.8959579 37.8981972,47.8065453 36.9159851,47.6917915 35.9237595,47.754364 
				34.9343872,47.6036873 33.9431686,47.708622 32.9567833,47.8387833 31.97089,48.0667305 30.9801712,47.9819756 
				29.9911842,47.9131432 			"/>
		</g>
	</g>
</g>
<g>
	<polygon fill="none" stroke="#FFFFFF" stroke-width="2" stroke-linecap="round" stroke-linejoin="round" points="
		9.9816961,14.8255186 9.7947626,15.7005005 9.3906202,16.5007286 8.9940834,17.3137283 8.1321621,17.60672 7.2910209,17.9313297 
		6.5074348,18.4964581 5.6816325,18.0334969 4.8711171,17.6398811 4.0406761,17.2935791 3.6448998,16.4616089 3.2702236,15.614994 
		2.709594,14.8286753 3.08463,13.9304876 3.4377534,13.0527153 3.9365869,12.2578249 4.7662973,11.9143791 5.6078396,11.5391273 
		6.5080266,11.4048223 7.3465457,11.7434368 8.2319088,12.0177698 9.1548138,12.178875 9.4253969,13.0661221 9.7340469,13.9424829 	
		"/>
</g>
<g>
	<polygon fill="none" stroke="#FFFFFF" stroke-width="2" stroke-linecap="round" stroke-linejoin="round" points="
		11.7749367,30.2253685 11.8145447,29.4094772 11.8409319,28.6348591 11.5730963,27.8623123 11.7864265,27.0846558 12,26.3195152 
		12,25.4745693 11.6010361,24.6528606 11.2286263,23.8703709 10.6296482,23.2397614 9.9947386,22.6402054 9.291152,22.1743088 
		8.5161562,21.9119968 7.7090001,21.6444817 6.8860345,21.4943867 6.863997,21.3371468 6.036675,21.5722084 5.2096305,21.78512 
		4.4291635,22.1159344 3.7978573,22.6568832 3.1460772,23.1997795 2.6279008,23.881403 2.3027041,24.6701832 2.0078051,25.462965 
		1.9130063,26.3135071 1.8491728,27.0854034 2.003521,27.8665428 1.892984,28.653183 1.884689,29.4403725 1.9750128,30.1763496 
		2.7629638,30.1160278 3.5970061,30.2024212 4.4316797,30.384119 5.2414966,30.2930889 6.0498242,30.1683178 6.8586693,30.1015968 
		7.6724582,30.1424675 8.483099,30.0607147 9.2992716,30.1518631 10.1053524,30.1932278 10.9145727,30.2451019 	"/>
</g>
<g>
	<polygon fill="none" stroke="#FFFFFF" stroke-width="2" stroke-linecap="round" stroke-linejoin="round" points="
		41.7816887,14.8281269 41.5416298,15.6910896 41.0594559,16.5049458 40.7534866,17.3694248 39.9200592,17.7097607 
		39.1096878,18.1795292 38.2099838,18.4344902 37.3956642,18.0288105 36.5274849,17.7487812 35.7162018,17.3205261 
		35.2990913,16.518589 35.083416,15.6410456 34.7822075,14.8249283 35.0936394,13.9872389 35.3263779,13.0951529 
		35.5828552,12.200016 36.5140991,11.9790621 37.3718987,11.5964928 38.2108612,11.1261921 39.0595741,11.5238905 
		39.9213409,11.8606577 40.6637154,12.3734083 41.2455521,13.0840693 41.5951233,13.9507322 	"/>
</g>
<g>
	<polygon fill="none" stroke="#FFFFFF" stroke-width="2" stroke-linecap="round" stroke-linejoin="round" points="
		43.5116692,30.2689533 43.5569534,29.4068966 43.3980827,28.6278439 43.5940971,27.8602886 43.4858971,27.0796776 
		43.6000786,26.2996044 43.2802887,25.5135479 42.9666138,24.7301769 42.710331,23.9403019 42.1229782,23.3514729 
		41.6341515,22.6533527 41.0690918,22.0098686 40.2432098,21.8102684 39.6230316,21.7352886 39,21.6777649 39,21.5161858 
		38.0250969,21.852972 37.1259918,22.095211 36.2903786,22.3063812 35.5588303,22.7394772 34.9339561,23.3153133 
		34.245636,23.8248386 34.0171165,24.6576557 33.8684998,25.5041943 33.5898094,26.3090458 33.5423317,27.0787964 
		33.6678085,27.8511543 33.6200485,28.6304665 33.6336975,29.4099255 33.6809616,30.1992455 34.5063248,30.1598778 
		35.3213272,30.183054 36.1346893,30.3463573 36.9370193,30.1077404 37.7540054,30.1786728 38.5677452,30.2294788 
		39.3767242,30.0849953 40.1887512,30.2067108 41.0010986,30.2923889 41.807312,30.0899277 42.6174011,30.1232834 	"/>
</g>
<g>
	<polygon fill="none" stroke="#FFFFFF" stroke-width="2" stroke-linecap="round" stroke-linejoin="round" points="
		27.0026722,6.9953804 26.755064,7.8269434 26.7849922,8.7289066 26.5882835,9.6069355 25.9335709,10.2303905 
		25.3112221,10.8598824 24.5420361,11.2831421 23.765892,11.616766 22.8963699,11.6992321 22.0594749,11.8555069 
		21.2131596,11.7166634 20.3513737,11.5571527 19.5194969,11.3923092 18.8500652,10.8504982 18.3646412,10.1011715 
		17.6764488,9.5240469 17.4899426,8.6675348 17.2274818,7.8377366 17.1353912,6.9901109 17.0687256,6.101439 17.3703804,5.2570429 
		17.5875626,4.4094763 18.2033596,3.7743979 18.7503948,3.0479879 19.4731903,2.5122819 20.3500786,2.3613923 21.2135563,2.1068408 
		22.0607033,1.7800846 22.9571438,1.9024253 23.7657604,2.3382859 24.6329479,2.5364692 25.3202839,3.0902383 25.8777618,3.7698956 
		26.3989716,4.490428 26.6192474,5.3275032 26.8990822,6.1453462 	"/>
</g>
<g>
	<polygon fill="none" stroke="#FFFFFF" stroke-width="2" stroke-linecap="round" stroke-linejoin="round" points="
		29.4706993,27.4052696 29.4973412,26.5038986 29.5020161,25.5717049 29.2951775,24.6422119 29.4339104,23.7304478 
		29.4180088,22.8108101 29.564991,21.9059258 29.3934593,21.0332947 29.0218182,20.2159729 28.6849194,19.4069729 
		28.2827568,18.6515236 27.9010201,17.8568459 27.40415,17.122179 26.6025944,16.6752815 25.9770985,16.0252838 
		25.2277298,15.5374136 24.3677273,15.2468624 23.4820175,15.0556889 22.5686512,14.9706078 22.5793648,15.2273855 
		21.7013645,15.3344154 20.8607292,15.6162004 20.0281181,15.8293381 19.2994671,16.2900505 18.5007019,16.6809616 
		17.6381741,17.0114574 17.2735157,17.8768673 16.7500935,18.6021709 16.2109241,19.2977428 15.8751116,20.1278706 
		15.6459618,20.9988689 15.6726217,21.911665 15.7334003,22.8094006 15.6601086,23.7301006 15.6189222,24.647234 
		15.6327772,25.5323677 15.7927008,26.4195671 15.8305302,27.2419815 16.6516476,27.3628025 17.5485439,27.2477455 
		18.4386864,27.3739872 19.3511677,27.4910355 20.2698154,27.4829521 21.1878166,27.5261364 22.1040192,27.5022831 
		23.0220318,27.4490814 23.9406929,27.353756 24.8573475,27.3935127 25.773777,27.62397 26.6935463,27.3787346 
		27.6249142,27.3589039 28.5608635,27.3775158 	"/>
</g>
</svg>
