<svg xmlns="http://www.w3.org/2000/svg" viewBox="0 0 48 48" stroke="#818a97">
  <g id="chat-user" fill="none" fill-rule="evenodd">
    <path d="M12 32.395v4.342L4.117 39.56C2.23 40.235 1 42.02 1 44.022V47h30v-2.977c0-2.003-1.232-3.788-3.117-4.463L20 36.737v-4.613"
      stroke-width="2"></path>
    <path d="M23.697 24.105c0 5.232-3.534 9.475-7.895 9.475-4.36 0-7.895-4.243-7.895-9.475 0-5.232 3.535-9.473 7.895-9.473 4.36 0 7.895 4.242 7.895 9.473z"
      stroke-width="2"></path>
    <path d="M23.646 23.25c-.265.032-.47.015-.738.065-2.69.52-4.416-.456-5.897-3.046-.884 1.7-3.66 3.042-5.94 3.042-1.124 0-2.114-.205-3.08-.71M21 13c0-6.628 5.82-12 13-12s13 5.372 13 12c0 4.992-3.302 9.272-8 11.08C38 25 33 30 32 31c0-1 0-5 .007-6.14-1.06-.15-2.08-.42-3.04-.792"
      stroke-width="2"></path>
    <path d="M40 13h-2v2h2v-2zm-5 0h-2v2h2v-2zm-5 0h-2v2h2v-2z" fill="#818a97"></path>
  </g>
</svg>