<svg xmlns="http://www.w3.org/2000/svg" viewBox="0 0 48 48" stroke="#818a97">
  <g id="user-check" stroke-width="2" fill="none" fill-rule="evenodd">
    <path d="M42 34l-6.05 6L32 35.99" stroke-linecap="round"></path>
    <path d="M25 29v-5.72m-10 .126V29L4.98 32.577A6 6 0 0 0 1 38.227V43h22"></path>
    <path d="M29.976 13c0 6.627-4.476 12-10 12-5.522 0-10-5.373-10-12s4.478-12 10-12c5.524 0 10 5.373 10 12z"></path>
    <path d="M29.938 11.938c-.336.04-.62-.004-.96.06-3.408.66-5.596-.576-7.47-3.857-1.125 2.16-4.642 3.86-7.53 3.86a8.035 8.035 0 0 1-3.873-.96M47 37c0 5.523-4.478 10-10 10-5.524 0-10-4.477-10-10s4.476-10 10-10c5.522 0 10 4.477 10 10z"></path>
  </g>
</svg>