<svg xmlns="http://www.w3.org/2000/svg" viewBox="0 0 48 48" stroke="#818a97">
  <g id="devices-window-settings" fill="none" fill-rule="evenodd">
    <path d="M1 9h40" stroke-width="2" stroke-linecap="round" stroke-linejoin="round"></path>
    <path d="M7 4a1 1 0 0 0 0 2 1 1 0 0 0 0-2m4 0a1 1 0 0 0 0 2 1 1 0 0 0 0-2m4 0a1 1 0 0 0 0 2 1 1 0 0 0 0-2" fill="#818a97"></path>
    <path d="M19 33H5a4 4 0 0 1-4-4V5a4 4 0 0 1 4-4h32a4 4 0 0 1 4 4v16" stroke-width="2" stroke-linecap="round"></path>
    <path d="M33 27.523c-1 .372-2.026.93-2.855 1.64l-2.19-1.26-3.004 5.194 2.18 1.26A9.06 9.06 0 0 0 26.978 36c0 .56.057 1.11.155 1.64l-2.182 1.262 3 5.195 2.198-1.26c.83.71 1.855 1.268 2.855 1.64V47h6v-2.523c1-.372 2-.93 2.83-1.64l2.178 1.26 2.998-5.195-2.186-1.26c.1-.532.155-1.08.155-1.642 0-.562-.058-1.11-.158-1.642l2.18-1.26-3-5.198-2.17 1.26C41 28.45 40 27.893 39 27.52V25h-6v2.523z"
      stroke-width="2" stroke-linejoin="round"></path>
    <path d="M39.973 36a4 4 0 1 1-8 0 4 4 0 0 1 8 0z" stroke-width="2" stroke-linejoin="round"></path>
  </g>
</svg>