<svg xmlns="http://www.w3.org/2000/svg" viewBox="0 0 48 48" stroke="#818a97">
  <g id="tools-setting2" stroke-width="2" fill="none" fill-rule="evenodd" stroke-linejoin="round">
    <path d="M16.36 35.586L35.585 16.36a7.995 7.995 0 0 0 8.777-1.708c2.373-2.373 2.938-5.716 1.705-8.628L42.242 10H38V5.46l3.83-3.827C38.915.4 35.422.967 33.05 3.34a8.002 8.002 0 0 0-1.71 8.777L12.118 31.344A7.995 7.995 0 0 0 1.633 41.83L5.46 38H10v4.242L6.024 46.07a7.88 7.88 0 0 0 8.703-1.707c2.374-2.373 2.865-5.865 1.632-8.777z"></path>
    <path d="M23.85 19.608l-7.49-7.49a7.998 7.998 0 0 0-1.707-8.778C12.28.967 8.938.4 6.023 1.632L10 5.462v4.54H5.46L1.633 6.024a7.882 7.882 0 0 0 1.707 8.703c2.373 2.375 5.866 2.902 8.778 1.67l7.492 7.474m4.24 4.22l7.494 7.498a7.995 7.995 0 0 0 1.707 8.777 8.002 8.002 0 0 0 8.78 1.705L38 42.243V38h4.243l3.828 3.83a8 8 0 0 0-1.703-8.78 8 8 0 0 0-8.778-1.706l-7.49-7.492"></path>
  </g>
</svg>