<?xml version="1.0" encoding="UTF-8" standalone="no"?>
<svg width="179px" height="37px" viewBox="0 0 179 37" version="1.1" xmlns="http://www.w3.org/2000/svg" xmlns:xlink="http://www.w3.org/1999/xlink">
    <!-- Generator: Sketch 40.3 (33839) - http://www.bohemiancoding.com/sketch -->
    <title>Page 1</title>
    <desc>Created with Sketch.</desc>
    <defs></defs>
    <g id="animation" stroke="none" stroke-width="1" fill="none" fill-rule="evenodd">
        <g id="Page-1" transform="translate(0.000000, -1.000000)">
            <path d="M165.066382,18.4674009 C164.248447,18.076448 162.8877,17.3129833 161.776052,17.3129833 C160.26659,17.3129833 159.325964,18.7624598 159.325964,20.9975304 C159.325964,23.2362892 160.270308,24.7078951 161.77977,24.7078951 C162.891418,24.7078951 164.252165,23.9444304 165.0701,23.5534774 L166.479179,26.1573715 C165.389838,26.7216715 163.311539,27.732248 161.23324,27.732248 C158.340724,27.732248 155.719614,25.6188892 155.719614,20.9975304 C155.719614,16.3798598 158.340724,14.2923186 161.210933,14.2923186 C163.311539,14.2923186 165.389838,15.3250245 166.475461,15.8671951 L165.066382,18.4710892 L165.066382,18.4674009 L165.066382,18.4674009 Z M150.239448,14.6463892 L153.801184,14.6463892 L153.801184,27.544148 L150.239448,27.544148 L150.239448,14.6463892 L150.239448,14.6463892 Z M150.142783,9.71153035 L153.875542,9.71153035 L153.875542,12.7801421 L150.142783,12.7801421 L150.142783,9.71153035 L150.142783,9.71153035 Z M143.900451,17.3461774 C144.145831,16.6822951 145.335555,14.2775656 148.376787,14.4951715 L148.376787,17.8145833 C144.320572,17.8145833 143.900451,21.9380304 143.900451,21.9380304 L143.900451,27.5367715 L140.338715,27.5367715 L140.338715,14.6463892 L143.900451,14.6463892 L143.900451,17.3461774 Z M129.378383,14.5873774 L131.010536,14.5873774 L131.010536,11.3454186 L134.57599,10.8548833 L134.57599,14.5873774 L137.840294,14.5873774 L137.840294,17.1912715 L134.57599,17.1912715 L134.57599,23.4538951 C134.57599,24.534548 135.096494,24.6820774 135.564948,24.6820774 C136.159809,24.6820774 137.100435,24.2394892 137.397866,24.0919598 L138.635922,26.7216715 C137.844012,27.0868068 136.308525,27.7506892 134.654065,27.7506892 C132.230003,27.7506892 131.017972,26.4229245 131.017972,23.4022598 L131.017972,17.1875833 L129.382101,17.1875833 L129.382101,14.5873774 L129.378383,14.5873774 L129.378383,14.5873774 Z M119.968411,19.8689304 L124.641795,19.8689304 C124.641795,17.8293362 123.87591,16.822448 122.392473,16.822448 C120.931344,16.822448 120.165459,17.9252304 119.968411,19.8689304 L119.968411,19.8689304 Z M119.942386,21.7831245 C120.117126,23.9223009 120.931344,25.098848 122.440806,25.098848 C123.775527,25.098848 125.40768,24.3132539 126.868809,23.5276598 L128.177506,25.7369127 C127.262906,26.3012127 124.864868,27.7248715 122.095042,27.7248715 C118.87907,27.7248715 116.306292,25.6115127 116.306292,21.0454774 C116.306292,16.7486833 118.581639,14.2886304 122.392473,14.2886304 C126.225615,14.2886304 128.129173,16.697048 128.129173,19.9869539 C128.132891,20.5918245 128.065969,21.1930068 127.932125,21.7831245 L119.942386,21.7831245 L119.942386,21.7831245 Z M99.2969583,16.2323304 C100.163226,15.3987892 101.672688,14.2923186 103.353173,14.2923186 C105.286475,14.2923186 106.249407,15.2992068 106.669529,16.5015715 C107.435413,15.6680304 109.141924,14.2923186 111.023174,14.2923186 C113.569927,14.2923186 114.610936,15.9372715 114.610936,18.3456892 L114.610936,27.4556304 L111.0492,27.4556304 L111.0492,19.1534127 C111.0492,17.9768656 110.826126,17.0437421 109.662428,17.0437421 C108.647445,17.0437421 107.584129,17.951048 106.940934,18.7366421 L106.940934,27.4556304 L103.379198,27.4556304 L103.379198,19.1571009 C103.379198,17.9768656 103.156125,17.0437421 101.992427,17.0437421 C101.003469,17.0437421 99.9401528,17.9289186 99.2969583,18.7145127 L99.2969583,27.4593186 L95.7352224,27.4593186 L95.7352224,14.5615598 L99.3006762,14.5615598 L99.3006762,16.2323304 L99.3006762,16.2323304 L99.2969583,16.2323304 Z M84.4886138,20.333648 L91.7608011,20.333648 C91.8091336,16.9699774 90.4744121,15.5463186 88.3217555,15.5463186 C86.0724337,15.5463186 84.6633545,17.4346951 84.4886138,20.333648 L84.4886138,20.333648 Z M84.4625886,21.4401186 C84.6113041,24.4866009 86.0724337,26.4487421 88.0763749,26.4487421 C89.8051924,26.4487421 91.5637531,25.3201421 92.6010436,24.6562598 L93.3929535,25.7110951 C92.2552801,26.4487421 90.2959535,27.7285598 88.0206066,27.7285598 C85.2247555,27.7285598 82.8527435,25.4418539 82.8527435,20.9975304 C82.8527435,16.6269715 85.2024481,14.2923186 88.3440628,14.2923186 C91.6083677,14.2923186 93.3148779,16.6491009 93.3148779,19.8431127 C93.3148779,20.7504186 93.1661624,21.4401186 93.1661624,21.4401186 L84.4625886,21.4401186 Z M77.8782104,17.4199421 C78.0269259,17.0289892 79.2389571,14.251748 82.4512116,14.4988598 L82.4512116,15.9704656 C78.3243569,15.9704656 77.8782104,20.0238362 77.8782104,20.0238362 L77.8782104,27.5404598 L76.3204157,27.5404598 L76.3204157,14.6463892 L77.8782104,14.6463892 L77.8782104,17.4199421 L77.8782104,17.4199421 Z M72.1415106,24.3390715 L72.1415106,21.1708774 C71.2752429,20.9975304 69.6430904,20.5549421 68.3306762,20.5549421 C65.9549463,20.5549421 65.2150868,22.0081068 65.2150868,23.6014245 C65.2150868,25.5930715 66.3750676,26.3749774 67.910555,26.3749774 C69.6914229,26.3749774 71.0038371,25.4713598 72.1415106,24.3427598 L72.1415106,24.3390715 L72.1415106,24.3390715 Z M72.1415106,25.6889656 C71.2008851,26.5962715 69.6430904,27.7285598 67.613124,27.7285598 C65.735591,27.7285598 63.6312669,26.7179833 63.6312669,23.6493715 C63.6312669,20.6508362 65.6091828,19.4005245 67.7395322,19.4005245 C69.1225862,19.4005245 71.1525526,19.9426951 72.1415106,20.1344833 L72.1415106,18.515348 C72.1415106,16.5753362 71.5726738,15.568448 69.5427074,15.568448 C68.1819607,15.568448 66.6762164,16.1069304 65.0403461,16.7228656 L64.449202,15.5168127 C66.4010928,14.7570362 68.1596534,14.2886304 69.6914229,14.2886304 C72.1638179,14.2886304 73.6993053,15.4172304 73.6993053,18.3641304 L73.6993053,27.4556304 L72.1415106,27.4556304 L72.1415106,25.6889656 L72.1415106,25.6889656 Z M178.867179,23.8706656 C178.867179,26.2790833 177.011954,27.7285598 173.918671,27.7285598 C171.542942,27.7285598 168.996189,26.8433833 167.635442,26.0577892 L169.022214,23.5756068 C170.282578,24.2394892 172.483567,25.0213951 173.769956,25.0213951 C174.710581,25.0213951 175.253393,24.6046245 175.253393,24.0403245 C175.253393,22.9596715 173.62124,22.6646127 172.037421,22.2220245 C170.111555,21.6835421 167.884541,20.7246009 167.884541,18.1207068 C167.884541,15.8635068 169.565026,14.2923186 172.658308,14.2923186 C174.784939,14.2923186 177.034261,15.0520951 178.32065,15.6901598 L176.937596,17.9989951 C175.82223,17.5084598 174.04508,16.9662892 172.881381,16.9662892 C171.992806,16.9662892 171.449994,17.3646186 171.449994,17.951048 C171.449994,19.0317009 173.007789,19.2308656 174.565584,19.6734539 C176.714523,20.2598833 178.867179,21.3147186 178.867179,23.8706656 L178.867179,23.8706656 L178.867179,23.8706656 Z M52.886573,17.7961421 L52.886573,24.1804774 C53.8495058,25.3607127 55.3366606,26.3676009 56.9688131,26.3676009 C59.0694193,26.3676009 60.1587603,24.3021892 60.1587603,20.9901539 C60.1587603,17.6486127 59.0694193,15.5832009 56.9688131,15.5832009 C55.3106354,15.5832009 53.8495058,16.6159068 52.886573,17.7961421 L52.886573,17.7961421 Z M51.3287783,9.51974212 L52.886573,9.51974212 L52.886573,16.2987186 C53.8271984,15.3877245 55.2362777,14.2591245 57.1658611,14.2591245 C59.6642813,14.2591245 61.7388623,16.1511892 61.7388623,20.9901539 C61.7388623,25.8033009 59.6642813,27.6916774 57.1658611,27.6916774 C55.2362777,27.6916774 53.8234806,26.6147127 52.886573,25.6779009 L52.886573,27.4224362 L51.3287783,27.4224362 L51.3287783,9.51974212 Z" id="Fill-1" fill="#252E35"></path>
            <path d="M0.00223073229,19.5244492 C0.0319738295,20.1920198 0.2141503,20.7821374 0.559913806,21.3796315 L8.70580456,35.3912374 C9.08131116,36.0366786 9.61668691,36.5272139 10.2450098,36.8923492 L10.2450098,24.3818551 L0.00223073229,19.5244492 Z" id="Fill-3" fill="#296BAB"></path>
            <path d="M10.2416637,36.8919804 C10.8811403,37.2644921 11.4648486,37.4562804 12.3459879,37.5706156 L20.6926445,37.5706156 L20.6926445,16.8390451 L10.2416637,24.3814862 L10.2416637,36.8919804 Z" id="Fill-5" fill="#0077B8"></path>
            <path d="M20.6926445,16.8383074 L20.6926445,37.569878 L28.6712304,37.569878 C29.4371151,37.569878 30.1732568,37.3485839 30.8090155,36.9760721 L30.8090155,19.4053192 L20.6926445,16.8383074 Z" id="Fill-7" fill="#1E8BC7"></path>
            <path d="M38.2626357,13.5288539 L30.8119898,19.4042127 L30.8119898,36.9749656 C31.4291591,36.6172068 31.9422275,36.1045421 32.287991,35.4849186 L40.4375996,21.4733127 C41.1923307,20.1713656 41.1923307,18.5669833 40.4375996,17.2650362 L38.2626357,13.5288539" id="Fill-9" fill="#4C9DD3"></path>
            <path d="M9.86132389,20.6678021 L19.9702591,13.4609904 L30.0494511,15.8546551 L36.6710082,10.6874374 L32.3359517,3.22244918 C31.5775028,1.92050212 30.1795772,1.11646682 28.6663971,1.11646682 L12.3708977,1.11646682 C10.8577176,1.11646682 9.45979208,1.92050212 8.70506098,3.22244918 L0.997880912,16.5037845 L9.86132389,20.6678021 Z" id="Fill-11" fill="#BEDBE8"></path>
            <path d="M30.8105026,19.4053192 L38.2611485,13.5299604 L36.5472025,10.4761015 L29.9888496,15.624878 L19.8799144,13.2090839 L9.85649064,20.3495074 L1.16035258,16.2260604 L0.565490636,17.2513898 C0.163958824,17.9410898 -0.0293713085,18.7303721 0.00408967587,19.5233427 L10.2431509,24.3807486 L20.6941317,16.8383074" id="Fill-13" fill="#FFFFFF"></path>
        </g>
    </g>
</svg>