<?xml version="1.0" encoding="utf-8"?>
<!-- Generator: Adobe Illustrator 20.0.0, SVG Export Plug-In . SVG Version: 6.00 Build 0)  -->
<svg version="1.1" id="Layer_1" xmlns:sketch="http://www.bohemiancoding.com/sketch/ns"
	 xmlns="http://www.w3.org/2000/svg" xmlns:xlink="http://www.w3.org/1999/xlink" x="0px" y="0px" viewBox="0 0 558 126"
	 style="enable-background:new 0 0 558 126;" xml:space="preserve">
<style type="text/css">
	.st0{fill:#1F8CEB;}
	.st1{fill:#79BAF3;}
</style>
<g id="Page-1" sketch:type="MSPage">
	<g id="logo_color" sketch:type="MSLayerGroup">
		<g id="mark" transform="translate(432.000000, 0.000000)" sketch:type="MSShapeGroup">
			<path id="Fill-1" class="st0" d="M117.7,98.7c-7.1,2.9-16.5,5.1-27.1,4C80.1,101.6,69,97,59.4,89.9c-8.3-6.1-17-10.4-25.5-12.3
				c-8.5-2-16.7-1.7-23.6-0.5c-3.8,0.7-7.1,1.6-10,2.6V126h125.6V94.4C123.6,95.9,120.9,97.3,117.7,98.7"/>
			<path id="Fill-4" class="st0" d="M0.3,0.4v70.3c2.3-1.4,5.1-2.9,8.2-4.2c0.9-0.4,1.9-0.8,2.9-1.1V11.5h103.4v76.7
				c0.4-0.1,0.8-0.1,1.1-0.2c3.8-0.7,7.1-1.6,10-2.6V0.4H0.3"/>
			<path id="Fill-5" class="st1" d="M11,65.5c6.7-2.3,15.4-4,24.6-3c10.5,1.1,21.7,5.6,31.3,12.7c8.3,6.1,17,10.4,25.5,12.3
				c8,1.9,16,1.7,22.6,0.6V11H11V65.5L11,65.5z"/>
		</g>
		<g id="software" transform="translate(204.000000, 97.000000)" sketch:type="MSShapeGroup">
			<path id="Fill-7" class="st0" d="M0.5,17.7h1.1c0.9,3.3,3.1,5.1,6.1,5.1c2.6,0,4.4-1.5,4.4-3.6c0-4.9-11.1-6.9-11.1-13
				c0-3,2.7-5.2,6.5-5.2c1.2,0,2,0.1,2.7,0.3c0.7,0.1,1.3,0.3,1.9,0.3c0.5,0,0.7-0.1,1-0.4h0.9l0.8,5.5h-1.1
				c-1.1-2.8-3.3-4.5-5.8-4.5C5.5,2.1,4.3,3.4,4.3,5c0,4.7,11.2,6.1,11.2,13c0,3.6-3.1,6.1-7.6,6.1c-2.7,0-3.7-0.6-4.7-0.6
				c-0.4,0-0.7,0.1-1,0.4H1.4L0.5,17.7"/>
			<path id="Fill-8" class="st0" d="M33.7,22.9c4.9,0,8.2-4,8.2-9.9c0-6.4-3.7-10.9-8.9-10.9c-5.1,0-8.3,3.9-8.3,10.1
				C24.7,19.3,29.2,22.9,33.7,22.9L33.7,22.9L33.7,22.9z M33.3,1c7.6,0,12.9,4.6,12.9,11.2c0,6.4-5.1,11.9-13,11.9
				c-7.4,0-12.8-4.6-12.8-11C20.4,6,25.8,1,33.3,1L33.3,1L33.3,1z"/>
			<path id="Fill-9" class="st0" d="M57.3,19.2c0,2.8,0.4,3.4,3.1,3.4v1h-9.7v-1c2.3,0,2.7-0.9,2.7-2.8V5.1c0-1.9-0.7-2.6-2.7-2.6
				v-1h16.8v4.4h-1c-0.2-2.4-0.8-2.8-3.7-2.8h-5.5v7.8h5.5c2.2,0,2.7-0.4,2.9-2.3h1v6.5h-1c-0.2-2.2-0.8-2.6-3-2.6h-5.4V19.2"/>
			<path id="Fill-10" class="st0" d="M71.4,0.9h1c0.1,0.2,0.2,0.4,0.6,0.5c0.3,0.1,0.8,0.1,1.7,0.1h15c1.8,0,2.1-0.1,2.3-0.6h1
				L93.5,7h-1c-0.5-3.7-1.2-3.9-3.3-3.9h-5.1v16.6c0,2.4,0.4,2.8,4.1,2.8v1H76v-1c3.5,0,4.1-0.5,4.1-2.8V3.1h-5.1
				c-2.1,0-2.8,0.2-3.3,3.9h-1L71.4,0.9"/>
			<path id="Fill-11" class="st0" d="M118.8,4.3c0.3-0.6,0.4-1,0.4-1.2c0-0.5-0.4-0.6-1.5-0.6h-1.3c-1.2,0-1.6,0.1-1.6,0.6
				c0,0.4,0.1,0.8,0.5,1.6l1.7,3.4L118.8,4.3L118.8,4.3L118.8,4.3z M100.5,5.4c-1.2-2.7-1.8-3-4.5-3v-1h10.2v1
				c-1.8,0.1-2.3,0.3-2.3,1.2c0,0.7,0.7,2.3,1.2,3.3l6.2,13l3.7-7.7l-3.3-6.9c-1.3-2.9-1.7-3-4-3v-1h16.6v1c-2.4,0-2.8,0.3-4.1,3
				l-2.3,4.6l4.8,9.8l6.1-14.6c0.4-1,0.5-1.4,0.5-1.7c0-0.8-0.7-1.1-2.6-1.1v-1h7.6v1c-2,0-2.6,0.1-4.1,3.8l-7.5,17.8h-2.3l-4.6-9.8
				l-4.7,9.8h-2.2L100.5,5.4L100.5,5.4L100.5,5.4z"/>
			<path id="Fill-12" class="st0" d="M146.6,13.2l-3.4-8.9l-3.4,8.9H146.6L146.6,13.2L146.6,13.2z M132,22.5c2.4,0,2.8-0.4,3.8-3.2
				l6.4-17.5L141.9,1h4l6.9,18.4c1,2.8,1.4,3.2,3.6,3.2v1h-10.5v-1c2.8,0,3.6-0.3,3.6-1.3c0-0.4-0.1-1-0.5-1.9l-1.7-4.4h-8.1
				l-1.7,4.7c-0.3,0.7-0.4,1.1-0.4,1.5c0,1,0.7,1.5,3.5,1.4v1H132V22.5L132,22.5L132,22.5z"/>
			<path id="Fill-13" class="st0" d="M165.9,13.4c0.2,0,0.9,0.1,1.1,0.1c4.7-0.2,6.3-2,6.3-5.6c0-3.6-1.9-5.7-5.8-5.7
				c-0.5,0-1.4,0.1-1.7,0.1V13.4L165.9,13.4L165.9,13.4z M165.9,19c0,3,0.4,3.6,3.6,3.5v1h-10.8v-1c3,0.1,3.3-0.7,3.3-3V5.3
				c0-2.3-0.4-2.9-3.3-2.9v-1c0.8,0,2.6-0.1,5.1-0.2c1.9-0.1,3.6-0.1,4.3-0.1c7.1,0,9.6,3.1,9.6,6.3c0,2.6-1.5,4.5-4.5,5.8
				c0.6,0.4,2.1,1.9,2.6,2.4l2.3,2.3c3.1,3.1,5.6,4.6,8.5,4.9v1c-7,0.2-8.7-1.1-11.9-4.2l-1.9-1.9c-1.8-1.8-2.3-2.3-3.8-3.4
				c-1,0.1-2.2,0.1-3.1,0V19L165.9,19L165.9,19z"/>
			<path id="Fill-14" class="st0" d="M187.6,23.5v-1c2.9,0,3.6-0.5,3.6-2.4V4.9c0-2.3-1.2-2.4-3.6-2.4v-1h18.1l0.3,5.3h-1l-0.2-0.7
				c-0.7-2.9-1.3-3-3.5-3h-6.2v8.2h5.5c2,0,2.4-0.2,2.7-2.7h1v7.1h-1c-0.2-2.5-0.7-2.8-2.7-2.8h-5.5v6.4c0,2.2,0.3,2.5,2.1,2.5h3.9
				c3.6,0,4.3-0.5,5.2-4h1l-0.5,5.6H187.6"/>
		</g>
		<path id="fogcreek" sketch:type="MSShapeGroup" class="st0" d="M417,78.4l-0.5,0.5c-2.1-0.1-4.6-0.2-7.6-0.2
			c-2.8,0-5.5,0.1-8.2,0.2c-1.7-3.2-6-8.5-12.7-15.9c-3.5-3.9-5.8-6.2-6.7-6.9l0.3,16c0.1,1.2,0.4,2,1,2.2c0.7,0.4,2.6,0.6,5.6,0.7
			l0.5,0.5v2.9l-0.5,0.5c-3-0.2-7.2-0.3-12.8-0.3c-5.6,0-9.8,0.1-12.8,0.3l-0.5-0.5v-2.9l0.5-0.5c3-0.1,4.9-0.3,5.6-0.7
			c0.6-0.3,1-1,1-2.2c0.2-4.1,0.3-11.2,0.3-21.3V35.2c0-6.6-0.1-11.9-0.3-15.9c-0.1-1.2-0.4-1.9-1-2.3c-0.6-0.4-2.4-0.6-5.4-0.7
			l-0.5-0.5v-2.6l0.5-0.5c6-0.7,12.1-1.9,18.1-3.9l1,0.6c0,0.8,0,2.4-0.1,4.6c-0.3,7.5-0.5,15.7-0.5,24.8v15.3l4.6-3.8
			c2-1.7,4.9-4.4,8.5-8.3l4.9-5.1c0.9-1,1.6-1.8,2.2-2.5c2.7,0.1,4.8,0.1,6.5,0.1c2.1,0,4,0,5.7-0.1l0.5,0.5v2.8l-0.5,0.5l-3.4,0.2
			c-1.4,0.1-2.8,0.6-4.3,1.6c-0.6,0.4-1.7,1.3-3.6,2.8l-3.9,3.2l-1.4,1.3l-4,3.6l10,11.7c6.4,7.4,10.2,11.5,11.5,12.1
			c0.7,0.3,1.3,0.5,2.1,0.5l0.5,0.5V78.4L417,78.4L417,78.4z M348.8,51c0-8.4-2.6-12.6-7.9-12.6c-5.5,0-8.3,4.2-8.3,12.5v1
			c1.8,0.3,5,0.4,9.6,0.4c2.4,0,4.6-0.1,6.5-0.4C348.8,51.5,348.8,51.2,348.8,51L348.8,51L348.8,51z M361.1,52.2c0,0.5,0,1.3,0,2.4
			l-0.5,0.7c-4.1,1.1-9.6,1.7-16.4,1.7c-1.2,0-3.1,0-5.5,0.1c-2.5,0-4.3,0.1-5.6,0.1c0.2,4.6,1.6,8.4,4.3,11.4
			c2.8,3.2,6.4,4.8,10.9,4.8c3,0,6.6-1,10.7-3.1l1.1,1.4l-2.1,4.6c-4.6,2.9-9.5,4.4-14.8,4.4c-7,0-12.5-2-16.4-5.9
			c-3.9-4-5.8-9.6-5.8-16.9c0-8.7,2.1-14.7,6.2-17.9c5.7-4.4,11.2-6.6,16.3-6.6c5.6,0,9.9,1.6,13,4.8
			C359.5,41.3,361.1,46,361.1,52.2L361.1,52.2L361.1,52.2z M303.6,51c0-8.4-2.6-12.6-7.9-12.6c-5.5,0-8.3,4.2-8.3,12.5v1
			c1.8,0.3,5,0.4,9.6,0.4c2.4,0,4.6-0.1,6.5-0.4C303.6,51.5,303.6,51.2,303.6,51L303.6,51L303.6,51z M315.8,52.2c0,0.5,0,1.3,0,2.4
			l-0.5,0.7c-4.1,1.1-9.6,1.7-16.4,1.7c-1.2,0-3.1,0-5.5,0.1c-2.5,0-4.3,0.1-5.6,0.1c0.2,4.6,1.6,8.4,4.3,11.4
			c2.8,3.2,6.4,4.8,10.9,4.8c3,0,6.6-1,10.7-3.1l1.1,1.4l-2.1,4.6c-4.6,2.9-9.5,4.4-14.8,4.4c-7,0-12.5-2-16.4-5.9
			s-5.8-9.6-5.8-16.9c0-8.7,2.1-14.7,6.2-17.9c5.7-4.4,11.2-6.6,16.3-6.6c5.6,0,9.9,1.6,13,4.8C314.3,41.3,315.8,46,315.8,52.2
			L315.8,52.2L315.8,52.2z M271.6,33.4l-0.3,8.3c0,1.4-0.1,2.9-0.2,4.7l-2,0.6c-1.5-2.1-3.5-3.2-6.1-3.2c-2.3,0-4.3,0.9-5.8,2.8
			c-0.9,1.2-1.4,2.9-1.4,5.1v11c0,2.3,0.1,5.4,0.3,9.5c0.1,1.2,0.4,1.9,1,2.2c0.6,0.3,2.8,0.6,6.5,0.7l0.5,0.4v2.9l-0.5,0.5
			c-4.6-0.2-9.1-0.3-13.7-0.3c-5.6,0-9.8,0.1-12.8,0.3l-0.5-0.5v-2.9l0.5-0.5c3-0.1,4.9-0.3,5.6-0.7c0.6-0.3,1-1,1-2.2
			c0.2-4.1,0.3-8.4,0.3-13.1v-6.7c0-6.2-0.2-9.8-0.7-10.8c-0.3-0.6-1-1-2-1.2c-0.4-0.1-1.7-0.1-4.1-0.2l-0.5-0.5v-2.6l0.5-0.5
			c5.6-0.5,11.5-1.8,17.7-3.9l1,0.6l-0.1,9.2c1.9-2.2,4.3-4.9,7-7.9c1.3-1.2,3-1.9,5.2-1.9C269.6,32.8,270.7,33,271.6,33.4
			L271.6,33.4L271.6,33.4z M231.8,70.4l-2.2,4.8c-6.6,3.6-13.9,5.4-22.1,5.4c-16.3,0-27.4-5.9-33.4-17.6c-2.8-5.4-4.2-11.3-4.2-17.6
			c0-10.2,3.4-18.4,10.2-24.5c7-6.3,16.5-9.4,28.5-9.4c7.6,0,15.1,1.4,22.4,4.2l0.6,0.7c-1.1,4.3-1.7,9.3-2,15.1l-0.4,0.5h-2.8
			l-0.5-0.5c-0.1-3.8-0.3-6.4-0.5-7.9c-3.9-4.4-9.5-6.6-16.9-6.6c-7.6,0-13.5,2.4-17.8,7.2c-4.3,4.8-6.5,11.3-6.5,19.6
			c0,11.1,3.8,19.7,11.5,25.6c4.1,3.2,9.6,4.8,16.4,4.8c6.2,0,12.3-1.6,18.3-4.8L231.8,70.4L231.8,70.4L231.8,70.4z M129.1,49.1
			c0-7.9-2.6-11.8-7.9-11.8c-5.2,0-7.8,3.4-7.8,10.2c0,8.1,2.7,12.1,8.1,12.1C126.6,59.5,129.1,56,129.1,49.1L129.1,49.1L129.1,49.1
			z M139.9,87.1c0-3.4-1.2-5.5-3.6-6.4c-1-0.4-3-0.6-6-0.6l-8.9-0.1c-1,0-2.4,0-4.1,0.1c-4.3,2.7-6.4,5.7-6.4,9.1
			c0,3.2,1.3,5.6,3.8,7.4c2.5,1.8,5.9,2.7,10.2,2.7c4.6,0,8.2-1.1,10.9-3.3C138.6,93.8,139.9,90.9,139.9,87.1L139.9,87.1L139.9,87.1
			z M148.4,81.8c0,6.8-2.6,12.3-7.7,16.3c-5.1,4.1-11.8,6.1-20,6.1c-6.5,0-11.6-1.2-15.3-3.6c-3.8-2.4-5.6-5.7-5.6-9.8
			c0-2.7,0.6-4.8,1.8-6.2c0.1-0.2,1.8-1.2,5-3.1c1.5-0.9,2.7-1.5,3.4-1.9c-4.3-0.8-6.5-2.8-6.5-6.2c0-1.8,0.6-3.7,1.9-5.5
			c0.1-0.1,0.9-0.7,2.5-1.9c0.7-0.5,2.1-1.5,4-2.9c-6.7-2.4-10.1-6.9-10.1-13.5c0-5.1,1.9-9.2,5.7-12.3c3.8-3.1,8.9-4.7,15.2-4.7
			c6.1,0,10.9,1.4,14.4,4.1c2,0.1,3.2,0.1,3.8,0.1c1.5-0.1,3.8-0.1,6.9-0.2l0.6,0.5l-0.5,4.8l-0.5,0.5h-6.9c0.4,1.5,0.6,3,0.6,4.6
			c0,7.4-3.6,12.5-10.8,15.2c-3.2,1.2-6.4,1.8-9.6,1.8c-1.1,0-2.4-0.1-4.1-0.2c-2,1.1-2.9,2.5-2.9,4.2c0,1.6,1.1,2.5,3.4,2.7
			c1.3,0.1,3.5,0.2,6.6,0.2c1,0,2.7,0,5.1-0.1c2.4-0.1,4.2-0.1,5.3-0.1c7.1,0,11.4,1.6,13.2,4.7C147.9,76.9,148.4,79.1,148.4,81.8
			L148.4,81.8L148.4,81.8z M81.9,59.3c0-7.8-0.8-13.3-2.5-16.7c-1.7-3.4-4.3-5-7.8-5c-6.2,0-9.3,5.6-9.3,16.8
			c0,14.4,3.5,21.6,10.4,21.6c4.3,0,7.1-2.4,8.3-7.2C81.6,66.3,81.9,63.1,81.9,59.3L81.9,59.3L81.9,59.3z M94.9,55.4
			c0,11-3.7,18.5-11.1,22.4c-3.6,1.9-7.8,2.9-12.4,2.9c-7.2,0-12.6-2.1-16.4-6.2c-3.8-4.2-5.6-10.1-5.6-17.8
			c0-10.7,3.6-17.8,11-21.4c3.6-1.7,7.8-2.6,12.5-2.6c10,0,16.6,3.4,19.8,10.3C94.1,46.3,94.9,50.4,94.9,55.4L94.9,55.4L94.9,55.4z
			 M46.9,12.9l-0.6,5.3c-0.1,1.2-0.3,2.7-0.4,4.7l-0.3,3.7l-0.5,0.5h-2.7l-0.5-0.5c-0.1-4.2-0.3-6.6-0.7-7.2
			c-0.7-1-5.1-1.5-13.1-1.5c-1.3,0-3.3,0.1-6,0.3c-0.3,3.2-0.5,8.9-0.5,17.1v6.3l5.3,0.1c1.6,0,4.5,0,8.8-0.2c0.8,0,1.4-0.3,1.7-0.7
			c0.5-0.8,0.8-2.8,0.8-6.2l0.5-0.5h2.9l0.5,0.5c-0.1,3.5-0.2,6.7-0.2,9.6c0,3.2,0.1,6.6,0.2,10.3l-0.5,0.4h-3.1L38,54.7
			c0-3.3-0.1-5.2-0.4-5.8c-0.5-1.1-2.1-1.7-4.8-2c-1.8-0.2-3.7-0.2-5.4-0.2c-2.2,0-4.1,0-5.8,0.1V58c0,7.4,0.2,12.2,0.6,14.5
			c0.2,0.9,0.7,1.5,1.6,1.7c0.2,0.1,2.5,0.2,6.7,0.5l0.5,0.5v3.1l-0.5,0.5l-18.8-0.3c-2.7,0-6.4,0.1-11.1,0.3L0,78.4v-3.2l0.5-0.5
			c3.2-0.2,5-0.3,5.5-0.5c0.9-0.2,1.4-0.8,1.6-1.7c0.4-2.3,0.6-7.1,0.6-14.5V33.3c0-7.4-0.2-12.2-0.6-14.5c-0.2-0.9-0.7-1.5-1.6-1.7
			c-0.5-0.1-2.3-0.3-5.5-0.5L0,16.1v-3.2l0.5-0.4c3,0.2,7.8,0.3,14.4,0.3c4.3,0,14.8-0.1,31.5-0.3L46.9,12.9L46.9,12.9L46.9,12.9z"
			/>
	</g>
</g>
</svg>
